<?xml version="1.0" standalone="no"?>
<!DOCTYPE svg PUBLIC "-//W3C//DTD SVG 1.1//EN" "http://www.w3.org/Graphics/SVG/1.1/DTD/svg11.dtd" >
<svg>
<metadata>
Created by FontForge 20090914 at Thu Oct 13 08:41:08 2016
 By www-data
4.1 (c)1986-92 by Richard A. Ware. All Rights Reserved.
</metadata>
<defs>
<font id="BodoniFLF-BoldItalic" horiz-adv-x="376" >
  <font-face 
    font-family="BodoniFLF"
    font-weight="700"
    font-style="italic"
    font-stretch="normal"
    units-per-em="1000"
    panose-1="2 0 8 3 9 0 0 9 0 3"
    ascent="800"
    descent="-200"
    x-height="437"
    cap-height="672"
    bbox="-210.568 -270 1352 862.001"
    underline-thickness="25"
    underline-position="-154"
    slope="-12"
    unicode-range="U+0005-U+E011"
  />
<missing-glyph horiz-adv-x="500" 
 />
    <glyph glyph-name=".notdef" horiz-adv-x="500" 
 />
    <glyph glyph-name="breve" horiz-adv-x="414" 
d="M216 532c22.667 0 45.1689 3.83398 67.502 11.501s41.166 18.167 56.499 31.5c4 3.33301 6.5 6 7.5 8s1.5 4 1.5 6c0 3.33301 -1.16699 6.16602 -3.5 8.49902s-5.16602 3.5 -8.49902 3.5c-1.33301 0 -2.83301 -0.333008 -4.5 -1s-4.16699 -2.66699 -7.5 -6
c-12 -9.33301 -27.833 -16.833 -47.5 -22.5s-39.5 -8.5 -59.5 -8.5c-17.333 0 -33.5 2.5 -48.5 7.5s-26.167 12.167 -33.5 21.5c-2.66699 3.33301 -4.5 5.5 -5.5 6.5s-2.16699 1.5 -3.5 1.5c-3.33301 0 -6.5 -1.5 -9.5 -4.5s-4.5 -6.5 -4.5 -10.5
c0 -1.33301 0.166992 -2.5 0.5 -3.5s1.83301 -3.16699 4.5 -6.5c9.33301 -14 22.666 -24.667 39.999 -32s36.666 -11 57.999 -11z" />
    <glyph glyph-name="dotaccent" horiz-adv-x="414" 
d="M321 584c0 18.667 -6.33301 35.334 -19 50.001s-32 22 -58 22c-14.667 0 -27.5 -2.5 -38.5 -7.5s-20.167 -11.333 -27.5 -19s-12.833 -16.5 -16.5 -26.5s-5.5 -20 -5.5 -30c0 -18.667 6.33301 -35.334 19 -50.001s32 -22 58 -22c14.667 0 27.5 2.5 38.5 7.5
s20.167 11.333 27.5 19s12.833 16.5 16.5 26.5s5.5 20 5.5 30z" />
    <glyph glyph-name="ring" horiz-adv-x="313" 
d="M256 579c0 20.667 -7.33301 38.334 -22 53.001s-32.334 22 -53.001 22s-38.334 -7.33301 -53.001 -22s-22 -32.334 -22 -53.001s7.33301 -38.334 22 -53.001s32.334 -22 53.001 -22s38.334 7.33301 53.001 22s22 32.334 22 53.001zM125 579c0 15.333 5.5 28.5 16.5 39.5
s24.167 16.5 39.5 16.5s28.5 -5.5 39.5 -16.5s16.5 -24.167 16.5 -39.5s-5.5 -28.5 -16.5 -39.5s-24.167 -16.5 -39.5 -16.5s-28.5 5.5 -39.5 16.5s-16.5 24.167 -16.5 39.5z" />
    <glyph glyph-name="hungarumlaut" unicode="&#xa;" horiz-adv-x="484" 
d="M166 698l-37 -181l22 -12l100 193h-85zM289 698l-36 -181l21 -12l100 193h-85z" />
    <glyph glyph-name="ogonek" horiz-adv-x="312" 
d="M130 -96c0 22.667 4.50195 40.835 13.502 54.502s19.167 27.5 30.5 41.5h-18c-7.33301 -6 -15 -12.667 -23 -20s-15.333 -15.333 -22 -24s-12.334 -17.834 -17.001 -27.501s-7 -19.834 -7 -30.501c0 -18 4.66699 -31.333 14 -40s21.666 -13 36.999 -13
c13.333 0 24.5 1.5 33.5 4.5s17.833 7.16699 26.5 12.5c5.33301 2.66699 8 5.66699 8 9c0 2 -2 3 -6 3c-2.66699 0 -5 -0.333008 -7 -1c-10 -4 -19.667 -6 -29 -6c-10 0 -18.167 2.83301 -24.5 8.5s-9.5 15.167 -9.5 28.5z" />
    <glyph glyph-name="caron" horiz-adv-x="403" 
d="M94 657l88 -133h43l134 133l-10 10l-138 -77l-108 75z" />
    <glyph glyph-name="dotlessi" unicode="&#xd;" horiz-adv-x="335" 
d="M217 60c0 3.33301 0.333008 7.5 1 12.5s2.66699 13.167 6 24.5l99 365l-213 -32l-5 -17l57 7l-85 -311c-4 -16 -6 -30 -6 -42c0 -26 7.66699 -45.667 23 -59s36 -20 62 -20c44 0 79 12.167 105 36.5s48.333 56.833 67 97.5c2 4 3 8 3 12c0 6 -2.33301 9 -7 9
s-8.33398 -3 -11.001 -9c-16.667 -33.333 -32.167 -57.5 -46.5 -72.5s-26.166 -22.5 -35.499 -22.5s-14 7 -14 21z" />
    <glyph glyph-name="fraction" horiz-adv-x="919" 
d="M168 -4l736 687h-47l-737 -687h48z" />
    <glyph glyph-name="fi" horiz-adv-x="589" 
d="M472 92l100.003 370.004l-216 -35h-70l18 67c6 22 9.33301 42.167 10 60.5s2 34.333 4 48s6.5 25 13.5 34s20.167 15.5 39.5 19.5c17.333 4 36.333 6.16699 57 6.5s39.167 0 55.5 -1s28.5 -2.33301 36.5 -4s8 -2.83398 0 -3.50098
c-14.667 -1.33301 -27.667 -7.33301 -39 -18s-20 -23 -26 -37s-8.66699 -28.167 -8 -42.5s6 -25.833 16 -34.5c14 -13.333 30.333 -21.333 49 -24s36.5 -0.666992 53.5 6s31 17.5 42 32.5s16.167 33.5 15.5 55.5c-1.33301 15.333 -5.33301 29 -12 41s-18 21.833 -34 29.5
s-37.5 13 -64.5 16s-61.167 3.16699 -102.5 0.5c-50.667 -3.33301 -92.334 -13.833 -125.001 -31.5s-58.834 -38 -78.501 -61s-34.167 -46.167 -43.5 -69.5s-16 -42.333 -20 -57l-10 -33h-76l-4 -17h78l-121 -445c-12 -44.667 -26.833 -82.334 -44.5 -113.001
s-36.167 -49.334 -55.5 -56.001c-4 -1.33301 -8.5 -1.83301 -13.5 -1.5s-9.33301 1.16602 -13 2.49902s-5.83398 3.16602 -6.50098 5.49902s1.33301 4.5 6 6.5s9.83398 4.5 15.501 7.5s10.167 7.16699 13.5 12.5s5 12 5 20c0 7.33301 -3 16.666 -9 27.999
c-5.33301 9.33301 -12.833 15.666 -22.5 18.999s-19.167 3.5 -28.5 0.5s-18 -9 -26 -18s-13.333 -20.5 -16 -34.5c-1.33301 -6.66699 -0.333008 -13.834 3 -21.501s8.16602 -14.667 14.499 -21s14 -11.5 23 -15.5s18.833 -6 29.5 -6c40 0 76.333 8.33301 109 25
s61.5 37.5 86.5 62.5s45.667 52 62 81s27.833 56.167 34.5 81.5l106 380h70l59 10l-81 -297c-4 -15.333 -6 -28.333 -6 -39c0 -10 1 -18.667 3 -26s4.83301 -13.5 8.5 -18.5s7.83398 -9.5 12.501 -13.5c12 -11.333 27.667 -19 47 -23s39.666 -2.83301 60.999 3.5
s42.666 19 63.999 38s40 46.167 56 81.5c2.66699 4.66699 2.33398 8.33398 -0.999023 11.001s-6 1.33398 -8 -3.99902c-13.333 -25.333 -26.833 -45.166 -40.5 -59.499s-25.334 -23.166 -35.001 -26.499s-16.667 -1.33301 -21 6s-4.16602 20.333 0.500977 39z" />
    <glyph glyph-name="fl" horiz-adv-x="568" 
d="M407 660c-8.66699 -3.33301 -16.5 -8.16309 -23.5 -14.4961s-12.167 -13.166 -15.5 -20.499s-4.83301 -14.666 -4.5 -21.999s3.5 -13.666 9.5 -18.999c10.667 -10 21.667 -14 33 -12s20.333 5.66699 27 11s10.334 8.33301 11.001 9l-135 -479
c-10.667 -39.333 -9.66699 -70 3 -92s34 -33 64 -33c30.667 0 57 6.16699 79 18.5s40.5 26.333 55.5 42s26.667 31 35 46l17.5 31.5c2 4 2 7.83301 0 11.5s-4 2.83398 -6 -2.49902c-16 -30 -31.333 -53 -46 -69s-27 -26.333 -37 -31s-17.167 -3.83398 -21.5 2.49902
s-4.5 17.166 -0.5 32.499l169 622l-172 -27c-6.66699 2.66699 -12.167 5 -16.5 7s-8.5 3.5 -12.5 4.5s-8.66699 1.83301 -14 2.5s-12.333 0.666992 -21 0c-50.667 -3.33301 -92.334 -13.833 -125.001 -31.5s-58.834 -38 -78.501 -61s-34.167 -46.167 -43.5 -69.5
s-16 -42.333 -20 -57l-10 -33h-76l-4 -17h78l-121 -445c-12 -44.667 -26.833 -82.334 -44.5 -113.001s-36.167 -49.334 -55.5 -56.001c-4 -1.33301 -8.66699 -1.83301 -14 -1.5s-9.66602 1.16602 -12.999 2.49902s-5.33301 3.16602 -6 5.49902s1.33301 4.5 6 6.5
s9.83398 4.5 15.501 7.5s10.167 7.16699 13.5 12.5s5 12 5 20c0 7.33301 -3.33301 16.666 -10 27.999c-5.33301 9.33301 -12.666 15.666 -21.999 18.999s-18.666 3.5 -27.999 0.5s-18 -9 -26 -18s-13.333 -20.5 -16 -34.5c-1.33301 -6.66699 -0.333008 -13.834 3 -21.501
s8.16602 -14.667 14.499 -21s14 -11.5 23 -15.5s18.833 -6 29.5 -6c40 0 76.333 8.5 109 25.5s61.5 38.167 86.5 63.5s45.667 52.5 62 81.5s27.833 55.5 34.5 79.5l106 380h79l5 17h-81l18 67c6 22 10.167 42.667 12.5 62s4.66602 36.166 6.99902 50.499
s5.66602 26 9.99902 35s11.5 14.5 21.5 16.5c17.333 4 31.5 6.33301 42.5 7s19.333 0.833984 25 0.500977s9.16699 -1.16602 10.5 -2.49902s1 -2.33301 -1 -3z" />
    <glyph glyph-name="Lslash" horiz-adv-x="551" 
d="M121 278l-89.001 -64l-13 -43l91 66l-59 -221h-54l-5 -16h476c9.33301 0 17 3 23 9s10.333 13.667 13 23l37 141c0 6 0.666992 10.5 2 13.5l2 4.5c0 7.33301 -2.33301 11 -7 11c-6.66699 0 -12.334 -6.66699 -17.001 -20c-7.33301 -20.667 -16.666 -41 -27.999 -61
s-24.666 -37.667 -39.999 -53s-32.833 -27.833 -52.5 -37.5s-41.5 -14.5 -65.5 -14.5h-123l90 334l121 87l13 43l-123 -88l71 264h54l3 16h-269l-3 -16h54z" />
    <glyph glyph-name="lslash" horiz-adv-x="328" 
d="M120 275l-12.998 -9.50293l-28.5 -21l-29 -21l-13.5 -9.5l-13 -43l86 63l-27 -99c-3.33301 -11.333 -5.83301 -21.333 -7.5 -30s-2.5 -17.667 -2.5 -27c0 -15.333 2.83301 -28.666 8.5 -39.999s13 -20.666 22 -27.999s19.5 -12.833 31.5 -16.5s24.333 -5.5 37 -5.5
c24 0 44.833 3.16699 62.5 9.5s33.667 15.333 48 27s27.166 25.834 38.499 42.501s22.666 35.667 33.999 57c2 4 3.16699 6.66699 3.5 8s0.5 2.33301 0.5 3c0 5.33301 -2.66699 8 -8 8c-3.33301 0 -5.66602 -1.66699 -6.99902 -5c-20.667 -40 -40.334 -68.5 -59.001 -85.5
s-34.667 -25.5 -48 -25.5c-14.667 0 -22 9.33301 -22 28c0 3.33301 0.333008 7 1 11s2 10 4 18l71 261l115 82l13 43l-116 -83l85 311l-215 -35l-4 -17l58 9z" />
    <glyph glyph-name="Zcaron" horiz-adv-x="581" 
d="M11 26l-6.99805 -25.999h508l54 202h-18c-26.667 -62.667 -57.834 -109.334 -93.501 -140.001s-80.834 -46 -135.501 -46h-151l509 632l6 24h-494l-46 -174h14c10.667 32 24 58.167 40 78.5s33.667 36.5 53 48.5s40.5 20.167 63.5 24.5s47.167 6.5 72.5 6.5h131z
M314.002 852.001l88 -133h43l134 133l-10 10l-138 -77l-108 75z" />
    <glyph glyph-name="zcaron" horiz-adv-x="505" 
d="M70 276c2.66699 0 5.00293 1.99805 7.00293 5.99805c6.66699 13.333 12 23.666 16 30.999l12 22c14.667 -3.33301 38.667 -5 72 -5c18.667 0 39.334 0.666992 62.001 2s45.667 4.16602 69 8.49902s46.166 10.5 68.499 18.5s43.166 18.667 62.499 32
c-15.333 -17.333 -37.833 -35 -67.5 -53l-96.5 -58c-34 -20 -67.5 -41.333 -100.5 -64s-61.167 -46.667 -84.5 -72c-9.33301 -10 -18.333 -20.667 -27 -32s-16.667 -22.5 -24 -33.5s-13.166 -21.833 -17.499 -32.5s-6.5 -20 -6.5 -28c0 -6 1.16699 -11.167 3.5 -15.5
s6.16602 -6.5 11.499 -6.5c9.33301 0 16.666 4.83301 21.999 14.5s9.66602 20.5 12.999 32.5c21.333 0 40 -3 56 -9l54 -20c16.667 -5.33301 35.5 -10 56.5 -14s47.167 -6 78.5 -6c34 0 63.5 6 88.5 18s46 27.5 63 46.5s29.667 40 38 63s12.5 45.5 12.5 67.5
c0 22.667 -5 38.834 -15 48.501s-23.667 14.5 -41 14.5s-30.333 -5.5 -39 -16.5s-13 -24.167 -13 -39.5s5.33301 -27.166 16 -35.499s23.334 -12.5 38.001 -12.5c10 0 20.667 3.66699 32 11c-0.666992 -4 -1.5 -8.66699 -2.5 -14s-2.5 -10.333 -4.5 -15
s-4.5 -8.66699 -7.5 -12s-6.5 -5 -10.5 -5s-7.66699 1.33301 -11 4c-22.667 17.333 -49.334 29 -80.001 35s-62 9 -94 9c-32.667 0 -63.5 -2.16699 -92.5 -6.5s-52.833 -8.16602 -71.5 -11.499c23.333 23.333 49.666 44.5 78.999 63.5l89 55.5
c34.667 20.667 68.167 41.667 100.5 63s60.833 47 85.5 77c17.333 12 30 23.5 38 34.5s12 18.167 12 21.5c0 5.33301 -2 8 -6 8s-8 -1 -12 -3c-8 -4.66699 -15 -10.667 -21 -18s-10.667 -13.666 -14 -18.999c-26 1.33301 -55.333 3 -88 5s-65.167 4.33301 -97.5 7
s-62.5 5.5 -90.5 8.5s-50.333 6.16699 -67 9.5c-2.66699 -10.667 -6.5 -24 -11.5 -40l-15.5 -49c-5.33301 -16.667 -10.666 -32.5 -15.999 -47.5s-10 -26.833 -14 -35.5c-0.666992 -0.666992 -1 -2 -1 -4c0 -2.66699 1.33301 -4 4 -4zM214.003 656.998l88 -133h43l134 133
l-10 10l-138 -77l-108 75z" />
    <glyph glyph-name="space" unicode=" " horiz-adv-x="269" 
 />
    <glyph glyph-name="exclam" unicode="!" horiz-adv-x="263" 
d="M210 72c0 18.667 -6.33301 35.334 -19 50.001s-32 22 -58 22c-14.667 0 -27.5 -2.5 -38.5 -7.5s-20.167 -11.333 -27.5 -19s-12.833 -16.5 -16.5 -26.5s-5.5 -20 -5.5 -30c0 -18.667 6.33301 -35.334 19 -50.001s32 -22 58 -22c14.667 0 27.5 2.5 38.5 7.5
s20.167 11.333 27.5 19s12.833 16.5 16.5 26.5s5.5 20 5.5 30zM265 684c-16.667 0 -30.333 -4.33301 -41 -13c-12.667 -10 -22.167 -25.167 -28.5 -45.5s-11 -43.333 -14 -69s-5.16699 -52 -6.5 -79s-3 -51.833 -5 -74.5c-2 -25.333 -5.5 -55 -10.5 -89
s-10.833 -65.667 -17.5 -95l32 -7c4 14 8.83301 28.667 14.5 44l17.5 46c6 15.333 12.167 30 18.5 44l17.5 38l30 57.5c10.667 20.333 20.667 40.5 30 60.5s17 39.667 23 59s9 37 9 53c0 14.667 -2.5 26.667 -7.5 36s-11 16.5 -18 21.5s-14.5 8.33301 -22.5 10
s-15 2.5 -21 2.5z" />
    <glyph glyph-name="quotedbl" unicode="&#x22;" horiz-adv-x="382" 
d="M303 657c0 16 -4.5 27.668 -13.5 35.001s-19.167 11 -30.5 11s-20.833 -2.33301 -28.5 -7s-14 -10.5 -19 -17.5s-8.66699 -14.667 -11 -23s-3.5 -16.5 -3.5 -24.5c0 -14 1.16699 -27.667 3.5 -41s3.5 -28.666 3.5 -45.999c0 -12 -0.833008 -24.667 -2.5 -38
s-4.16699 -26.333 -7.5 -39c-2 -7.33301 -3.16699 -12.166 -3.5 -14.499s-0.5 -4.16602 -0.5 -5.49902c0 -5.33301 1.5 -9.16602 4.5 -11.499s6.5 -3.5 10.5 -3.5c3.33301 0 6.83301 1.33301 10.5 4s6.16699 6.66699 7.5 12c5.33301 29.333 11.5 53.666 18.5 72.999
s14.167 35.666 21.5 48.999s14 24.166 20 32.499s10 16.166 12 23.499c3.33301 8.66699 5.5 15.167 6.5 19.5s1.5 8.16602 1.5 11.499zM471 657.001c0 16 -4.5 27.668 -13.5 35.001s-19.167 11 -30.5 11s-20.833 -2.33301 -28.5 -7s-14 -10.5 -19 -17.5
s-8.66699 -14.667 -11 -23s-3.5 -16.5 -3.5 -24.5c0 -14 1.16699 -27.667 3.5 -41s3.5 -28.666 3.5 -45.999c0 -12 -0.833008 -24.667 -2.5 -38s-4.16699 -26.333 -7.5 -39c-2 -7.33301 -3.16699 -12.166 -3.5 -14.499s-0.5 -4.16602 -0.5 -5.49902
c0 -5.33301 1.5 -9.16602 4.5 -11.499s6.5 -3.5 10.5 -3.5c3.33301 0 6.83301 1.33301 10.5 4s6.16699 6.66699 7.5 12c5.33301 29.333 11.5 53.666 18.5 72.999s14.167 35.666 21.5 48.999s14 24.166 20 32.499s10 16.166 12 23.499c3.33301 8.66699 5.5 15.167 6.5 19.5
s1.5 8.16602 1.5 11.499z" />
    <glyph glyph-name="numbersign" unicode="#" horiz-adv-x="624" 
d="M373 471l70 132h-84l-69 -132h-118l-15 -26h119l-63 -120h-104l-17 -26h108l-70 -133h84l69 133h114l-73 -138h80l72 138h113l16 26h-116l64 120h106l15 26h-107l70 132h-81l-70 -132h-113zM297 325l63 120h113l-63 -120h-113z" />
    <glyph glyph-name="dollar" unicode="$" horiz-adv-x="568" 
d="M410 662l-57 -209.998c-28 6 -48.833 18.167 -62.5 36.5s-20.5 38.166 -20.5 59.499c0 14 2.66699 27.667 8 41s13.666 25.166 24.999 35.499s25.833 19 43.5 26s38.834 10.833 63.501 11.5zM305 277.002l-71.001 -265.996c-40.667 3.33301 -72.667 11.333 -96 24
s-35 22.667 -35 30c0 1.33301 1 2 3 2c3.33301 -0.666992 6.33301 -1 9 -1h8c20.667 0 36 5.83301 46 17.5s15 24.5 15 38.5c0 10.667 -2.16699 20 -6.5 28s-9.83301 14.333 -16.5 19s-13.667 8.16699 -21 10.5s-14 3.5 -20 3.5c-18 0 -33 -6.66699 -45 -20
s-18 -29.666 -18 -48.999s5 -36 15 -50s23.167 -25.667 39.5 -35s34.833 -16.666 55.5 -21.999s41.667 -9 63 -11l-21 -84h21l22 83h16c38.667 0 74.667 6.16699 108 18.5s62.333 29.5 87 51.5s43.834 47.833 57.501 77.5s20.5 61.834 20.5 96.501
c0 48 -14 90.167 -42 126.5s-70.333 62.833 -127 79.5l59 217c18.667 -1.33301 35.5 -3.83301 50.5 -7.5s27.833 -7.83398 38.5 -12.501s18.667 -9.33398 24 -14.001s8 -8.33398 8 -11.001s-2.66699 -4 -8 -4h-3h-7c-16 0 -28.333 -5.33301 -37 -16s-13 -22.667 -13 -36
c0 -10 1.83301 -18.5 5.5 -25.5s8.5 -12.5 14.5 -16.5s12.5 -7 19.5 -9s13.5 -3 19.5 -3c15.333 0 29.333 5 42 15s19 24.667 19 44c0 18 -4.83301 33.667 -14.5 47s-22.5 24.5 -38.5 33.5s-34.167 16.167 -54.5 21.5s-40.833 9 -61.5 11l16 59h-22l-15 -59
c-42 -0.666992 -79 -7.83398 -111 -21.501s-58.833 -31.334 -80.5 -53.001s-38.167 -46.334 -49.5 -74.001s-17 -55.834 -17 -84.501c0 -42 12.833 -77.5 38.5 -106.5s62.5 -49.833 110.5 -62.5zM255.999 10.0059l70.001 261.999c34.667 -11.333 61.167 -27.5 79.5 -48.5
s27.5 -47.167 27.5 -78.5c0 -38 -14.833 -69.667 -44.5 -95s-73.834 -38.666 -132.501 -39.999z" />
    <glyph glyph-name="percent" unicode="%" horiz-adv-x="912" 
d="M122 450c0 -45.333 12.501 -82.332 37.501 -110.999s64.5 -43 118.5 -43c40 0 75.5 7.5 106.5 22.5s57.333 34 79 57s38.167 47.833 49.5 74.5s17 51.667 17 75s-3 44.666 -9 63.999s-15.167 36 -27.5 50s-28.166 24.833 -47.499 32.5s-42.333 11.5 -69 11.5
c-40 0 -75.833 -7.66699 -107.5 -23s-58.334 -34.5 -80.001 -57.5s-38.334 -48.167 -50.001 -75.5s-17.5 -53 -17.5 -77zM272.001 489.001l17.5 66.5c5.66699 21.667 12 41 19 58s15.667 30.667 26 41s23.5 15.5 39.5 15.5c14 0 23.667 -3.66699 29 -11s8 -17.666 8 -30.999
c0 -17.333 -3.33301 -38.166 -10 -62.499l-21 -76.5l-20 -73c-6 -22 -12.5 -41 -19.5 -57s-15 -28.333 -24 -37s-20.5 -13 -34.5 -13c-15.333 0 -26 4.16699 -32 12.5s-9 19.166 -9 32.499c0 17.333 3.33301 37.666 10 60.999zM227.001 -3.99902l629 687h-47l-629 -687h47z
M508.001 154.001c0 -45.333 12.501 -82.332 37.501 -110.999s64.5 -43 118.5 -43c40 0 75.5 7.5 106.5 22.5s57.333 34 79 57s38.167 47.833 49.5 74.5s17 51.667 17 75s-3 44.666 -9 63.999s-15.167 36 -27.5 50s-28.166 24.833 -47.499 32.5s-42.333 11.5 -69 11.5
c-40 0 -75.833 -7.66699 -107.5 -23s-58.334 -34.5 -80.001 -57.5s-38.334 -48.167 -50.001 -75.5s-17.5 -53 -17.5 -77zM658.002 193.002l17.5 66.5c5.66699 21.667 12 41 19 58s15.667 30.667 26 41s23.5 15.5 39.5 15.5c14 0 23.667 -3.66699 29 -11s8 -17.666 8 -30.999
c0 -17.333 -3.33301 -38.166 -10 -62.499l-21 -76.5l-20 -73c-6 -22 -12.5 -41 -19.5 -57s-15 -28.333 -24 -37s-20.5 -13 -34.5 -13c-15.333 0 -26 4.16699 -32 12.5s-9 19.166 -9 32.499c0 17.333 3.33301 37.666 10 60.999z" />
    <glyph glyph-name="ampersand" unicode="&#x26;" horiz-adv-x="761" 
d="M527 634c0 -3.33301 -3.33008 -4.99023 -9.99707 -4.99023c-13.333 0 -26 -1.66699 -38 -5s-22.833 -8.5 -32.5 -15.5s-17.334 -15.833 -23.001 -26.5s-8.5 -23 -8.5 -37c0 -20.667 7.5 -36.5 22.5 -47.5s35.167 -16.5 60.5 -16.5c24 0 43.833 9.5 59.5 28.5
s23.5 42.5 23.5 70.5c0 12.667 -2.5 25.167 -7.5 37.5s-13.333 23.166 -25 32.499s-27 17 -46 23s-42.167 9 -69.5 9c-47.333 0 -87.833 -6 -121.5 -18s-61.167 -27.333 -82.5 -46s-37 -39.334 -47 -62.001s-15 -45 -15 -67c0 -19.333 3.83301 -36.5 11.5 -51.5
s17.5 -27.833 29.5 -38.5s25.167 -18.834 39.5 -24.501s28.166 -8.5 41.499 -8.5c-51.333 -9.33301 -93.333 -22.333 -126 -39s-58.167 -35.334 -76.5 -56.001s-31 -42.334 -38 -65.001s-10.5 -44.334 -10.5 -65.001c0 -25.333 5.5 -47.333 16.5 -66s26 -34.167 45 -46.5
s41.667 -21.666 68 -27.999s55.166 -9.5 86.499 -9.5c46.667 0 88.5 7.16699 125.5 21.5s69.667 33.5 98 57.5s52.333 51.667 72 83s35.834 64 48.501 98c38 2.66699 71 10.167 99 22.5s51.333 28.166 70 47.499s32.5 42 41.5 68s13.5 54 13.5 84
c0 24.667 -4.83301 45.334 -14.5 62.001s-25.167 25 -46.5 25c-16 0 -30.167 -4.83301 -42.5 -14.5s-18.5 -23.167 -18.5 -40.5c0 -14 5.33301 -25.333 16 -34s22.667 -13 36 -13c9.33301 0 18.166 2.16699 26.499 6.5s15.166 11.166 20.499 20.499
c-1.33301 -21.333 -5.66602 -39.5 -12.999 -54.5s-19.166 -27.167 -35.499 -36.5s-38 -16.333 -65 -21s-60.833 -7 -101.5 -7c-48 0 -89.333 -5.33301 -124 -16s-63.167 -25 -85.5 -43s-38.833 -39.167 -49.5 -63.5s-16 -49.833 -16 -76.5c0 -22.667 5.66699 -38.667 17 -48
s23.333 -14 36 -14c17.333 0 30.666 5.83301 39.999 17.5s14 24.167 14 37.5s-4.66699 24.666 -14 33.999s-21 14 -35 14c-9.33301 0 -18.333 -2 -27 -6c0 13.333 5 24 15 32c9.33301 7.33301 21.666 12.333 36.999 15s32 4 50 4c20 0 40.5 -0.833008 61.5 -2.5
s39.167 -2.5 54.5 -2.5c8.66699 0 14.667 0.333008 18 1c-10 -28 -24.333 -56.333 -43 -85s-41.167 -54.334 -67.5 -77.001s-56.666 -41.167 -90.999 -55.5s-72.5 -21.5 -114.5 -21.5c-28 0 -47.833 8.83301 -59.5 26.5s-17.5 40.167 -17.5 67.5
c0 39.333 6.16699 74.666 18.5 105.999s27.5 58 45.5 80s36.833 38.833 56.5 50.5s36.834 17.5 51.501 17.5h30c5.33301 0 9.5 1.16699 12.5 3.5s4.5 4.83301 4.5 7.5c0 5.33301 -4 8 -12 8h-30c-20.667 0 -38 8.16699 -52 24.5s-21 39.166 -21 68.499
c0 24.667 4 48.5 12 71.5s18.667 43.5 32 61.5s28.833 32.5 46.5 43.5s36.5 16.5 56.5 16.5c29.333 0 52.166 -3.66699 68.499 -11s24.5 -13.333 24.5 -18z" />
    <glyph glyph-name="quotesingle" unicode="'" horiz-adv-x="215" 
d="M303 657c0 16 -4.5 27.668 -13.5 35.001s-19.167 11 -30.5 11s-20.833 -2.33301 -28.5 -7s-14 -10.5 -19 -17.5s-8.66699 -14.667 -11 -23s-3.5 -16.5 -3.5 -24.5c0 -14 1.16699 -27.667 3.5 -41s3.5 -28.666 3.5 -45.999c0 -12 -0.833008 -24.667 -2.5 -38
s-4.16699 -26.333 -7.5 -39c-2 -7.33301 -3.16699 -12.166 -3.5 -14.499s-0.5 -4.16602 -0.5 -5.49902c0 -5.33301 1.5 -9.16602 4.5 -11.499s6.5 -3.5 10.5 -3.5c3.33301 0 6.83301 1.33301 10.5 4s6.16699 6.66699 7.5 12c5.33301 29.333 11.5 53.666 18.5 72.999
s14.167 35.666 21.5 48.999s14 24.166 20 32.499s10 16.166 12 23.499c3.33301 8.66699 5.5 15.167 6.5 19.5s1.5 8.16602 1.5 11.499z" />
    <glyph glyph-name="parenleft" unicode="(" horiz-adv-x="462" 
d="M331 453c23.333 76.667 50.999 133 82.999 169s65 54 99 54c24 0 42.333 0.5 55 1.5s19 5.16699 19 12.5c0 6 -5.5 9.5 -16.5 10.5s-28.167 1.5 -51.5 1.5c-46 0 -89.333 -8 -130 -24s-78.167 -37.333 -112.5 -64s-65.166 -57.834 -92.499 -93.501s-50.5 -73 -69.5 -112
s-33.5 -78.667 -43.5 -119s-15 -78.833 -15 -115.5c0 -41.333 4.66699 -79.333 14 -114s24 -64.667 44 -90s45.5 -45.166 76.5 -59.499s67.833 -21.5 110.5 -21.5c30 0 52.833 0.5 68.5 1.5s23.5 6.16699 23.5 15.5c0 8.66699 -7.16699 13.5 -21.5 14.5s-36.5 1.5 -66.5 1.5
c-8 0 -16.333 2.33301 -25 7s-16.5 12 -23.5 22s-12.667 22.5 -17 37.5s-6.5 32.833 -6.5 53.5c0 13.333 2 31.333 6 54s9.16699 47.667 15.5 75s13.333 55.5 21 84.5l22 82.5c7 26 13.667 49.167 20 69.5s10.833 35.5 13.5 45.5z" />
    <glyph glyph-name="parenright" unicode=")" horiz-adv-x="462" 
d="M231 137c-23.333 -76.667 -50.999 -133 -82.999 -169s-65 -54 -99 -54c-24 0 -42.333 -0.5 -55 -1.5s-19 -5.16699 -19 -12.5c0 -6 5.5 -9.5 16.5 -10.5s28.167 -1.5 51.5 -1.5c46 0 89.333 8 130 24s78.167 37.333 112.5 64s65.166 57.834 92.499 93.501
s50.5 73 69.5 112s33.5 78.667 43.5 119s15 78.833 15 115.5c0 41.333 -4.66699 79.333 -14 114s-24 64.667 -44 90s-45.5 45.166 -76.5 59.499s-67.833 21.5 -110.5 21.5c-30 0 -52.833 -0.5 -68.5 -1.5s-23.5 -6.16699 -23.5 -15.5c0 -8.66699 7.16699 -13.5 21.5 -14.5
s36.5 -1.5 66.5 -1.5c8 0 16.333 -2.33301 25 -7s16.5 -12 23.5 -22s12.667 -22.5 17 -37.5s6.5 -32.833 6.5 -53.5c0 -13.333 -2 -31.333 -6 -54s-9.16699 -47.667 -15.5 -75s-13.333 -55.5 -21 -84.5l-22 -82.5l-19.5 -69.5c-6 -20.333 -10.667 -35.5 -14 -45.5z" />
    <glyph glyph-name="asterisk" unicode="*" horiz-adv-x="409" 
d="M161 605c0 -6 2.16602 -12.001 6.49902 -18.001s11.833 -11.333 22.5 -16c29.333 -12.667 52.333 -26.334 69 -41.001s27.667 -25 33 -31c-10.667 -3.33301 -23.667 -6.16602 -39 -8.49902s-31.666 -3.5 -48.999 -3.5c-6 0 -13.167 0.5 -21.5 1.5
s-16.166 1.5 -23.499 1.5c-13.333 0 -22.833 -3.16699 -28.5 -9.5s-8.5 -13.166 -8.5 -20.499c0 -8.66699 3 -16.5 9 -23.5s14 -10.5 24 -10.5c4 0 8.66699 1 14 3s12.666 6.33301 21.999 13c18.667 13.333 38 23.333 58 30s35.667 11.667 47 15
c-1.33301 -6 -3.5 -13.5 -6.5 -22.5s-6.5 -18.333 -10.5 -28s-8.33301 -19 -13 -28s-9.33398 -16.833 -14.001 -23.5l-14.5 -19.5c-3.66699 -5 -5.5 -12.167 -5.5 -21.5s3.33301 -16.666 10 -21.999s14 -8 22 -8c8.66699 0 16.334 3.16699 23.001 9.5s10 16.5 10 30.5
c0 7.33301 -0.333008 14.666 -1 21.999s-1 13.666 -1 18.999c0 20 1.33301 36.5 4 49.5s5.66699 26.167 9 39.5c8.66699 -8 19.667 -19.833 33 -35.5s25.666 -37.834 36.999 -66.501c4.66699 -10.667 10 -18.167 16 -22.5s12 -6.5 18 -6.5
c8.66699 0 16.334 3.33301 23.001 10s10 14.667 10 24c0 14.667 -9.33301 26.334 -28 35.001c-26 11.333 -47.333 24 -64 38s-29.334 25.333 -38.001 34c12 3.33301 25 6.33301 39 9s31.667 4 53 4c6.66699 0 13.834 -0.333008 21.501 -1s16.167 -1 25.5 -1
c10.667 0 18.667 3.33301 24 10s8 14 8 22s-2.66699 15.333 -8 22s-12.666 10 -21.999 10c-10 0 -20 -3.66699 -30 -11c-21.333 -16 -42.5 -27.833 -63.5 -35.5s-37.5 -13.167 -49.5 -16.5c3.33301 11.333 8.5 26.833 15.5 46.5s19.5 41.834 37.5 66.501
c7.33301 10 11 19.667 11 29c0 10 -3.5 17.833 -10.5 23.5s-14.833 8.5 -23.5 8.5c-7.33301 0 -14.333 -2.83301 -21 -8.5s-10 -15.167 -10 -28.5c0 -7.33301 0.5 -14.833 1.5 -22.5s1.5 -14.834 1.5 -21.501c0 -18.667 -1.5 -35.667 -4.5 -51
s-6.16699 -28.666 -9.5 -39.999c-6 6 -16.333 17.333 -31 34s-28.334 39.334 -41.001 68.001c-4.66699 10 -10 17.167 -16 21.5s-12 6.5 -18 6.5c-9.33301 0 -17.333 -3.33301 -24 -10s-10 -14.334 -10 -23.001z" />
    <glyph glyph-name="plus" unicode="+" horiz-adv-x="344" 
d="M172 339h-129l-14 -54h129l-36 -134h53l37 134h129l14 54h-129l36 134h-53z" />
    <glyph glyph-name="comma" unicode="," horiz-adv-x="269" 
d="M234 41c0.666992 4 0.99707 7.66699 0.99707 11v9c0 24.667 -8.83301 46.167 -26.5 64.5s-41.5 27.5 -71.5 27.5c-14.667 0 -27 -2.33301 -37 -7s-18 -10.667 -24 -18s-10.333 -15.5 -13 -24.5s-4 -17.833 -4 -26.5c0 -20 7 -36.333 21 -49s29.333 -19 46 -19
c32 0 52.667 12.667 62 38c0.666992 1.33301 1.33398 3.33301 2.00098 6s2 4 4 4c4.66699 0 7 -4.66699 7 -14s-0.666992 -15.666 -2 -18.999c-2 -11.333 -6.66699 -23.666 -14 -36.999s-17.5 -26.333 -30.5 -39s-28.5 -24.334 -46.5 -35.001s-38.333 -18.667 -61 -24
c-5.33301 -2 -8 -4.33301 -8 -7c0 -3.33301 2 -5 6 -5c2.66699 0 5.33398 0.666992 8.00098 2c28 6 52.667 15 74 27s39.333 25.5 54 40.5s26.334 30.667 35.001 47s14.667 32.166 18 47.499z" />
    <glyph glyph-name="hyphen" unicode="-" horiz-adv-x="280" 
d="M255 333h-180l-14 -53h180z" />
    <glyph glyph-name="period" unicode="." horiz-adv-x="269" 
d="M219 72c0 18.667 -6.33301 35.334 -19 50.001s-32 22 -58 22c-14.667 0 -27.5 -2.5 -38.5 -7.5s-20.167 -11.333 -27.5 -19s-12.833 -16.5 -16.5 -26.5s-5.5 -20 -5.5 -30c0 -18.667 6.33301 -35.334 19 -50.001s32 -22 58 -22c14.667 0 27.5 2.5 38.5 7.5
s20.167 11.333 27.5 19s12.833 16.5 16.5 26.5s5.5 20 5.5 30z" />
    <glyph glyph-name="slash" unicode="/" horiz-adv-x="312" 
d="M426 726l-486 -791h43l480 791h-37z" />
    <glyph glyph-name="zero" unicode="0" horiz-adv-x="591" 
d="M-1 216c0 -31.333 3.83789 -60.498 11.5049 -87.498s19.667 -50.833 36 -71.5s37.166 -36.834 62.499 -48.501s56 -17.5 92 -17.5s70.333 6.83301 103 20.5s62.667 32.334 90 56.001s52.166 51 74.499 82s41.166 63.833 56.499 98.5s27.166 70.167 35.499 106.5
s12.5 71.166 12.5 104.499c0 30.667 -3.83301 59.667 -11.5 87s-19.5 51.166 -35.5 71.499s-36.667 36.333 -62 48s-55.666 17.5 -90.999 17.5c-36.667 0 -71.334 -6.83301 -104.001 -20.5s-62.834 -32.167 -90.501 -55.5s-52.5 -50.5 -74.5 -81.5
s-40.833 -63.833 -56.5 -98.5s-27.667 -70 -36 -106s-12.5 -71 -12.5 -105zM402.005 472.002l-36.5 -138l-39.5 -146l-18 -66.5c-6 -21.667 -13.167 -40.834 -21.5 -57.501s-19 -30 -32 -40s-29.833 -15 -50.5 -15c-24 0 -40.333 5.66699 -49 17s-13 26 -13 44
c0 16.667 2.5 35.167 7.5 55.5l15.5 61.5l37 142l39 145c6 20 12 41.167 18 63.5s13.667 43 23 62s20.833 34.667 34.5 47s31.167 18.5 52.5 18.5c22 0 36.833 -6.16699 44.5 -18.5s11.5 -28.166 11.5 -47.499s-2.5 -40.333 -7.5 -63s-10.167 -44 -15.5 -64z" />
    <glyph glyph-name="one" unicode="1" horiz-adv-x="591" 
d="M182 528c4.66699 0 8.66699 0.333008 12 1c28.667 5.33301 55 13 79 23s45.667 20.667 65 32l-152 -568h-54l-4 -16h258l4 16h-53l175 656h-85l-53.5 -35.5c-19 -13 -38.667 -25.5 -59 -37.5s-41 -23 -62 -33s-41.5 -17.333 -61.5 -22
c-12.667 -3.33301 -19 -7.33301 -19 -12c0 -2.66699 3.33301 -4 10 -4z" />
    <glyph glyph-name="two" unicode="2" horiz-adv-x="591" 
d="M317 520c0 14.667 -2.82715 26.8359 -8.49414 36.5029s-13.167 17.5 -22.5 23.5s-19.833 10.167 -31.5 12.5s-23.834 3.5 -36.501 3.5c5.33301 6.66699 12.5 13.667 21.5 21s19.5 14 31.5 20s25.333 11 40 15s30 6 46 6c22.667 0 41.167 -8.66699 55.5 -26
s21.5 -48 21.5 -92c0 -35.333 -3.66699 -66.333 -11 -93s-17.333 -50.667 -30 -72s-27 -40.166 -43 -56.499s-32.333 -31.5 -49 -45.5c-17.333 -14.667 -39.5 -31.5 -66.5 -50.5s-54 -39.167 -81 -60.5s-51.333 -43.5 -73 -66.5s-35.834 -45.833 -42.501 -68.5l-8 -27h383
l94 183c2 4.66699 3.83301 9.16699 5.5 13.5s2.5 8.16602 2.5 11.499s-1.33301 5 -4 5c-4 0 -9 -5.66699 -15 -17c-4 -7.33301 -9 -15.5 -15 -24.5s-13.333 -17.5 -22 -25.5s-19.334 -14.833 -32.001 -20.5s-27.334 -8.5 -44.001 -8.5h-235c12 10 25.333 19 40 27
s29.834 15.5 45.501 22.5s31.167 13.5 46.5 19.5s29.666 12.667 42.999 20c33.333 13.333 65.166 29.666 95.499 48.999s57.166 41.833 80.499 67.5s42 54.5 56 86.5s21 67 21 105c0 26.667 -4.83301 50.5 -14.5 71.5s-23 38.667 -40 53s-37.167 25.166 -60.5 32.499
s-48.333 11 -75 11c-34 0 -65.833 -4.83301 -95.5 -14.5s-55.5 -22.5 -77.5 -38.5s-39.333 -34.167 -52 -54.5s-19 -40.833 -19 -61.5c0 -14 2.66699 -26.333 8 -37s12 -19.334 20 -26.001s17.167 -11.667 27.5 -15s20.5 -5 30.5 -5c23.333 0 44 7.5 62 22.5
s27 37.5 27 67.5z" />
    <glyph glyph-name="three" unicode="3" horiz-adv-x="591" 
d="M183 553c0 -24.667 6.66406 -42.835 19.9971 -54.502s31.666 -17.5 54.999 -17.5c21.333 0 39.833 7 55.5 21s23.5 35 23.5 63c0 18 -5 33.167 -15 45.5s-22.667 18.5 -38 18.5c-5.33301 0 -8 1 -8 3s2.66699 4.83301 8 8.5s12.333 7.16699 21 10.5
s18.834 6.16602 30.501 8.49902s23.834 3.5 36.501 3.5c24 0 40.333 -6.5 49 -19.5s13 -32.833 13 -59.5c0 -16 -2.33301 -35.833 -7 -59.5s-12.667 -46.5 -24 -68.5s-26.5 -40.667 -45.5 -56s-42.833 -23 -71.5 -23h-88c-10 0 -15 -3.66699 -15 -11
c0 -5.33301 4.33301 -8 13 -8h85c24.667 0 43.334 -7.66699 56.001 -23s19 -37.333 19 -66c0 -20.667 -2.5 -45.834 -7.5 -75.501s-13.333 -58 -25 -85s-27 -50.167 -46 -69.5s-42.167 -29 -69.5 -29c-20.667 0 -38.167 1.83301 -52.5 5.5s-25.833 8.16699 -34.5 13.5
s-15 10.833 -19 16.5s-6 10.5 -6 14.5s2 6 6 6h2c6 -2 13 -3 21 -3c10.667 0 21.167 1.33301 31.5 4s19.5 6.83398 27.5 12.501s14.5 13 19.5 22s7.5 19.833 7.5 32.5c0 24.667 -7.66699 43.167 -23 55.5s-32.666 18.5 -51.999 18.5c-14.667 0 -27.5 -2.83301 -38.5 -8.5
s-20.333 -13 -28 -22s-13.334 -19.167 -17.001 -30.5s-5.5 -22.666 -5.5 -33.999c0 -16.667 3.5 -32.334 10.5 -47.001s17.167 -27.5 30.5 -38.5s29.833 -19.833 49.5 -26.5s42.167 -10 67.5 -10c62.667 0 113.334 8.5 152.001 25.5s68.334 37.333 89.001 61
s34.5 48 41.5 73s10.5 45.167 10.5 60.5c0 24 -3.5 44.833 -10.5 62.5s-16.5 32.667 -28.5 45s-25.667 22.333 -41 30s-31.333 13.5 -48 17.5c32 2.66699 60.667 9.33398 86 20.001s46.666 24 63.999 40s30.5 34.167 39.5 54.5s13.5 41.5 13.5 63.5
c0 20 -3.5 38.333 -10.5 55s-17.833 31.167 -32.5 43.5s-33 22 -55 29s-48.333 10.5 -79 10.5c-34 0 -64.333 -3.83301 -91 -11.5s-49 -17.667 -67 -30s-31.667 -26.166 -41 -41.499s-14 -30.666 -14 -45.999z" />
    <glyph glyph-name="four" unicode="4" horiz-adv-x="591" 
d="M561 672h-98.001l-92 -99l-109 -122l-109 -127.5c-35.333 -42.333 -65.666 -80.833 -90.999 -115.5l-6 -22h225l-46 -169h-53l-5 -18h258l5 18h-54l45 169h93l16 60h-93zM296.999 246h-180l62.5 77.5l70 82l68.5 76.5l59 62z" />
    <glyph glyph-name="five" unicode="5" horiz-adv-x="591" 
d="M503 673l-239.999 -0.00292969c-10.667 0 -18.167 -2.5 -22.5 -7.5s-7.16602 -11.5 -8.49902 -19.5c-2.66699 -12.667 -6.83398 -31.5 -12.501 -56.5s-12 -51 -19 -78s-14.5 -52.833 -22.5 -77.5s-16 -43 -24 -55c-2.66699 -3.33301 -4 -6.66602 -4 -9.99902
s1.66699 -5 5 -5s7.66602 2 12.999 6c12.667 10 27.667 18 45 24s35 9 53 9c13.333 0 26.166 -2 38.499 -6s23.166 -10.167 32.499 -18.5s16.833 -19.5 22.5 -33.5s8.5 -31 8.5 -51c0 -26.667 -3.33301 -56 -10 -88s-17.167 -62 -31.5 -90s-32.666 -51.5 -54.999 -70.5
s-49.166 -28.5 -80.499 -28.5c-26 0 -46 4.16699 -60 12.5s-23.667 16.833 -29 25.5c7.33301 -2.66699 14.333 -4 21 -4c23.333 0 42.666 5.33301 57.999 16s23 29.334 23 56.001c0 21.333 -6.66699 37 -20 47s-28.333 15 -45 15c-9.33301 0 -18.5 -1.66699 -27.5 -5
s-17.167 -8.5 -24.5 -15.5s-13.333 -15.833 -18 -26.5s-7 -23 -7 -37c0 -15.333 3.33301 -29.333 10 -42s15.5 -23.667 26.5 -33s24 -16.666 39 -21.999s31.167 -8 48.5 -8c50 0 95.833 6.16699 137.5 18.5s77.5 30 107.5 53s53.167 50.667 69.5 83
s24.5 68.166 24.5 107.499c0 30.667 -6.33301 56.834 -19 78.501s-29.334 39.334 -50.001 53.001s-43.667 23.667 -69 30s-51 9.5 -77 9.5s-50.667 -2.83301 -74 -8.5s-42.666 -14.167 -57.999 -25.5c9.33301 19.333 17.5 41.166 24.5 65.499l21.5 78.5h234
c19.333 0 36.333 6.5 51 19.5s27 28.167 37 45.5s17.5 34.333 22.5 51s7.5 28.667 7.5 36c0 4.66699 -1 7 -3 7c-3.33301 0 -7.66602 -3.66699 -12.999 -11c-3.33301 -5.33301 -10.833 -9 -22.5 -11s-23.167 -3 -34.5 -3z" />
    <glyph glyph-name="six" unicode="6" horiz-adv-x="591" 
d="M183 82c0 10.667 2.50098 26.5 7.50098 47.5s11 43.833 18 68.5l22 74l19.5 63c2 6 5.83301 12.5 11.5 19.5s12.5 13.667 20.5 20s16.667 11.5 26 15.5s18.666 6 27.999 6c17.333 0 29.166 -6 35.499 -18s9.5 -26.333 9.5 -43c0 -5.33301 -0.5 -11.333 -1.5 -18
s-2.66699 -16 -5 -28s-5.83301 -27.333 -10.5 -46s-11 -42.667 -19 -72c-5.33301 -20.667 -11.166 -40.5 -17.499 -59.5s-13.833 -36 -22.5 -51s-18.834 -27 -30.501 -36s-25.167 -13.5 -40.5 -13.5c-19.333 0 -32.666 7 -39.999 21s-11 30.667 -11 50zM588.001 583
c0 28 -10.8291 51.833 -32.4961 71.5s-54.5 29.5 -98.5 29.5c-36 0 -71.167 -6.33301 -105.5 -19s-66.833 -30.167 -97.5 -52.5s-58.834 -48.833 -84.501 -79.5s-47.834 -63.5 -66.501 -98.5s-33.167 -71.833 -43.5 -110.5s-15.5 -77.334 -15.5 -116.001
c0 -34.667 5 -65.5 15 -92.5s23.667 -49.833 41 -68.5s37.5 -32.834 60.5 -42.501s47.5 -14.5 73.5 -14.5c40 0 78.667 5.66699 116 17s70.333 28.333 99 51s51.667 50.334 69 83.001s26 70.667 26 114c0 28.667 -4.83301 53.334 -14.5 74.001s-22.667 37.667 -39 51
s-35.333 23.333 -57 30s-44.5 10 -68.5 10c-26 0 -47 -4.16699 -63 -12.5s-29.333 -17.5 -40 -27.5l34 120c8 27.333 18.167 51.333 30.5 72s25.666 38 39.999 52s29.333 24.5 45 31.5s30.834 10.5 45.501 10.5c25.333 0 43.666 -3.33301 54.999 -10s17 -12.334 17 -17.001
c0 -2.66699 -2 -4 -6 -4h-4c-24.667 0 -43.334 -7 -56.001 -21s-19 -32 -19 -54c0 -21.333 6.5 -38.166 19.5 -50.499s29.5 -18.5 49.5 -18.5c28 0 47.5 8.66699 58.5 26s16.5 39.333 16.5 66z" />
    <glyph glyph-name="seven" unicode="7" horiz-adv-x="591" 
d="M76 468h13.999c8.66699 16 16.334 29.167 23.001 39.5s13.167 18.5 19.5 24.5s13.333 10.167 21 12.5s17.167 3.5 28.5 3.5h319l-129 -125.5c-42.667 -43 -83.167 -87.333 -121.5 -133s-73.333 -92.5 -105 -140.5s-57.834 -97.667 -78.501 -149h175
c8.66699 32 19.334 66.167 32.001 102.5s27.5 73.5 44.5 111.5s36.5 76.667 58.5 116s47 78 75 116l157 211l-8 16h-426z" />
    <glyph glyph-name="eight" unicode="8" horiz-adv-x="591" 
d="M344 363c0 2 2.66895 3.00098 8.00195 3.00098c66.667 5.33301 118.167 23 154.5 53s54.5 68 54.5 114c0 20.667 -3.33301 39.834 -10 57.501s-17 33 -31 46s-31.667 23.333 -53 31s-46.333 11.5 -75 11.5c-40.667 0 -75.834 -5.5 -105.501 -16.5
s-54.167 -25.333 -73.5 -43s-33.666 -37.167 -42.999 -58.5s-14 -42 -14 -62c0 -26.667 5.33301 -48.5 16 -65.5s23.167 -30.333 37.5 -40s28.833 -16.5 43.5 -20.5s26 -6.33301 34 -7c6 0 9 -0.666992 9 -2s-3.33301 -2 -10 -2c-27.333 -1.33301 -55 -6.83301 -83 -16.5
s-53.5 -23.5 -76.5 -41.5s-41.667 -40 -56 -66s-21.5 -55.333 -21.5 -88c0 -50.667 15.5 -90 46.5 -118s75.167 -42 132.5 -42c40 0 76.167 5 108.5 15s60 24.167 83 42.5s40.667 40.166 53 65.499s18.5 53.666 18.5 84.999c0 32.667 -6 59.5 -18 80.5
s-25.833 37.5 -41.5 49.5s-31.334 20.5 -47.001 25.5s-26.834 7.83301 -33.501 8.5c-2.66699 0 -4.5 0.166992 -5.5 0.5zM303.002 505.001c7.33301 28.667 14.168 53.333 20.501 74s13 37.334 20 50.001s14.833 22 23.5 28s19.334 9 32.001 9c13.333 0 22.5 -3.5 27.5 -10.5
s7.5 -17.167 7.5 -30.5c0 -14.667 -2.33301 -32 -7 -52l-16 -68c-6 -24 -11.833 -44.333 -17.5 -61s-11.834 -30.167 -18.501 -40.5s-14.167 -17.833 -22.5 -22.5s-18.5 -7 -30.5 -7c-13.333 0 -22.833 3 -28.5 9s-8.5 15.333 -8.5 28c0 11.333 1.66699 24.666 5 39.999
s7.66602 33.333 12.999 54zM210.004 176c8.66699 32 16.666 59.1689 23.999 81.502s15 40.666 23 54.999s16.667 24.833 26 31.5s20.333 10 33 10c24.667 0 37 -15 37 -45c0 -14 -2.16699 -31.833 -6.5 -53.5s-10.5 -47.5 -18.5 -77.5l-22.5 -81
c-6.33301 -22 -13.333 -39.833 -21 -53.5s-16.167 -23.5 -25.5 -29.5s-21.333 -9 -36 -9c-26.667 0 -40 13.667 -40 41c0 13.333 2.33301 30.666 7 51.999s11.334 47.333 20.001 78z" />
    <glyph glyph-name="nine" unicode="9" horiz-adv-x="591" 
d="M449 604c0 -8 -0.832031 -16.999 -2.49902 -26.999s-4.83398 -24.167 -9.50098 -42.5s-11.334 -42.666 -20.001 -72.999l-34 -117.5c-9.33301 -16.667 -22.5 -31.667 -39.5 -45s-34.167 -20 -51.5 -20s-29.166 5.5 -35.499 16.5s-9.5 24.833 -9.5 41.5
c0 5.33301 0.333008 11.5 1 18.5s2.33398 16.5 5.00098 28.5s6.66699 27.667 12 47l21 75l17.5 60c5.66699 19.333 12.667 36.666 21 51.999s18.166 27.666 29.499 36.999s25.333 14 42 14c20 0 33.833 -6.33301 41.5 -19s11.5 -28 11.5 -46zM39.001 93.001
c0 -14.667 3.00391 -28.333 9.00391 -41s14.5 -23.667 25.5 -33s24 -16.666 39 -21.999s31.5 -8 49.5 -8c44.667 0 85.834 7 123.501 21s71.834 33.167 102.501 57.5s57.834 52.5 81.501 84.5s43.334 66 59.001 102s27.5 72.833 35.5 110.5s12 74.167 12 109.5
c0 34 -4.66699 64 -14 90s-22.333 47.833 -39 65.5s-36.334 31 -59.001 40s-47.334 13.5 -74.001 13.5c-35.333 0 -70.5 -6 -105.5 -18s-66.833 -30 -95.5 -54s-51.834 -53.5 -69.501 -88.5s-26.5 -75.5 -26.5 -121.5c0 -25.333 4.16699 -47.333 12.5 -66
s19.833 -34.334 34.5 -47.001s32.167 -22 52.5 -28s42.166 -9 65.499 -9c27.333 0 49.666 4.33301 66.999 13s32.666 20 45.999 34l-38 -125c-16.667 -54 -40.834 -95.167 -72.501 -123.5s-63.834 -42.5 -96.501 -42.5c-17.333 0 -31.5 2.5 -42.5 7.5
s-16.5 9.16699 -16.5 12.5c0 2.66699 3 4 9 4c12 0 22.5 2.16699 31.5 6.5s16.333 9.83301 22 16.5s10 14 13 22s4.5 16 4.5 24c0 25.333 -6.33301 44.333 -19 57s-29.667 19 -51 19c-23.333 0 -41.833 -8 -55.5 -24s-20.5 -35.667 -20.5 -59z" />
    <glyph glyph-name="colon" unicode=":" horiz-adv-x="314" 
d="M219 72c0 18.667 -6.33301 35.334 -19 50.001s-32 22 -58 22c-14.667 0 -27.5 -2.5 -38.5 -7.5s-20.167 -11.333 -27.5 -19s-12.833 -16.5 -16.5 -26.5s-5.5 -20 -5.5 -30c0 -18.667 6.33301 -35.334 19 -50.001s32 -22 58 -22c14.667 0 27.5 2.5 38.5 7.5
s20.167 11.333 27.5 19s12.833 16.5 16.5 26.5s5.5 20 5.5 30zM277 361c0 18.667 -6.33301 35.334 -19 50.001s-32 22 -58 22c-14.667 0 -27.5 -2.5 -38.5 -7.5s-20.167 -11.333 -27.5 -19s-12.833 -16.5 -16.5 -26.5s-5.5 -20 -5.5 -30
c0 -18.667 6.33301 -35.334 19 -50.001s32 -22 58 -22c14.667 0 27.5 2.5 38.5 7.5s20.167 11.333 27.5 19s12.833 16.5 16.5 26.5s5.5 20 5.5 30z" />
    <glyph glyph-name="semicolon" unicode=";" horiz-adv-x="284" 
d="M219 41c0.666992 4 0.99707 7.66699 0.99707 11v9c0 24.667 -8.83301 46.167 -26.5 64.5s-41.5 27.5 -71.5 27.5c-14.667 0 -27 -2.33301 -37 -7s-18 -10.667 -24 -18s-10.333 -15.5 -13 -24.5s-4 -17.833 -4 -26.5c0 -20 7 -36.333 21 -49s29.333 -19 46 -19
c32 0 52.667 12.667 62 38c0.666992 1.33301 1.33398 3.33301 2.00098 6s2 4 4 4c4.66699 0 7 -4.66699 7 -14s-0.666992 -15.666 -2 -18.999c-2 -11.333 -6.66699 -23.666 -14 -36.999s-17.5 -26.333 -30.5 -39s-28.5 -24.334 -46.5 -35.001s-38.333 -18.667 -61 -24
c-5.33301 -2 -8 -4.33301 -8 -7c0 -3.33301 2 -5 6 -5c2.66699 0 5.33398 0.666992 8.00098 2c28 6 52.667 15 74 27s39.333 25.5 54 40.5s26.334 30.667 35.001 47s14.667 32.166 18 47.499zM276.997 361c0 18.667 -6.33301 35.334 -19 50.001s-32 22 -58 22
c-14.667 0 -27.5 -2.5 -38.5 -7.5s-20.167 -11.333 -27.5 -19s-12.833 -16.5 -16.5 -26.5s-5.5 -20 -5.5 -30c0 -18.667 6.33301 -35.334 19 -50.001s32 -22 58 -22c14.667 0 27.5 2.5 38.5 7.5s20.167 11.333 27.5 19s12.833 16.5 16.5 26.5s5.5 20 5.5 30z" />
    <glyph glyph-name="less" unicode="&#x3c;" 
d="M402 473l-306 -161l235 -178l15 48l-173 126l214 111z" />
    <glyph glyph-name="equal" unicode="=" horiz-adv-x="323" 
d="M297 261h-246l-16 -53h247zM332 396h-246l-14 -54h246z" />
    <glyph glyph-name="greater" unicode="&#x3e;" 
d="M94 206l-16 -55l308 161l-220 161l-13 -49l151 -110z" />
    <glyph glyph-name="question" unicode="?" horiz-adv-x="398" 
d="M465 529c0 46 -12.8262 80.502 -38.4932 103.502s-58.834 34.5 -99.501 34.5c-28 0 -52 -3.33301 -72 -10s-36.333 -15 -49 -25s-22 -21.167 -28 -33.5s-9 -23.833 -9 -34.5c0 -20.667 5.66699 -36.834 17 -48.501s26.666 -17.5 45.999 -17.5
c23.333 0 40.833 6.66699 52.5 20s17.5 28.333 17.5 45c0 15.333 -4.5 29.5 -13.5 42.5s-22.5 20.167 -40.5 21.5c7.33301 5.33301 17.5 10.333 30.5 15s29.167 7 48.5 7c17.333 0 32.166 -5.66699 44.499 -17s18.5 -29 18.5 -53c0 -16 -1.83301 -29.667 -5.5 -41
s-8.83398 -21.166 -15.501 -29.499s-14.667 -16 -24 -23s-20 -14.167 -32 -21.5l-30.5 -18.5c-10.333 -6.33301 -20 -13.833 -29 -22.5s-17.167 -18.834 -24.5 -30.501s-13 -25.5 -17 -41.5l-41 -157h16l13 47c3.33301 12.667 10.666 24.167 21.999 34.5
s24.833 20.166 40.5 29.499s32.5 18.5 50.5 27.5s35.667 19.167 53 30.5c24 16 42.667 31.5 56 46.5s23.166 29.5 29.499 43.5s10.166 27.333 11.499 40s2 24.667 2 36zM245.007 72.002c0 18.667 -6.33301 35.334 -19 50.001s-32 22 -58 22c-14.667 0 -27.5 -2.5 -38.5 -7.5
s-20.167 -11.333 -27.5 -19s-12.833 -16.5 -16.5 -26.5s-5.5 -20 -5.5 -30c0 -18.667 6.33301 -35.334 19 -50.001s32 -22 58 -22c14.667 0 27.5 2.5 38.5 7.5s20.167 11.333 27.5 19s12.833 16.5 16.5 26.5s5.5 20 5.5 30z" />
    <glyph glyph-name="at" unicode="@" horiz-adv-x="737" 
d="M543 47c13.333 5.33301 22.6641 10.002 27.9971 14.002s8 9 8 15c0 9.33301 -4.33301 14 -13 14c-3.33301 0 -8.16602 -1.5 -14.499 -4.5s-14.166 -6.16699 -23.499 -9.5c-23.333 -9.33301 -48.333 -17.833 -75 -25.5s-57 -11.5 -91 -11.5s-65.5 5.5 -94.5 16.5
s-54 26.333 -75 46s-37.333 43 -49 70s-17.5 56.833 -17.5 89.5c0 48.667 10.667 94.5 32 137.5s48.833 80.667 82.5 113s71.334 57.833 113.001 76.5s82.834 28 123.501 28c31.333 0 61.666 -4.5 90.999 -13.5s55.333 -22.5 78 -40.5s40.834 -40.333 54.501 -67
s20.5 -57.667 20.5 -93s-4.66699 -66.5 -14 -93.5s-22.5 -49.833 -39.5 -68.5s-37.333 -32.834 -61 -42.501s-49.834 -14.5 -78.501 -14.5c-10 0 -18 1.83301 -24 5.5s-9 9.83398 -9 18.501c0 7.33301 3 17.666 9 30.999l131 264h-86l-16 -30
c-5.33301 10 -13.333 19.333 -24 28s-27.667 13 -51 13c-42 0 -79.167 -8.66699 -111.5 -26s-59.166 -38.833 -80.499 -64.5s-37.5 -53.334 -48.5 -83.001s-16.5 -57.167 -16.5 -82.5c0 -30 7.83301 -54.833 23.5 -74.5s38.5 -29.5 68.5 -29.5c2 0 7 0.666992 15 2
s17.5 3.83301 28.5 7.5s22.5 9.16699 34.5 16.5s23 17 33 29c0 -10 3 -18.667 9 -26s13.667 -13.166 23 -17.499s20.166 -7.66602 32.499 -9.99902s24.5 -3.5 36.5 -3.5c81.333 0 142.833 22.667 184.5 68s62.5 106.666 62.5 183.999c0 38.667 -7.33301 73 -22 103
s-34.5 55.167 -59.5 75.5s-54.167 35.833 -87.5 46.5s-68.666 16 -105.999 16c-44 0 -88.667 -9.5 -134 -28.5s-86.333 -45.5 -123 -79.5s-66.667 -74.5 -90 -121.5s-35 -98.833 -35 -155.5c0 -38.667 6.83301 -73.5 20.5 -104.5s32.334 -57.333 56.001 -79
s51.5 -38.334 83.5 -50.001s66.333 -17.5 103 -17.5c37.333 0 71.666 4 102.999 12s58.666 17 81.999 27zM516.998 447.002c0 -2 -0.666992 -5.00098 -2 -9.00098l-93 -175c-5.33301 -10 -12 -19.667 -20 -29s-16.833 -17.833 -26.5 -25.5s-20 -13.667 -31 -18
s-22.5 -6.5 -34.5 -6.5c-9.33301 0 -16 3 -20 9s-6 13.667 -6 23c0 28 6 58.167 18 90.5s27 62.333 45 90s37.667 50.5 59 68.5s41 27 59 27c14 0 26.167 -5.16699 36.5 -15.5s15.5 -20.166 15.5 -29.499z" />
    <glyph glyph-name="A" unicode="A" horiz-adv-x="675" 
d="M537 681l-69.999 -0.00195312l-367 -613c-4.66699 -7.33301 -10.334 -14.166 -17.001 -20.499s-14.334 -12.166 -23.001 -17.499c-5.33301 -3.33301 -12 -6.16602 -20 -8.49902s-14.667 -3.83301 -20 -4.5s-8.33301 -1 -9 -1l-5 -16h151l4 16
c-0.666992 0 -3.66699 0.333008 -9 1s-11.666 2.16699 -18.999 4.5s-12.333 6.16602 -15 11.499s-3.5 11.333 -2.5 18s3.16699 12.667 6.5 18l81 140h200l13 -193h-90l-4 -16h339l5 16h-87zM383.001 510.998l19 -286h-190z" />
    <glyph glyph-name="B" unicode="B" horiz-adv-x="591" 
d="M649 532c0 46 -16.666 80.833 -49.999 104.5s-84 35.5 -152 35.5h-266l-5 -16h54l-171 -640h-54l-4 -16h312c54 0 98.667 6.16699 134 18.5s63.166 28.5 83.499 48.5s34.5 42.5 42.5 67.5s12 50.167 12 75.5c0 45.333 -13.833 81.333 -41.5 108s-65.5 43.667 -113.5 51
c76 5.33301 131.5 22.5 166.5 51.5s52.5 66.167 52.5 111.5zM220.001 16l90.999 343h70c21.333 0 36.333 -6.33301 45 -19s13 -29 13 -49c0 -12 -1.66699 -26.667 -5 -44s-7.16602 -34.333 -11.499 -51s-8.5 -31.667 -12.5 -45l-8 -27c-11.333 -34 -24.5 -60.5 -39.5 -79.5
s-39.167 -28.5 -72.5 -28.5h-70zM316 375l74.998 280.998h51c26.667 0 45.167 -6.66699 55.5 -20s15.5 -29 15.5 -47c0 -10 -1.16699 -21.167 -3.5 -33.5s-5.16602 -24.166 -8.49902 -35.499s-6.66602 -21.666 -9.99902 -30.999s-5.66602 -16.333 -6.99902 -21
c-4 -11.333 -9.16699 -22.5 -15.5 -33.5s-14 -21 -23 -30s-19.333 -16.167 -31 -21.5s-24.834 -8 -39.501 -8h-59z" />
    <glyph glyph-name="C" unicode="C" horiz-adv-x="648" 
d="M653 633c-15.333 12.667 -34.8291 24.332 -58.4961 34.999s-53.834 16 -90.501 16c-68.667 0 -130 -13.833 -184 -41.5s-99.833 -63 -137.5 -106s-66.334 -90.833 -86.001 -143.5s-29.5 -104 -29.5 -154c0 -34.667 5 -67.5 15 -98.5s25.167 -58.167 45.5 -81.5
s46.333 -41.833 78 -55.5s69.167 -20.5 112.5 -20.5c24 0 46.333 2.83301 67 8.5s39 12.167 55 19.5s29.5 15 40.5 23s18.833 14 23.5 18l29 -52c4 -6 8 -9 12 -9c5.33301 0 9 4 11 12l50 199c0.666992 2 1 4.33301 1 7c0 6 -2.33301 9 -7 9s-9 -3 -13 -9
c-4 -6.66699 -10.333 -16.5 -19 -29.5s-19.334 -27.167 -32.001 -42.5s-26.834 -31 -42.501 -47s-32.5 -30.667 -50.5 -44s-37 -24.166 -57 -32.499s-40.333 -12.5 -61 -12.5c-38 0 -65.333 7.33301 -82 22s-25 38 -25 70c0 16 1.83301 34.333 5.5 55s9.16699 44 16.5 70
l29 108.5c10 38.333 20.667 76.5 32 114.5s22.5 71.167 33.5 99.5s24 51.833 39 70.5s33.167 32.667 54.5 42s48.333 14 81 14c22.667 0 42.834 -5 60.501 -15s32.667 -23.333 45 -40s21.666 -35.667 27.999 -57s9.5 -43.333 9.5 -66c0 -10.667 3 -16 9 -16
c4.66699 0 8 3.66699 10 11l46 172c0.666992 2.66699 1 6 1 10c0 6 -2 9 -6 9s-9.66699 -2.33301 -17 -7z" />
    <glyph glyph-name="D" unicode="D" horiz-adv-x="634" 
d="M474 672h-276.998l-5 -16h54l-169 -640h-53l-7 -16h291c60 0 112.833 12.667 158.5 38s83.667 58 114 98s53.166 84.5 68.499 133.5s23 97.167 23 144.5c0 34.667 -4 67.5 -12 98.5s-20.333 58.333 -37 82s-37.334 42.5 -62.001 56.5s-53.667 21 -87 21zM237.002 16
l171.002 640.004h50c11.333 0 22.166 -2 32.499 -6s19.5 -10.333 27.5 -19s14.333 -20.334 19 -35.001s7 -32.334 7 -53.001c0 -14 -2 -31.833 -6 -53.5s-9.16699 -45.834 -15.5 -72.501s-13.833 -55.334 -22.5 -86.001l-26 -94c-12 -42.667 -25.167 -78.167 -39.5 -106.5
s-29.5 -51 -45.5 -68s-32.333 -29 -49 -36s-33.334 -10.5 -50.001 -10.5h-53z" />
    <glyph glyph-name="E" unicode="E" horiz-adv-x="604" 
d="M608 482c4.66699 0 8.33301 5.00195 11 15.002l34 126c2 7.33301 3.5 13.166 4.5 17.499s1.5 8.5 1.5 12.5c0 12.667 -8.33301 19 -25 19h-445l-4 -16h55l-171 -640h-54l-4 -16h475c9.33301 0 17 3 23 9s10.333 13.667 13 23l37 141c2.66699 10.667 4 16.667 4 18
c0 7.33301 -2.33301 11 -7 11c-6.66699 0 -12.334 -6.66699 -17.001 -20c-7.33301 -20.667 -16.666 -41 -27.999 -61s-24.666 -37.667 -39.999 -53s-32.833 -27.833 -52.5 -37.5s-41.5 -14.5 -65.5 -14.5h-123l88 330h72c18 0 30.333 -7.66699 37 -23s10 -34.333 10 -57
c0 -5.33301 -0.166992 -10.833 -0.5 -16.5s-0.5 -11.167 -0.5 -16.5c0 -9.33301 3 -14 9 -14c4 0 7 3.66699 9 11l54 217c0.666992 3.33301 1 5.33301 1 6v2c0 6 -2.33301 9 -7 9s-8.33398 -3 -11.001 -9c-12 -24.667 -25.667 -46.334 -41 -65.001s-33.666 -28 -54.999 -28
h-72l78 294h93c20.667 0 38 -4.66699 52 -14s25.167 -20.833 33.5 -34.5s14.166 -28.5 17.499 -44.5s5 -31 5 -45c0 -5.33301 -0.166992 -10 -0.5 -14s-0.5 -7.33301 -0.5 -10c0 -8 2.33301 -12 7 -12z" />
    <glyph glyph-name="F" unicode="F" horiz-adv-x="567" 
d="M651 653c0 12.667 -8.33594 19.001 -25.0029 19.001h-445l-5 -16h55l-171 -640h-54l-4 -16h269l4 16h-53l88 330h72c18 0 30.333 -7.66699 37 -23s10 -34.333 10 -57c0 -5.33301 -0.166992 -10.666 -0.5 -15.999s-0.5 -11 -0.5 -17c0 -9.33301 2.66699 -14 8 -14
c4.66699 0 8 3.66699 10 11l52 210c2 8 3 13 3 15c0 6 -2.33301 9 -7 9c-5.33301 0 -9 -3 -11 -9c-12 -24.667 -25.667 -46.334 -41 -65.001s-33.666 -28 -54.999 -28h-72l78 294h95c20.667 0 37.834 -4.66699 51.501 -14s24.5 -20.833 32.5 -34.5s13.667 -28.5 17 -44.5
s5 -31 5 -45c0 -4.66699 -0.166992 -8.83398 -0.5 -12.501s-0.5 -7.5 -0.5 -11.5c0 -8 2.33301 -12 7 -12s8.33398 5 11.001 15l36 131c2 8 3.16699 13.667 3.5 17s0.5 6 0.5 8z" />
    <glyph glyph-name="G" unicode="G" horiz-adv-x="662" 
d="M705 667c-3.33301 0 -8.33203 -2.33496 -14.999 -7.00195l-43 -28c-14.667 14 -34.167 26 -58.5 36s-57.833 15 -100.5 15c-46 0 -88.667 -6.33301 -128 -19s-75 -29.667 -107 -51s-60.333 -46.5 -85 -75.5s-45.334 -59.667 -62.001 -92s-29.334 -65.833 -38.001 -100.5
s-13 -68.667 -13 -102c0 -35.333 4.83301 -68.666 14.5 -99.999s24.834 -58.666 45.501 -81.999s46.5 -42 77.5 -56s68.167 -21 111.5 -21c42 0 79.333 4.33301 112 13s61.5 19.5 86.5 32.5s46.5 26.833 64.5 41.5s33.667 28 47 40l31 116h54l4 17h-269l-4 -17h54l-24 -93
c-23.333 -88 -73.333 -132 -150 -132c-30 0 -51.667 9.5 -65 28.5s-20 45.833 -20 80.5c0 10.667 1.33301 24.667 4 42s6.33398 36.333 11.001 57l15 64.5c5.33301 22.333 10.833 44.166 16.5 65.499l16 59.5l12.5 46.5c19.333 70.667 43.666 124.834 72.999 162.501
s69 56.5 119 56.5c48 0 83.5 -11.167 106.5 -33.5s39.5 -58.833 49.5 -109.5c2.66699 -13.333 6 -20 10 -20s7.66699 5.33301 11 16l36 134l2 6c0.666992 2 1 3.66699 1 5c0 2.66699 -1 4 -3 4z" />
    <glyph glyph-name="H" unicode="H" horiz-adv-x="697" 
d="M443 672h-269l-4 -16h54l-171 -640h-54l-4 -16h268l5 16h-54l89 333h188l-89 -333h-54l-4 -16h273l6 16h-58l169 640h54l4 16h-269l-5 -16h55l-77 -290h-188l77 290h54z" />
    <glyph glyph-name="I" unicode="I" horiz-adv-x="404" 
d="M473 656l4 16h-268l-5 -16h54l-171 -640h-54l-4 -16h273l4 16h-58l171 640h54z" />
    <glyph glyph-name="J" unicode="J" horiz-adv-x="435" 
d="M557 672l-269 0.000976562l-4 -16h54l-168 -628c-8.66699 -31.333 -20.5 -57.166 -35.5 -77.499s-33.833 -30.5 -56.5 -30.5c-11.333 0 -20.5 1.16699 -27.5 3.5s-13.167 5.5 -18.5 9.5h8c23.333 0 40.833 7.16699 52.5 21.5s17.5 30.166 17.5 47.499
c0 16.667 -5.33301 31.667 -16 45s-26.667 20 -48 20c-22.667 0 -39.667 -7.5 -51 -22.5s-17 -32.167 -17 -51.5c0 -11.333 2 -22.333 6 -33s10 -20.334 18 -29.001s18.333 -15.667 31 -21s27.667 -8 45 -8c36 0 69.167 6.16699 99.5 18.5s57.5 29 81.5 50
s44.5 45.667 61.5 74s29.833 58.5 38.5 90.5l140 521h54z" />
    <glyph glyph-name="K" unicode="K" horiz-adv-x="675" 
d="M437 656l4 16h-269l-4 -16h54l-171 -640h-54l-5 -16h269l5 16h-54l171 640h54zM659 656l-342 -293l88 -347h-53l-5 -16h284l4 16h-53l-129 438l236 202h54l4 16h-137l-5 -16h54z" />
    <glyph glyph-name="L" unicode="L" horiz-adv-x="551" 
d="M-8 0h475.999c9.33301 0 17 3 23 9s10.333 13.667 13 23l37 141c2.66699 10.667 4 16.667 4 18c0 7.33301 -2.33301 11 -7 11c-6.66699 0 -12.334 -6.66699 -17.001 -20c-7.33301 -20.667 -16.666 -41 -27.999 -61s-24.666 -37.667 -39.999 -53
s-32.833 -27.833 -52.5 -37.5s-41.5 -14.5 -65.5 -14.5h-123l172 640h54l3 16h-269l-3 -16h54l-172 -640h-54z" />
    <glyph glyph-name="M" unicode="M" horiz-adv-x="844" 
d="M-3 16l-4.99902 -16h125l5 16c-14.667 0 -25.334 3.5 -32.001 10.5s-10 15.833 -10 26.5c0 3.33301 0.666992 8.33301 2 15l152 571l52 -639h29l400 643l-168 -627h-53l-5 -16h269l4 16h-53l171 640h53l5 16h-224l-284 -450l-43 450h-215l-4 -16h54l-157 -588
c-5.33301 -18 -14 -31.167 -26 -39.5s-26 -12.5 -42 -12.5z" />
    <glyph glyph-name="N" unicode="N" horiz-adv-x="606" 
d="M654 622c0 -5.33301 -0.666016 -11.333 -1.99902 -18l-94 -349l-178 417h-195l-4 -16l42 -77l-137 -511c-5.33301 -18 -14 -31.167 -26 -39.5s-26 -12.5 -42 -12.5l-5 -16h125l5 16c-14.667 0 -25.334 3.5 -32.001 10.5s-10 15.833 -10 26.5
c0 3.33301 0.666992 8.33301 2 15l128 481l238 -557h34l165 612c5.33301 18 14 31.167 26 39.5s26 12.5 42 12.5l5 16h-125l-5 -16c28.667 0 43 -11.333 43 -34z" />
    <glyph glyph-name="O" unicode="O" horiz-adv-x="701" 
d="M67 234c0 -34 4.83496 -66.1689 14.502 -96.502s24.667 -56.833 45 -79.5s46.166 -40.667 77.499 -54s68.666 -20 111.999 -20c68 0 128.167 14 180.5 42s96.333 63.667 132 107s62.667 91.666 81 144.999s27.5 105 27.5 155c0 34 -4.83301 66.167 -14.5 96.5
s-24.667 56.833 -45 79.5s-46.333 40.667 -78 54s-69.167 20 -112.5 20c-45.333 0 -87.333 -6.5 -126 -19.5s-73.5 -30.5 -104.5 -52.5s-58.333 -47.667 -82 -77s-43.5 -60.666 -59.5 -93.999s-28 -67.666 -36 -102.999s-12 -69.666 -12 -102.999zM581.002 567.998
c0 -16.667 -1.83301 -34.5 -5.5 -53.5s-8.16699 -39.167 -13.5 -60.5l-65 -244c-6.66699 -24 -14 -48.333 -22 -73s-18.667 -47 -32 -67s-29.833 -36.333 -49.5 -49s-44.5 -19 -74.5 -19c-39.333 0 -66 9.16699 -80 27.5s-21 40.833 -21 67.5c0 17.333 2 35.333 6 54
s8.33301 37 13 55l65 241c8 28.667 16.667 56.167 26 82.5s21 49.5 35 69.5s30.667 36 50 48s43 18 71 18c36 0 61.167 -8.66699 75.5 -26s21.5 -41 21.5 -71z" />
    <glyph glyph-name="P" unicode="P" horiz-adv-x="585" 
d="M475 672h-304l-4 -16h53l-171 -640h-52l-5 -17h268l5 17h-54l78 292h98c44.667 0 83.5 5.33301 116.5 16s60 25.167 81 43.5s36.667 39.5 47 63.5s15.5 49.667 15.5 77c0 28.667 -4.5 53.5 -13.5 74.5s-21.333 38 -37 51s-34 22.667 -55 29s-43.167 9.5 -66.5 9.5z
M360 324h-66l88 332h35c25.333 0 46 -8 62 -24s24 -43.333 24 -82c0 -16 -3 -36.833 -9 -62.5s-14.833 -50.5 -26.5 -74.5s-26.5 -44.833 -44.5 -62.5s-39 -26.5 -63 -26.5z" />
    <glyph glyph-name="Q" unicode="Q" horiz-adv-x="694" 
d="M346 -122c0 8 1.16602 17.6641 3.49902 28.9971s5 22.5 8 33.5s6 20.833 9 29.5s5.5 14.667 7.5 18c58.667 8 110.667 26.833 156 56.5s83.333 65.5 114 107.5s53.834 87.667 69.501 137s23.5 97.333 23.5 144c0 34 -4.83301 66.167 -14.5 96.5s-24.667 56.833 -45 79.5
s-46.333 40.667 -78 54s-69.167 20 -112.5 20c-45.333 0 -87.333 -6.5 -126 -19.5s-73.5 -30.5 -104.5 -52.5s-58.333 -47.667 -82 -77s-43.5 -60.666 -59.5 -93.999s-28 -67.666 -36 -102.999s-12 -69.666 -12 -102.999c0 -29.333 3.5 -57.333 10.5 -84s18 -50.667 33 -72
s34 -39.666 57 -54.999s50.5 -26.333 82.5 -33c-2.66699 -4.66699 -6 -12.834 -10 -24.501s-6 -27.167 -6 -46.5c0 -28 5.66699 -51.833 17 -71.5s26.333 -35.5 45 -47.5s39.5 -20.667 62.5 -26s46.5 -8 70.5 -8c18.667 0 33.334 2.33301 44.001 7l4 13h-7
c-14.667 0 -29.334 2 -44.001 6s-28 10 -40 18s-21.667 17.667 -29 29s-11 24.333 -11 39zM580.999 567.997c0 -16.667 -1.83301 -34.5 -5.5 -53.5s-8.16699 -39.167 -13.5 -60.5l-65 -244c-6.66699 -24 -14 -48.333 -22 -73s-18.667 -47 -32 -67s-29.833 -36.333 -49.5 -49
s-44.5 -19 -74.5 -19c-39.333 0 -66 9.16699 -80 27.5s-21 40.833 -21 67.5c0 17.333 2 35.333 6 54s8.33301 37 13 55l65 241c8 28.667 16.667 56.167 26 82.5s21 49.5 35 69.5s30.667 36 50 48s43 18 71 18c36 0 61.167 -8.66699 75.5 -26s21.5 -41 21.5 -71z" />
    <glyph glyph-name="R" unicode="R" horiz-adv-x="662" 
d="M545 141l9.99805 42.001c3.33301 14.667 5 29.334 5 44.001c0 22.667 -4.66699 41.167 -14 55.5s-21 25.833 -35 34.5s-29 14.667 -45 18s-30.667 5.66602 -44 6.99902c33.333 2 64.333 7.33301 93 16s53.334 20.667 74.001 36s36.834 34.166 48.501 56.499
s17.5 48.5 17.5 78.5c0 44 -16.167 78.833 -48.5 104.5s-74.833 38.5 -127.5 38.5h-310l-4 -16h53l-170 -639h-53l-6 -17h269l5 17h-53l86 326c14 0 27.333 -1.33301 40 -4s24 -7 34 -13s17.833 -14.167 23.5 -24.5s8.5 -23.5 8.5 -39.5c0 -3.33301 -0.333008 -8 -1 -14
s-1.66699 -12.667 -3 -20s-2.83301 -15 -4.5 -23s-3.5 -15.333 -5.5 -22c-5.33301 -19.333 -10 -38.166 -14 -56.499s-6 -35.5 -6 -51.5c0 -28.667 9.33301 -50.5 28 -65.5s43 -22.5 73 -22.5c29.333 0 59.5 7.83301 90.5 23.5s57.5 39.167 79.5 70.5c3.33301 4 5 8 5 12
s-1.66699 6 -5 6c-4 0 -9 -3.33301 -15 -10c-15.333 -17.333 -29 -29.833 -41 -37.5s-22.333 -11.5 -31 -11.5c-12 0 -18.833 3.33301 -20.5 10s-2.5 12.667 -2.5 18c0 9.33301 1.66699 20.166 5 32.499zM353.998 359.001l-54 -0.000976562l80 296h36
c28 0 50 -6.16699 66 -18.5s24 -34.166 24 -65.499c0 -10.667 -1.5 -27.667 -4.5 -51s-9.83301 -47 -20.5 -71s-26 -45 -46 -63s-47 -27 -81 -27z" />
    <glyph glyph-name="S" unicode="S" horiz-adv-x="557" 
d="M590 665l-35.998 -35.0039c-6 6 -13 12.167 -21 18.5s-17.5 12 -28.5 17s-23.5 9.16699 -37.5 12.5s-30.333 5 -49 5c-49.333 0 -91.833 -6 -127.5 -18s-65 -28 -88 -48s-40 -42.833 -51 -68.5s-16.5 -52.167 -16.5 -79.5c0 -30 7 -58.667 21 -86
s34.333 -49.666 61 -66.999c20.667 -13.333 38.334 -24.333 53.001 -33l40 -23.5l35.5 -21l40.5 -25.5c14 -9.33301 24.5 -20.833 31.5 -34.5s10.5 -28.167 10.5 -43.5s-3.5 -30.333 -10.5 -45s-17.167 -28 -30.5 -40s-29.833 -21.667 -49.5 -29s-42.167 -11 -67.5 -11
c-52 0 -92 15.333 -120 46s-45.333 73.334 -52 128.001c-1.33301 9.33301 -3 15.5 -5 18.5s-4.66699 4.5 -8 4.5c-4.66699 0 -9 -7.33301 -13 -22l-41 -154c-3.33301 -12 -5 -20 -5 -24c0 -5.33301 3 -8 9 -8c3.33301 0 6.5 1.33301 9.5 4s6.83301 6.33398 11.5 11.001
l50 48c6.66699 -8 14.667 -16.167 24 -24.5s20.333 -15.833 33 -22.5s27.667 -12.167 45 -16.5s38 -6.5 62 -6.5c52.667 0 97.667 6.33301 135 19s68 29.334 92 50.001s41.5 44.167 52.5 70.5s16.5 53.5 16.5 81.5c0 44.667 -9.83301 81.834 -29.5 111.501
s-48.834 55.167 -87.501 76.5c-20.667 11.333 -41.667 23.5 -63 36.5l-70 41.5c-15.333 8.66699 -27 20.5 -35 35.5s-12 30.833 -12 47.5c0 12.667 2.66699 25.167 8 37.5s13.833 23.333 25.5 33s26.667 17.5 45 23.5s40.5 9 66.5 9c22 0 41.333 -3.5 58 -10.5
s30.834 -16.167 42.501 -27.5s20.667 -24.333 27 -39s10.5 -29.667 12.5 -45c1.33301 -8.66699 2.66602 -15 3.99902 -19s4 -6 8 -6c3.33301 0 5.66602 1.16699 6.99902 3.5s2.66602 6.16602 3.99902 11.499l34 122c1.33301 4 2 6.66699 2 8v5c0 5.33301 -1.66699 8 -5 8
s-6.5 -1.16699 -9.5 -3.5s-5.83301 -4.83301 -8.5 -7.5z" />
    <glyph glyph-name="T" unicode="T" horiz-adv-x="615" 
d="M683 474l27 161.998c0.666992 2.66699 1.33398 5.83398 2.00098 9.50098s1 6.83398 1 9.50098c0 11.333 -6.33301 17 -19 17h-482c-10 0 -17.167 -1.66699 -21.5 -5s-8.16602 -9.33301 -11.499 -18l-59 -168h21c23.333 56.667 53.333 100 90 130s76 45 118 45h18
l-171 -640h-54l-4 -16h268l5 16h-54l171 640h40c11.333 0 22.666 -3.16699 33.999 -9.5s21.666 -15.833 30.999 -28.5s16.833 -28.334 22.5 -47.001s8.5 -40.334 8.5 -65.001c0 -5.33301 -0.166992 -10.666 -0.5 -15.999s-0.833008 -10.666 -1.5 -15.999h21z" />
    <glyph glyph-name="U" unicode="U" horiz-adv-x="626" 
d="M658 622c0 -6 -0.664062 -11.667 -1.99707 -17l-108 -391c-15.333 -57.333 -40.5 -102.833 -75.5 -136.5s-74.833 -50.5 -119.5 -50.5c-32.667 0 -58.334 7.66699 -77.001 23s-28 39.333 -28 72c0 12 1.33301 25.833 4 41.5s7 34.167 13 55.5l117 437h53l5 16h-269
l-4 -16h53l-114 -430c-4 -15.333 -6.83301 -30.333 -8.5 -45s-2.5 -26.667 -2.5 -36c0 -49.333 18.667 -87.5 56 -114.5s87 -40.5 149 -40.5c65.333 0 121.166 17.667 167.499 53s79.166 89.333 98.499 162l107 399c5.33301 18 13.833 31.167 25.5 39.5s25.5 12.5 41.5 12.5
l5 16h-125l-5 -16c28.667 0 43 -11.333 43 -34z" />
    <glyph glyph-name="V" unicode="V" horiz-adv-x="624" 
d="M338 -14l338.001 619.001c11.333 20 23.833 33.5 37.5 40.5s28.5 10.5 44.5 10.5l4 16h-142l-4 -16c17.333 0 29.666 -2.83301 36.999 -8.5s11 -11.834 11 -18.501c0 -7.33301 -1.66699 -14.333 -5 -21l-249 -454l-28 502h53l5 16h-269l-4 -16h53l37 -670h81z" />
    <glyph glyph-name="W" unicode="W" horiz-adv-x="890" 
d="M964 624c0 -6.66699 -1.33301 -12.665 -4 -17.998l-218 -409l-36 458h54l5 17h-256l-5 -17h40l17 -211l-145 -264l-33 475h50l5 17h-267l-4 -17h55l50 -665h65l226 420l32 -420h62l323 616c11.333 19.333 24 32.666 38 39.999s28.333 11 43 11l5 16h-142l-5 -16
c16 0 27.5 -3.33301 34.5 -10s10.5 -14.334 10.5 -23.001z" />
    <glyph glyph-name="X" unicode="X" horiz-adv-x="671" 
d="M234 656l100 -356.002l-229 -233c-11.333 -11.333 -25.833 -22.166 -43.5 -32.499s-36.167 -16.5 -55.5 -18.5l-4 -16h142l4 16c-24.667 0 -37 6 -37 18c0 5.33301 2 10.833 6 16.5s9 11.834 15 18.501l209 211l73 -264h-55l-4 -16h272l4 16h-55l-108 384l194 200
c14 15.333 29.5 28.5 46.5 39.5s35.5 16.5 55.5 16.5l4 16h-151l-4 -16c24.667 0 37 -7.33301 37 -22c0 -11.333 -7.33301 -24.333 -22 -39l-167 -170l-64 231h56l4 16h-269l-4 -16h50z" />
    <glyph glyph-name="Y" unicode="Y" horiz-adv-x="671" 
d="M646 673l-4 -16.001c26 0 39 -8 39 -24c0 -9.33301 -4.66699 -20.666 -14 -33.999l-199 -265l-78 322h54l4 16h-277l-4 -16h53l98 -360l-75 -280h-54l-4 -16h269l4 16h-54l82 306l206 274c15.333 19.333 32 34.333 50 45s37.667 16 59 16l4 16h-159z" />
    <glyph glyph-name="Z" unicode="Z" horiz-adv-x="581" 
d="M11 26l-6.99805 -25.999h508l54 202h-18c-26.667 -62.667 -57.834 -109.334 -93.501 -140.001s-80.834 -46 -135.501 -46h-151l509 632l6 24h-494l-46 -174h14c10.667 32 24 58.167 40 78.5s33.667 36.5 53 48.5s40.5 20.167 63.5 24.5s47.167 6.5 72.5 6.5h131z" />
    <glyph glyph-name="bracketleft" unicode="[" horiz-adv-x="253" 
d="M163 -70l6 21h-60l204 762h64l6 21h-172l-215 -804h167z" />
    <glyph glyph-name="backslash" unicode="\" horiz-adv-x="312" 
d="M165 726l62 -791h38l-63 791h-37z" />
    <glyph glyph-name="bracketright" unicode="]" horiz-adv-x="253" 
d="M268 713l-205 -762h-60l-5 -21h168l215 804h-172l-6 -21h65z" />
    <glyph glyph-name="asciicircum" unicode="^" horiz-adv-x="339" 
d="M342 326l-60 274h-43l-165 -271l9 -9l164 202l83 -200z" />
    <glyph glyph-name="underscore" unicode="_" horiz-adv-x="291" 
d="M-1 -3l-3 -13h300l3 13h-300z" />
    <glyph glyph-name="grave" unicode="`" 
d="M162 660l124 -155l17 5l-58 150h-83z" />
    <glyph glyph-name="a" unicode="a" horiz-adv-x="649" 
d="M615 430l-157.996 -0.00292969l-19 -67c-12 30 -28.833 50 -50.5 60s-43.834 15 -66.501 15c-32.667 0 -64.667 -6.33301 -96 -19s-59.166 -30.167 -83.499 -52.5s-43.833 -49.166 -58.5 -80.499s-22 -66 -22 -104c0 -30 4.66699 -56.833 14 -80.5
s21.833 -43.5 37.5 -59.5s33.167 -28.333 52.5 -37s39 -13 59 -13s37.833 2.83301 53.5 8.5s29.5 12.834 41.5 21.501s22.167 17.5 30.5 26.5s15.166 17.167 20.499 24.5c1.33301 -9.33301 4.5 -19 9.5 -29s12.167 -19.167 21.5 -27.5s21.166 -15.166 35.499 -20.499
s32.166 -8 53.499 -8c26 0 48.333 4.83301 67 14.5s34.5 21.5 47.5 35.5s23.667 28.833 32 44.5s15.166 29.5 20.499 41.5c0.666992 1.33301 1 3 1 5c0 5.33301 -2.66699 8 -8 8c-3.33301 0 -6 -2 -8 -6c-16.667 -34.667 -33.5 -60 -50.5 -76s-31.5 -24 -43.5 -24
c-16 0 -24 11.333 -24 34c0 9.33301 1.33301 19 4 29zM240.004 312.997c8.66699 30.667 20.8301 55.6699 36.4971 75.0029s36.834 29 63.501 29c14 0 26.5 -3.5 37.5 -10.5s20.333 -15.5 28 -25.5s13.334 -20 17.001 -30s5.5 -18 5.5 -24c0 -1.33301 -0.166992 -3 -0.5 -5
s-1.5 -6.33301 -3.5 -13l-54 -195c-2 -8 -7.5 -17.667 -16.5 -29s-19.833 -22.333 -32.5 -33s-26.167 -19.834 -40.5 -27.501s-28.5 -11.5 -42.5 -11.5c-16 0 -29.5 5 -40.5 15s-16.5 25.667 -16.5 47c0 9.33301 0.833008 18.666 2.5 27.999s3.83398 18.666 6.50098 27.999z
" />
    <glyph glyph-name="b" unicode="b" horiz-adv-x="525" 
d="M202 103l59 210.999c3.33301 11.333 8.33301 22.833 15 34.5s14.667 22.334 24 32.001s19.5 17.5 30.5 23.5s22.5 9 34.5 9c24 0 36 -13.667 36 -41c0 -13.333 -2.33301 -28.333 -7 -45l-68 -252c-7.33301 -24.667 -16.666 -41.5 -27.999 -50.5s-27.333 -13.5 -48 -13.5
c-16.667 0 -29.834 5 -39.501 15s-14.5 23 -14.5 39c0 12 2 24.667 6 38zM142 644.999l56 10.999l-113 -413c-8.66699 -30 -13 -58.333 -13 -85c0 -56.667 18.833 -98.834 56.5 -126.501s88.5 -41.5 152.5 -41.5c40 0 76 9.33301 108 28s59.5 42.5 82.5 71.5
s40.667 60.833 53 95.5s18.5 68.334 18.5 101.001c0 20.667 -2.83301 40.334 -8.5 59.001s-14.167 35 -25.5 49s-25.833 25 -43.5 33s-38.834 12 -63.501 12c-18 0 -33.5 -1.66699 -46.5 -5s-24.167 -7.5 -33.5 -12.5s-17.166 -10.833 -23.499 -17.5l-18.5 -20l80 314
l-214 -37z" />
    <glyph glyph-name="c" unicode="c" horiz-adv-x="475" 
d="M218 313c6.66699 20 13.333 36.8389 20 50.5059s14.5 24.667 23.5 33s19.5 14.333 31.5 18s26 5.5 42 5.5c19.333 0 34.666 -1.33301 45.999 -4s17 -5.33398 17 -8.00098c0 -2 -2.66699 -3.33301 -8 -4c-12.667 -1.33301 -22.834 -7.33301 -30.501 -18
s-11.5 -22.667 -11.5 -36c0 -18 6.33301 -31.833 19 -41.5s27.334 -14.5 44.001 -14.5c14.667 0 28.667 4.66699 42 14s20 24.666 20 45.999c0 16 -4.16699 29.167 -12.5 39.5s-19 18.666 -32 24.999s-27.5 10.833 -43.5 13.5s-32 4 -48 4
c-48.667 0 -91.667 -7.83301 -129 -23.5s-68.833 -36 -94.5 -61s-45 -52.833 -58 -83.5s-19.5 -61.334 -19.5 -92.001c0 -29.333 5.5 -55.333 16.5 -78s25.833 -42 44.5 -58s39.834 -28.167 63.501 -36.5s48.167 -12.5 73.5 -12.5c28 0 53.333 4.16699 76 12.5
s42.5 18.666 59.5 30.999s31.5 26 43.5 41s22 29.167 30 42.5c2.66699 4.66699 4 8.66699 4 12c0 5.33301 -2.66699 8 -8 8c-4 0 -7.33301 -2.33301 -10 -7c-11.333 -20.667 -24.333 -38.5 -39 -53.5s-30 -27.333 -46 -37s-32.167 -16.834 -48.5 -21.501
s-31.833 -7 -46.5 -7c-18 0 -32.5 2.66699 -43.5 8s-19.167 12 -24.5 20s-8.83301 16.333 -10.5 25s-2.5 16.667 -2.5 24c0 10.667 1.66699 25.5 5 44.5s7.5 39.333 12.5 61s10.5 43.167 16.5 64.5s11.333 39.333 16 54z" />
    <glyph glyph-name="d" unicode="d" horiz-adv-x="596" 
d="M263 317c8.66699 28.667 17.833 50.666 27.5 65.999s24.5 23 44.5 23c10 0 18.667 -2 26 -6s13.833 -9.16699 19.5 -15.5s10.334 -13.166 14.001 -20.499s6.5 -14 8.5 -20l-69 -246c-7.33301 -25.333 -19.833 -45 -37.5 -59s-35.834 -21 -54.501 -21
c-14 0 -24.5 4.5 -31.5 13.5s-10.5 20.5 -10.5 34.5c0 6 2.16699 19 6.5 39s9.83301 42.5 16.5 67.5l21 77zM434.999 660.999l-4.00488 -16.002l56 11l-74 -276c-7.33301 14 -18.833 26.333 -34.5 37s-37.834 16 -66.501 16c-41.333 0 -78.666 -8.5 -111.999 -25.5
s-61.5 -38.5 -84.5 -64.5s-40.667 -54.667 -53 -86s-18.5 -61 -18.5 -89c0 -26 3.16699 -49.833 9.5 -71.5s16.333 -40.5 30 -56.5s30.834 -28.5 51.501 -37.5s45.334 -13.5 74.001 -13.5c31.333 0 57 5.33301 77 16s38 26.334 54 47.001
c0.666992 -7.33301 2.83398 -14.666 6.50098 -21.999s9.16699 -14.166 16.5 -20.499s16.833 -11.5 28.5 -15.5s26.167 -6 43.5 -6c20.667 0 40.334 4.33301 59.001 13s35.834 19.667 51.501 33s29.834 28 42.501 44s24 31.333 34 46c1.33301 2 2 4.33301 2 7
c0 6.66699 -3 10 -9 10c-4.66699 0 -8.33398 -2.33301 -11.001 -7c-24 -34.667 -45.167 -59.334 -63.5 -74.001s-32.833 -22 -43.5 -22c-14 0 -21 9.33301 -21 28c0 7.33301 0.666992 13.5 2 18.5l5 19.5l159 592z" />
    <glyph glyph-name="e" unicode="e" horiz-adv-x="482" 
d="M498 318c0 14.667 -3.16699 29.3379 -9.5 44.0049s-16 27.5 -29 38.5s-29.333 20 -49 27s-43.167 10.5 -70.5 10.5c-46 0 -87 -8.16699 -123 -24.5s-66.167 -37.5 -90.5 -63.5s-42.833 -55 -55.5 -87s-19 -63.667 -19 -95c0 -24 3.83301 -46.833 11.5 -68.5
s19.334 -40.667 35.001 -57s35.5 -29.5 59.5 -39.5s52.333 -15 85 -15c26 0 50.333 3.33301 73 10s43.5 15.667 62.5 27s36 24.166 51 38.499s28.167 29.5 39.5 45.5c2.66699 3.33301 4.33398 6.33301 5.00098 9s1 5 1 7c0 6 -2.33301 9 -7 9c-4 0 -8 -2.66699 -12 -8
c-25.333 -36 -55.833 -64.5 -91.5 -85.5s-74.834 -31.5 -117.501 -31.5c-18 0 -34.333 5.16699 -49 15.5s-22 25.166 -22 44.499c0 11.333 0.666992 21.166 2 29.499s3.66602 19.5 6.99902 33.5l16 68c12.667 -4 28 -7.5 46 -10.5s37 -4.5 57 -4.5c28 0 54 3 78 9
s44.5 14.667 61.5 26s30.333 25.166 40 41.499s14.5 35.166 14.5 56.499zM232 314.004c4 14 8.66992 27.501 14.0029 40.501s11.833 24.5 19.5 34.5s16.667 18 27 24s22.166 9 35.499 9c17.333 0 29.666 -5.5 36.999 -16.5s11 -25.167 11 -42.5
c0 -50.667 -11.833 -88.834 -35.5 -114.501s-53.834 -38.5 -90.501 -38.5c-8 0 -15.667 0.666992 -23 2l-22 4z" />
    <glyph glyph-name="f" unicode="f" horiz-adv-x="312" 
d="M-76 -220c37.333 0 71.666 7.5 102.999 22.5s59 34.5 83 58.5s44.333 50.833 61 80.5s29 59.167 37 88.5l104 380h80l5 17h-81l18 67c6 22 10.333 42.5 13 61.5s5.33398 35.667 8.00098 50s6.16699 26.166 10.5 35.499s11.5 15.666 21.5 18.999
c7.33301 2.66699 15 4 23 4c6 0 11 -0.666992 15 -2s6 -3 6 -5s-1.66699 -3.33301 -5 -4c-24 -6 -36 -22 -36 -48c0 -14 5 -24.833 15 -32.5s22.667 -11.5 38 -11.5c17.333 0 30.5 6.16699 39.5 18.5s13.5 26.166 13.5 41.499c0 6.66699 -1.33301 13.334 -4 20.001
s-7 12.834 -13 18.501s-14 10.334 -24 14.001s-22.333 5.5 -37 5.5c-32 0 -61 -6.33301 -87 -19s-49.167 -29.167 -69.5 -49.5s-37.833 -43.666 -52.5 -69.999s-26 -53.166 -34 -80.499l-10 -33h-78l-4 -17h78l-121 -445c-14.667 -54.667 -31.5 -96.5 -50.5 -125.5
s-40.833 -43.5 -65.5 -43.5c-11.333 0 -17 1.33301 -17 4s3 4.66699 9 6s12.833 5.16602 20.5 11.499s11.5 16.166 11.5 29.499c0 12.667 -4.33301 24.5 -13 35.5s-21 16.5 -37 16.5c-13.333 0 -25.5 -4.66699 -36.5 -14s-16.5 -23 -16.5 -41
c0 -22 7.33301 -38.167 22 -48.5s33.667 -15.5 57 -15.5z" />
    <glyph glyph-name="g" unicode="g" horiz-adv-x="481" 
d="M241 212c0 4.66699 1.16797 12.333 3.50098 23s5.16602 22.5 8.49902 35.5l10 39l8 31.5c6.66699 25.333 14.167 45.333 22.5 60s21.5 22 39.5 22c12 0 20.5 -2.83301 25.5 -8.5s7.5 -13.5 7.5 -23.5c0 -4 -1 -11.167 -3 -21.5s-4.66699 -22.333 -8 -36l-11 -43
l-11 -42.5l-7.5 -27.5c-2.33301 -8.33301 -5.5 -15.333 -9.5 -21s-9.33301 -10.167 -16 -13.5s-15 -5 -25 -5c-12.667 0 -21.5 2.83301 -26.5 8.5s-7.5 13.167 -7.5 22.5zM225.001 166.999c7.33301 -1.33301 15.333 -2.50098 24 -3.50098s19.667 -1.5 33 -1.5
c38.667 0 71 5.66699 97 17s47 25 63 41s27.333 33 34 51s10 33.667 10 47c0 12.667 -0.5 23.334 -1.5 32.001s-2.5 16 -4.5 22s-4.16699 11 -6.5 15l-6.5 11c-7.33301 15.333 -12.166 28.666 -14.499 39.999s-3.5 20.666 -3.5 27.999c0 9.33301 1 16.166 3 20.499
s4.33301 7.16602 7 8.49902c10.667 -13.333 24 -20 40 -20c11.333 0 21 3.66699 29 11s12 17 12 29c0 12.667 -4.16699 22.667 -12.5 30s-18.833 11 -31.5 11c-9.33301 0 -17.833 -2.5 -25.5 -7.5s-14.167 -11.5 -19.5 -19.5s-9.33301 -17.167 -12 -27.5
s-4 -20.833 -4 -31.5c0 -10 1.33301 -20.667 4 -32s5.66699 -21 9 -29c-4 2 -8.33301 4.66699 -13 8s-11.5 6.5 -20.5 9.5s-20.667 5.5 -35 7.5s-32.5 3 -54.5 3c-33.333 0 -62.833 -4.5 -88.5 -13.5s-47.167 -20.667 -64.5 -35s-30.5 -30.833 -39.5 -49.5
s-13.5 -37.667 -13.5 -57c0 -14 2.33301 -26.833 7 -38.5s10.5 -22 17.5 -31s14.833 -16.667 23.5 -23s17 -11.5 25 -15.5c-22.667 -4 -43.667 -9.16699 -63 -15.5s-36 -15.166 -50 -26.499s-24.833 -25.333 -32.5 -42s-11.5 -37 -11.5 -61
c0 -22.667 6.66699 -40.167 20 -52.5s28.666 -19.833 45.999 -22.5c-21.333 -4 -39.666 -10.333 -54.999 -19s-28 -18.667 -38 -30s-17.333 -23.166 -22 -35.499s-7 -24.166 -7 -35.499c0 -17.333 4.83301 -32 14.5 -44s22.5 -21.667 38.5 -29s34.167 -12.666 54.5 -15.999
s41.166 -5 62.499 -5c30 0 60.333 4.16699 91 12.5s59 21.166 85 38.499c20.667 14 37.167 30.333 49.5 49s21.833 37.5 28.5 56.5s10.834 37 12.501 54s2.5 30.5 2.5 40.5c0 38.667 -13.333 66.667 -40 84s-72.667 26 -138 26h-64c-12.667 0 -24.834 1 -36.501 3
s-17.5 7.33301 -17.5 16c0 12.667 9.16699 22.334 27.5 29.001s43.5 12.667 75.5 18zM362.001 -117.002c0 -20.667 -6.83594 -38.833 -20.5029 -54.5s-30.5 -28.667 -50.5 -39s-41.333 -18 -64 -23s-43 -7.5 -61 -7.5c-25.333 0 -46.666 2 -63.999 6
s-31.166 9.5 -41.499 16.5s-17.833 15.167 -22.5 24.5s-7 19 -7 29c0 14 3.5 28 10.5 42s15.833 26.833 26.5 38.5s22.5 21.167 35.5 28.5s25.167 11 36.5 11h78c30.667 0 55.334 -2.33301 74.001 -7s33.167 -10.5 43.5 -17.5s17.333 -14.833 21 -23.5s5.5 -16.667 5.5 -24z
" />
    <glyph glyph-name="h" unicode="h" horiz-adv-x="604" 
d="M449 438c-19.333 0 -36.1641 -1.33203 -50.4971 -3.99902s-27 -6.33398 -38 -11.001s-21 -10.5 -30 -17.5l-27.5 -22.5l83 308l-212 -30l-4 -15l56 9l-177 -655h151l85 325c2 8 7 17.333 15 28s17.5 20.5 28.5 29.5s22.833 16.667 35.5 23s24.667 9.5 36 9.5
s19.666 -4.83301 24.999 -14.5s8 -21.167 8 -34.5c0 -10.667 -1.66699 -22 -5 -34l-56 -209c-4.66699 -14.667 -7 -29.667 -7 -45c0 -26 7.16699 -45.833 21.5 -59.5s32.833 -20.5 55.5 -20.5c26 0 48.167 3.66699 66.5 11s34.166 17.333 47.499 30s25 27.334 35 44.001
s19.667 34 29 52c1.33301 2.66699 2 5 2 7c0 5.33301 -2.66699 8 -8 8c-2.66699 0 -5 -1.33301 -7 -4c-17.333 -34 -32.833 -57.833 -46.5 -71.5s-24.834 -20.5 -33.501 -20.5c-10 0 -15 7.33301 -15 22c0 6 1 13 3 21l50 183c2.66699 10 4.66699 19.333 6 28s2 17 2 25
c0 35.333 -11.167 61.666 -33.5 78.999s-52.5 26 -90.5 26z" />
    <glyph glyph-name="i" unicode="i" horiz-adv-x="335" 
d="M217 60c0 3.33301 0.333008 7.5 1 12.5s2.66699 13.167 6 24.5l99 365l-213 -32l-5 -17l57 7l-85 -311c-4 -16 -6 -30 -6 -42c0 -26 7.66699 -45.667 23 -59s36 -20 62 -20c44 0 79 12.167 105 36.5s48.333 56.833 67 97.5c2 4 3 8 3 12c0 6 -2.33301 9 -7 9
s-8.33398 -3 -11.001 -9c-16.667 -33.333 -32.167 -57.5 -46.5 -72.5s-26.166 -22.5 -35.499 -22.5s-14 7 -14 21zM352 585c0 18 -5.99902 34.167 -17.999 48.5s-30.667 21.5 -56 21.5c-14 0 -26.5 -2.5 -37.5 -7.5s-20.333 -11.5 -28 -19.5s-13.334 -17.167 -17.001 -27.5
s-5.5 -20.833 -5.5 -31.5c0 -18 5.83301 -34 17.5 -48s29.834 -21 54.501 -21c14.667 0 27.667 2.5 39 7.5s20.666 11.5 27.999 19.5s13 17.167 17 27.5s6 20.5 6 30.5z" />
    <glyph glyph-name="j" unicode="j" horiz-adv-x="284" 
d="M110 414l56.002 8.99805l-161 -598c-6 -21.333 -15.167 -36.333 -27.5 -45s-24.5 -13 -36.5 -13c-6.66699 0 -12.334 1.33301 -17.001 4c13.333 0 24.666 3.83301 33.999 11.5s14 19.834 14 36.501c0 13.333 -4 26 -12 38s-22.333 18 -43 18
c-17.333 0 -31.5 -5.66699 -42.5 -17s-16.5 -26.666 -16.5 -45.999c0 -20 7.83301 -36.333 23.5 -49s37.5 -19 65.5 -19c28.667 0 56 4.83301 82 14.5s49.333 23.167 70 40.5s38.667 38.333 54 63s27 52 35 82l139 518l-213 -32zM352.002 584.998
c0 18 -5.99902 34.167 -17.999 48.5s-30.667 21.5 -56 21.5c-14 0 -26.5 -2.5 -37.5 -7.5s-20.333 -11.5 -28 -19.5s-13.334 -17.167 -17.001 -27.5s-5.5 -20.833 -5.5 -31.5c0 -18 5.83301 -34 17.5 -48s29.834 -21 54.501 -21c14.667 0 27.667 2.5 39 7.5
s20.666 11.5 27.999 19.5s13 17.167 17 27.5s6 20.5 6 30.5z" />
    <glyph glyph-name="k" unicode="k" horiz-adv-x="618" 
d="M369 298c10 5.33301 18.8271 12.0029 26.4941 20.0029s15.834 18.667 24.501 32l26.5 40c8.33301 12.667 15.833 20 22.5 22c-1.33301 -2.66699 -2.33301 -5.33398 -3 -8.00098s-1 -6 -1 -10c0 -18 6.16699 -31.5 18.5 -40.5s24.833 -13.5 37.5 -13.5
c13.333 0 25.833 4.66699 37.5 14s17.5 23.666 17.5 42.999c0 18 -5.66699 32 -17 42s-27.666 15 -48.999 15c-12.667 0 -24 -2.66699 -34 -8s-19.167 -12.333 -27.5 -21s-16.166 -18.334 -23.499 -29.001l-21 -32c-11.333 -16.667 -22.666 -31.334 -33.999 -44.001
s-25.666 -19 -42.999 -19h-46l104 395l-212 -35l-4 -16l55 11l-176 -656h153l75 285c4.66699 0 10.5 -0.166992 17.5 -0.5s14.5 -1.5 22.5 -3.5c9.33301 -2.66699 17.333 -10.834 24 -24.501s12.667 -29.834 18 -48.501c3.33301 -13.333 6.33301 -27.333 9 -42l7.5 -42
c2.33301 -13.333 4.66602 -25.666 6.99902 -36.999s4.5 -20.333 6.5 -27c10 -29.333 24.833 -48.666 44.5 -57.999s45.834 -14 78.501 -14c20 0 37.5 3.5 52.5 10.5s28.333 16.167 40 27.5s21.834 24.5 30.501 39.5s17 30.167 25 45.5c0.666992 1.33301 1 3 1 5
c0 4.66699 -1.66699 7 -5 7s-5.66602 -1.66699 -6.99902 -5c-15.333 -29.333 -30 -51.333 -44 -66s-26.333 -22 -37 -22c-12 0 -20.333 8.66699 -25 26c-2 8 -4.33301 18.333 -7 31l-8.5 41.5c-3 15 -6.33301 30.167 -10 45.5s-7.83398 29.666 -12.501 42.999
c-5.33301 18 -12.833 32.333 -22.5 43s-20.667 18.834 -33 24.501s-25.333 9.33398 -39 11.001s-27.167 2.5 -40.5 2.5z" />
    <glyph glyph-name="l" unicode="l" horiz-adv-x="328" 
d="M168 646l58.002 8.99707l-144 -520c-3.33301 -11.333 -5.83301 -21.333 -7.5 -30s-2.5 -17.667 -2.5 -27c0 -15.333 2.83301 -28.666 8.5 -39.999s13 -20.666 22 -27.999s19.5 -12.833 31.5 -16.5s24.333 -5.5 37 -5.5c24 0 44.833 3.16699 62.5 9.5s33.667 15.333 48 27
s27.166 25.834 38.499 42.501s22.666 35.667 33.999 57c2 4 3.16699 6.66699 3.5 8s0.5 2.33301 0.5 3c0 5.33301 -2.66699 8 -8 8c-3.33301 0 -5.66602 -1.66699 -6.99902 -5c-20.667 -40 -40.334 -68.5 -59.001 -85.5s-34.667 -25.5 -48 -25.5
c-14.667 0 -22 9.33301 -22 28c0 3.33301 0.333008 7 1 11s2 10 4 18l168 614l-215 -35z" />
    <glyph glyph-name="m" unicode="m" horiz-adv-x="875" 
d="M700 378c0 -10.667 -1.33301 -22.665 -4 -35.998s-5.66699 -26.666 -9 -39.999l-50 -189c-3.33301 -13.333 -5 -25 -5 -35c0 -23.333 6.5 -43 19.5 -59s32.167 -24 57.5 -24c42 0 78 13.167 108 39.5s54 61.166 72 104.499c1.33301 2.66699 2 5 2 7
c0 4.66699 -2.33301 7 -7 7c-3.33301 0 -6.33301 -2.33301 -9 -7c-17.333 -32.667 -33 -56.167 -47 -70.5s-25.333 -21.5 -34 -21.5c-10 0 -15 7.66699 -15 23c0 8.66699 1.33301 18 4 28l50 182c4.66699 16 7 32.667 7 50c0 30 -9.83301 54.667 -29.5 74
s-51.834 29 -96.501 29c-35.333 0 -64.833 -7.83301 -88.5 -23.5s-43.167 -34.167 -58.5 -55.5c-3.33301 28 -16.166 48.333 -38.499 61s-50.833 19 -85.5 19c-30.667 0 -58.334 -5.83301 -83.001 -17.5s-45 -28.5 -61 -50.5l17 80l-213 -35l-4 -17l55 9l-110 -410h151
l82 300c4 14.667 11 29 21 43s20.833 26.167 32.5 36.5s23.334 18.666 35.001 24.999s21.5 9.5 29.5 9.5c9.33301 0 16 -3.33301 20 -10s6 -14.667 6 -24c0 -26.667 -3.33301 -51.334 -10 -74.001l-83 -306h148l79 294c2.66699 10 8.16699 21.833 16.5 35.5
s18.333 26.667 30 39s24.167 22.833 37.5 31.5s26.333 13 39 13c14.667 0 22 -11.667 22 -35z" />
    <glyph glyph-name="n" unicode="n" horiz-adv-x="572" 
d="M579 151c-4 0 -7.66406 -2.66699 -10.9971 -8c-18.667 -32 -34.334 -55.167 -47.001 -69.5s-23 -21.5 -31 -21.5c-10.667 0 -16 8.66699 -16 26c0 4 0.666992 9 2 15s3.66602 15.667 6.99902 29l43 158c3.33301 11.333 5.5 21.333 6.5 30s1.5 15.667 1.5 21
c0 30 -9.5 56 -28.5 78s-46.167 33 -81.5 33c-36.667 0 -66.834 -7 -90.501 -21s-44.167 -31.333 -61.5 -52l24 82l-214 -33l-5 -17l57 11l-110 -412h148l81 299c4.66699 17.333 12 33 22 47s20.667 25.833 32 35.5s22.5 17.167 33.5 22.5s20.167 8 27.5 8
c10.667 0 18 -3.83301 22 -11.5s6 -17.167 6 -28.5c0 -12.667 -3.33301 -32 -10 -58l-48 -179c-5.33301 -20 -8 -37.667 -8 -53c0 -26.667 6.66699 -47.834 20 -63.501s33 -23.5 59 -23.5c40.667 0 75.5 13.333 104.5 40s52.167 60.334 69.5 101.001c1.33301 4 2 7 2 9
c0 4 -2 6 -6 6z" />
    <glyph glyph-name="o" unicode="o" horiz-adv-x="512" 
d="M56 175c0 -26.667 3.83301 -51.3301 11.5 -73.9971s19.5 -42.334 35.5 -59.001s36 -29.834 60 -39.501s52.333 -14.5 85 -14.5c38 0 73.333 6.5 106 19.5s61 31 85 54s42.833 50.167 56.5 81.5s20.5 65.666 20.5 102.999c0 59.333 -17.5 106 -52.5 140
s-84.167 51 -147.5 51c-34 0 -66.667 -6.83301 -98 -20.5s-59 -32.167 -83 -55.5s-43.167 -51 -57.5 -83s-21.5 -66.333 -21.5 -103zM385 361.004c0 -6.66699 -0.666992 -14.168 -2 -22.501s-3.83301 -20.666 -7.5 -36.999s-9 -38 -16 -65l-28.5 -105.5
c-4 -14.667 -8.33301 -29.5 -13 -44.5s-10.5 -28.5 -17.5 -40.5s-15.167 -21.833 -24.5 -29.5s-21 -11.5 -35 -11.5c-21.333 0 -36 6.83301 -44 20.5s-12 29.5 -12 47.5c0 6 0.5 12.667 1.5 20s3.16699 18.166 6.5 32.499l14 58.5l25 98c4.66699 18 9.66699 35.167 15 51.5
s12 30.833 20 43.5s17.333 22.834 28 30.501s24 11.5 40 11.5c19.333 0 32.5 -5.5 39.5 -16.5s10.5 -24.833 10.5 -41.5z" />
    <glyph glyph-name="p" unicode="p" horiz-adv-x="569" 
d="M113 430l-8.00098 -16.0029l57 9l-184 -676h-55l-5 -16h276l4 16h-65l80 300c5.33301 -14 14.166 -26.333 26.499 -37s32.5 -16 60.5 -16c42.667 0 80.834 8.83301 114.501 26.5s62.167 40.334 85.5 68.001s41 58.334 53 92.001s18 66.5 18 98.5c0 22 -3 42.833 -9 62.5
s-15 36.667 -27 51s-27.167 25.833 -45.5 34.5s-39.833 13 -64.5 13c-29.333 0 -53.666 -6.66699 -72.999 -20s-36.333 -27.666 -51 -42.999l23 85zM232.999 123.997l49.998 188.001c2 6.66699 6.66699 15.667 14 27s16.5 22.333 27.5 33s23 19.834 36 27.501
s26.167 11.5 39.5 11.5c19.333 0 29 -13 29 -39c0 -9.33301 -2.16699 -23.833 -6.5 -43.5s-9.66602 -41.667 -15.999 -66l-20 -75.5l-19.5 -71c-9.33301 -36 -19.666 -61.333 -30.999 -76s-26 -22 -44 -22c-19.333 0 -34.833 6.83301 -46.5 20.5s-17.5 31.5 -17.5 53.5
c0 3.33301 0.166992 7.16602 0.5 11.499s1.83301 11.166 4.5 20.499z" />
    <glyph glyph-name="q" unicode="q" horiz-adv-x="533" 
d="M439 -254l-54.002 0.000976562l184 684h-151l-16 -53c-6.66699 15.333 -17.667 29.666 -33 42.999s-38.666 20 -69.999 20c-39.333 0 -74.5 -8.66699 -105.5 -26s-57.167 -39.833 -78.5 -67.5s-37.666 -58.167 -48.999 -91.5s-17 -66 -17 -98c0 -22 2.83301 -43 8.5 -63
s14.5 -37.5 26.5 -52.5s27.333 -27 46 -36s40.667 -13.5 66 -13.5c31.333 0 56.333 6 75 18s33.667 24.667 45 38l-82 -302h-64l-4 -16h268zM244.998 295.001l13.001 39.999c4.66699 14 10 26.833 16 38.5s13.167 21.167 21.5 28.5s18.166 11 29.499 11
c10 0 19.167 -2.66699 27.5 -8s15.166 -12 20.499 -20s9.5 -16.333 12.5 -25s4.5 -16 4.5 -22c0 -1.33301 -0.333008 -3 -1 -5s-2 -6.66699 -4 -14l-50 -200c-2 -9.33301 -6.66699 -19.833 -14 -31.5s-16 -22.667 -26 -33s-21 -19.166 -33 -26.499s-24 -11 -36 -11
c-12.667 0 -21.5 4.5 -26.5 13.5s-7.5 20.833 -7.5 35.5c0 11.333 1.83301 27 5.5 47s8.33398 41 14.001 63l17.5 65c6 21.333 11.333 39.333 16 54z" />
    <glyph glyph-name="r" unicode="r" horiz-adv-x="443" 
d="M298 379l20.001 75l-212 -35l-4 -16l55 9l-112 -412h151l86 317c7.33301 27.333 21.333 49.5 42 66.5s42.667 27.833 66 32.5c-11.333 -3.33301 -20.5 -10.333 -27.5 -21s-10.5 -23 -10.5 -37c0 -18 6.5 -33.833 19.5 -47.5s30.833 -20.5 53.5 -20.5
c19.333 0 36.833 5.83301 52.5 17.5s23.5 29.167 23.5 52.5c0 24 -7.33301 42.5 -22 55.5s-33 19.5 -55 19.5c-30 0 -55.333 -5.66699 -76 -17s-37.334 -24.333 -50.001 -39z" />
    <glyph glyph-name="s" unicode="s" horiz-adv-x="415" 
d="M442 353c0 10.667 -3.16309 21.168 -9.49609 31.501s-16 19.666 -29 27.999s-29.333 15 -49 20s-42.834 7.5 -69.501 7.5c-25.333 0 -49.166 -3.16699 -71.499 -9.5s-41.666 -15.5 -57.999 -27.5s-29.333 -26.833 -39 -44.5s-14.5 -37.5 -14.5 -59.5
c0 -20.667 6.66699 -40.667 20 -60s35 -37.333 65 -54c29.333 -16 50.166 -33.167 62.499 -51.5s18.5 -36.166 18.5 -53.499c0 -26.667 -7.83301 -46 -23.5 -58s-36.167 -18 -61.5 -18c-16 0 -30.833 1.83301 -44.5 5.5s-25.5 7.83398 -35.5 12.501s-18 9.5 -24 14.5
s-9 9.16699 -9 12.5c0 2 2 3.66699 6 5c14 2 26.167 7.5 36.5 16.5s15.5 20.5 15.5 34.5c0 17.333 -5.83301 30.666 -17.5 39.999s-24.834 14 -39.501 14c-17.333 0 -31 -5.83301 -41 -17.5s-15 -25.5 -15 -41.5c0 -12.667 3.66699 -25.667 11 -39
s18.166 -25.333 32.499 -36s32.166 -19.5 53.499 -26.5s45.666 -10.5 72.999 -10.5c34.667 0 65 4.16699 91 12.5s47.667 19.666 65 33.999s30.333 31 39 50s13 39.5 13 61.5c0 62.667 -32 110.667 -96 144c-30 15.333 -50.667 29.333 -62 42s-17 26 -17 40
c0 18.667 7.66699 32 23 40s31.333 12 48 12c28.667 0 51.167 -3.33301 67.5 -10s24.5 -12.667 24.5 -18c0 -2.66699 -2.33301 -5 -7 -7c-10 -4 -17.167 -9.5 -21.5 -16.5s-6.5 -14.5 -6.5 -22.5c0 -14.667 4.83301 -25.834 14.5 -33.501s21.167 -11.5 34.5 -11.5
c15.333 0 27 4.83301 35 14.5s12 20.834 12 33.501z" />
    <glyph glyph-name="t" unicode="t" horiz-adv-x="353" 
d="M341 598c-12.667 -25.333 -25.6689 -46.998 -39.002 -64.998s-27.333 -33.333 -42 -46s-30.334 -23.5 -47.001 -32.5s-35 -17.167 -55 -24.5l-10 -38h-72l-4 -16h72l-54 -201c-7.33301 -27.333 -9.66602 -52.333 -6.99902 -75s9.66699 -42.334 21 -59.001
s26.833 -29.667 46.5 -39s42.5 -14 68.5 -14c34 0 63.5 9 88.5 27s43.167 40 54.5 66c1.33301 3.33301 1.5 6.16602 0.5 8.49902s-2.5 4 -4.5 5s-4.16699 1 -6.5 0s-4.16602 -2.83301 -5.49902 -5.5c-12 -23.333 -25.167 -40.333 -39.5 -51s-28.166 -16 -41.499 -16
c-18.667 0 -32.167 6.5 -40.5 19.5s-8.5 34.5 -0.5 64.5l70 270h86l4 16h-86l56 206h-13z" />
    <glyph glyph-name="u" unicode="u" horiz-adv-x="598" 
d="M101 202c-8.66699 -32.667 -13.0029 -62.333 -13.0029 -89s3.66699 -48.334 11 -65.001s16.333 -29.5 27 -38.5s22.334 -15 35.001 -18s24.334 -4.5 35.001 -4.5c24.667 0 46 3 64 9s33.333 13.667 46 23s23.167 19.666 31.5 30.999s15.5 22.333 21.5 33
c0 -12 1.16699 -23.5 3.5 -34.5s6.66602 -21 12.999 -30s15 -16.167 26 -21.5s24.833 -8 41.5 -8c24 0 44.833 3.16699 62.5 9.5s33.667 15.333 48 27s27.333 26 39 43s23.167 36.5 34.5 58.5c0.666992 1.33301 1 3.33301 1 6c0 6.66699 -2.66699 10 -8 10
c-4 0 -7.33301 -3.33301 -10 -10c-19.333 -37.333 -37.166 -63.166 -53.499 -77.499s-30.166 -21.5 -41.499 -21.5c-6.66699 0 -12 2.5 -16 7.5s-6 11.167 -6 18.5c0 2 0.166992 4 0.5 6s0.833008 4.33301 1.5 7l95 357h-149l-75 -279
c-6.66699 -25.333 -15.167 -46.166 -25.5 -62.499s-21 -29.5 -32 -39.5s-21.5 -17 -31.5 -21s-18 -6 -24 -6c-8.66699 0 -15.5 3.5 -20.5 10.5s-7.5 19.167 -7.5 36.5c0 10 1 22.167 3 36.5s5.66699 30.833 11 49.5l76 291l-209 -26l-4 -16l56 7z" />
    <glyph glyph-name="v" unicode="v" horiz-adv-x="586" 
d="M59 284c4.66699 0 8.67285 3.66504 12.0059 10.998c6 12 12.833 24.5 20.5 37.5s16 24.833 25 35.5s18.167 19.5 27.5 26.5s18.333 10.5 27 10.5c16.667 0 25 -9.33301 25 -28c0 -17.333 -2.16699 -34 -6.5 -50s-10.833 -35.333 -19.5 -58
c-10.667 -28.667 -19.667 -55.167 -27 -79.5s-11 -51.5 -11 -81.5c0 -20.667 4 -38.5 12 -53.5s18.667 -27.5 32 -37.5s28.666 -17.333 45.999 -22s35.666 -7 54.999 -7c27.333 0 54.5 6.83301 81.5 20.5s53 31.334 78 53.001s48.333 46 70 73s40.5 54 56.5 81
s28.5 52.667 37.5 77s13.5 44.5 13.5 60.5c0 29.333 -8 52.333 -24 69s-38 25 -66 25c-26 0 -47.667 -8 -65 -24s-26 -36.667 -26 -62c0 -24.667 8.5 -44.667 25.5 -60s37.167 -23 60.5 -23c16.667 0 32 3.66699 46 11c1.33301 0.666992 2.66602 1 3.99902 1
c2 0 3 -1.33301 3 -4c0 -6 -4 -16.833 -12 -32.5s-18.833 -33.667 -32.5 -54s-29.5 -41.5 -47.5 -63.5s-37 -42.167 -57 -60.5s-40.5 -33.333 -61.5 -45s-41.167 -17.5 -60.5 -17.5c-13.333 0 -22.833 4.16699 -28.5 12.5s-8.5 19.5 -8.5 33.5c0 18 3.16699 39.333 9.5 64
s13.833 50.334 22.5 77.001l23 68.5c8 23.667 12 43.5 12 59.5c0 36 -9.5 62.5 -28.5 79.5s-49.5 25.5 -91.5 25.5c-22.667 0 -42.334 -4.5 -59.001 -13.5s-31.334 -20 -44.001 -33s-23.334 -27.333 -32.001 -43l-23 -42.5c-1.33301 -2.66699 -2 -5.66699 -2 -9
c0 -5.33301 2.66699 -8 8 -8z" />
    <glyph glyph-name="w" unicode="w" horiz-adv-x="865" 
d="M840 286c0 -12.667 -3.98828 -27.999 -11.9883 -45.999s-18.667 -37 -32 -57s-28.833 -40 -46.5 -60s-35.834 -37.833 -54.501 -53.5s-37.5 -28.5 -56.5 -38.5s-36.5 -15 -52.5 -15c-12.667 0 -23 4.66699 -31 14s-12 24 -12 44c0 18 3.33301 38.333 10 61l88 295h-131
l-82 -256c-6 -18.667 -14.167 -37.5 -24.5 -56.5s-21.333 -36.333 -33 -52s-23.5 -28.334 -35.5 -38.001s-22.667 -14.5 -32 -14.5c-14.667 0 -24.834 4.16699 -30.501 12.5s-8.5 19.5 -8.5 33.5c0 18 3.16699 39.333 9.5 64s13.833 50.334 22.5 77.001l23 68.5
c8 23.667 12 43.5 12 59.5c0 36 -9.5 62.5 -28.5 79.5s-49.5 25.5 -91.5 25.5c-22.667 0 -42.334 -4.5 -59.001 -13.5s-31.334 -20 -44.001 -33s-23.334 -27.333 -32.001 -43l-23 -42.5c-1.33301 -2.66699 -2 -5.66699 -2 -9c0 -5.33301 2.66699 -8 8 -8
c4.66699 0 8.66699 3.66699 12 11c6 12 12.833 24.5 20.5 37.5s16 24.833 25 35.5s18.167 19.5 27.5 26.5s18.333 10.5 27 10.5c16.667 0 25 -9.33301 25 -28c0 -17.333 -2.16699 -34 -6.5 -50s-10.833 -35.333 -19.5 -58c-10.667 -28.667 -19.667 -55.167 -27 -79.5
s-11 -51.5 -11 -81.5c0 -20.667 4 -38.5 12 -53.5s18.667 -27.5 32 -37.5s28.666 -17.333 45.999 -22s35.666 -7 54.999 -7c10 0 20.667 1.5 32 4.5s22.666 8.5 33.999 16.5s23.166 18.833 35.499 32.5s24.5 31.167 36.5 52.5c0 -37.333 10.667 -65 32 -83
s52.666 -27 93.999 -27c32.667 0 63.667 6.83301 93 20.5s56.666 31.5 81.999 53.5s48.166 46.667 68.499 74s37.833 54.666 52.5 81.999s25.834 53.333 33.501 78s11.5 45 11.5 61c0 29.333 -8 52.333 -24 69s-38 25 -66 25c-26 0 -47.667 -8 -65 -24s-26 -36.667 -26 -62
c0 -24.667 8.5 -44.667 25.5 -60s37.167 -23 60.5 -23c16.667 0 32 3.66699 46 11c1.33301 0.666992 2.66602 1 3.99902 1c2 0 3 -1.33301 3 -4z" />
    <glyph glyph-name="x" unicode="x" horiz-adv-x="558" 
d="M155 405c11.333 0 22.165 -9.33203 32.498 -27.999s19.666 -41.334 27.999 -68.001s15.833 -54.5 22.5 -83.5s12 -53.833 16 -74.5c-9.33301 -18.667 -19.166 -36.334 -29.499 -53.001s-21 -31.5 -32 -44.5s-21.833 -23.333 -32.5 -31s-21 -11.5 -31 -11.5
c4.66699 3.33301 8.66699 7.83301 12 13.5s5 12.834 5 21.501c0 15.333 -5 29.166 -15 41.499s-24.667 18.5 -44 18.5c-13.333 0 -25.833 -4.5 -37.5 -13.5s-17.5 -22.5 -17.5 -40.5c0 -21.333 6.5 -36.833 19.5 -46.5s30.833 -14.5 53.5 -14.5
c19.333 0 36.5 3.83301 51.5 11.5s28.667 17.834 41 30.501s23.5 27.167 33.5 43.5s19.667 33.166 29 50.499c10 -44 28.333 -77.833 55 -101.5s61.334 -35.5 104.001 -35.5c24 0 44.333 3 61 9s30.667 14.333 42 25s20.5 23.5 27.5 38.5s13.167 31.167 18.5 48.5
c0 0.666992 0.166992 1.33398 0.5 2.00098s0.5 1.33398 0.5 2.00098c0 5.33301 -2.66699 8 -8 8c-4.66699 0 -7.33398 -2.33301 -8.00098 -7c-2 -8.66699 -5.16699 -17.834 -9.5 -27.501s-9.5 -18.5 -15.5 -26.5s-12.667 -14.667 -20 -20s-15 -8 -23 -8
c-15.333 0 -27.666 7.5 -36.999 22.5s-17.666 32.833 -24.999 53.5c-5.33301 15.333 -10.666 31.833 -15.999 49.5s-10.166 35.5 -14.499 53.5l-12.5 52c-4 16.667 -7.33301 31.667 -10 45c4.66699 10 11.5 21.167 20.5 33.5s19 24 30 35s22.5 20.333 34.5 28
s23 11.5 33 11.5c1.33301 0 2.5 -0.166992 3.5 -0.5s2.16699 -0.5 3.5 -0.5c-4.66699 -5.33301 -8.66699 -11.166 -12 -17.499s-5 -14.166 -5 -23.499c0 -10.667 1.83301 -19.667 5.5 -27s8.5 -13.166 14.5 -17.499s12.333 -7.5 19 -9.5s13 -3 19 -3
c13.333 0 25.833 4.33301 37.5 13s17.5 21.667 17.5 39c0 23.333 -7.33301 39.666 -22 48.999s-35 14 -61 14c-16.667 0 -31.834 -3 -45.501 -9s-26.334 -13.833 -38.001 -23.5s-22.334 -20.667 -32.001 -33s-18.5 -24.833 -26.5 -37.5c-7.33301 22 -15.333 40 -24 54
s-19.167 25 -31.5 33s-27 13.5 -44 16.5s-37.167 4.5 -60.5 4.5c-21.333 0 -39.666 -2.5 -54.999 -7.5s-28.666 -11.833 -39.999 -20.5s-21.5 -18.834 -30.5 -30.501s-17.833 -23.834 -26.5 -36.501c-2 -3.33301 -3 -6.33301 -3 -9c0 -4 1.66699 -6 5 -6c4 0 8 2.66699 12 8
c15.333 22.667 29.666 39.667 42.999 51s28 17 44 17z" />
    <glyph glyph-name="y" unicode="y" horiz-adv-x="597" 
d="M185 303l77.0059 -365.001c-5.33301 -12 -15 -28.167 -29 -48.5s-30 -40.333 -48 -60s-36.833 -36.667 -56.5 -51s-37.5 -21.5 -53.5 -21.5c9.33301 4 18.333 11 27 21s13 22.667 13 38c0 18 -5.83301 33.167 -17.5 45.5s-27.5 18.5 -47.5 18.5
c-12 0 -22.333 -2.16699 -31 -6.5s-15.834 -9.83301 -21.501 -16.5s-9.83398 -14.334 -12.501 -23.001s-4 -17 -4 -25c0 -21.333 7.83301 -39.166 23.5 -53.499s35.167 -21.5 58.5 -21.5c26 0 51.667 8.16699 77 24.5s50.166 39 74.499 68s48.166 63 71.499 102
s45.666 81.167 66.999 126.5c14 28.667 28.167 60 42.5 94l41 95c13 29.333 24.5 53.666 34.5 72.999s17.333 29 22 29c1.33301 0 2.66602 -1 3.99902 -3c5.33301 -14.667 13.5 -25.334 24.5 -32.001s22.5 -10 34.5 -10c16.667 0 31.834 5.83301 45.501 17.5
s20.5 27.167 20.5 46.5c0 21.333 -5.5 37.833 -16.5 49.5s-26.167 17.5 -45.5 17.5c-18 0 -33 -4.33301 -45 -13c-10 -7.33301 -21 -20.666 -33 -39.999s-24.167 -42 -36.5 -68s-24.666 -53.5 -36.999 -82.5l-34.5 -82.5l-50 223c-6 26.667 -18.167 45.334 -36.5 56.001
s-42.5 16 -72.5 16c-22.667 0 -43.667 -4.83301 -63 -14.5s-37 -21.5 -53 -35.5s-30.333 -29.167 -43 -45.5l-34 -44.5c-2 -2 -3 -4.33301 -3 -7c0 -6 2.66699 -9 8 -9c3.33301 0 6 2 8 6c6.66699 10 14.667 20.333 24 31s18.666 20.5 27.999 29.5s18.666 16.5 27.999 22.5
s17.333 9 24 9c7.33301 0 13.333 -1.33301 18 -4s8.5 -7.16699 11.5 -13.5s5.66699 -14.666 8 -24.999z" />
    <glyph glyph-name="z" unicode="z" horiz-adv-x="505" 
d="M70 276c2.66699 0 5.00293 1.99805 7.00293 5.99805c6.66699 13.333 12 23.666 16 30.999l12 22c14.667 -3.33301 38.667 -5 72 -5c18.667 0 39.334 0.666992 62.001 2s45.667 4.16602 69 8.49902s46.166 10.5 68.499 18.5s43.166 18.667 62.499 32
c-15.333 -17.333 -37.833 -35 -67.5 -53l-96.5 -58c-34 -20 -67.5 -41.333 -100.5 -64s-61.167 -46.667 -84.5 -72c-9.33301 -10 -18.333 -20.667 -27 -32s-16.667 -22.5 -24 -33.5s-13.166 -21.833 -17.499 -32.5s-6.5 -20 -6.5 -28c0 -6 1.16699 -11.167 3.5 -15.5
s6.16602 -6.5 11.499 -6.5c9.33301 0 16.666 4.83301 21.999 14.5s9.66602 20.5 12.999 32.5c21.333 0 40 -3 56 -9l54 -20c16.667 -5.33301 35.5 -10 56.5 -14s47.167 -6 78.5 -6c34 0 63.5 6 88.5 18s46 27.5 63 46.5s29.667 40 38 63s12.5 45.5 12.5 67.5
c0 22.667 -5 38.834 -15 48.501s-23.667 14.5 -41 14.5s-30.333 -5.5 -39 -16.5s-13 -24.167 -13 -39.5s5.33301 -27.166 16 -35.499s23.334 -12.5 38.001 -12.5c10 0 20.667 3.66699 32 11c-0.666992 -4 -1.5 -8.66699 -2.5 -14s-2.5 -10.333 -4.5 -15
s-4.5 -8.66699 -7.5 -12s-6.5 -5 -10.5 -5s-7.66699 1.33301 -11 4c-22.667 17.333 -49.334 29 -80.001 35s-62 9 -94 9c-32.667 0 -63.5 -2.16699 -92.5 -6.5s-52.833 -8.16602 -71.5 -11.499c23.333 23.333 49.666 44.5 78.999 63.5l89 55.5
c34.667 20.667 68.167 41.667 100.5 63s60.833 47 85.5 77c17.333 12 30 23.5 38 34.5s12 18.167 12 21.5c0 5.33301 -2 8 -6 8s-8 -1 -12 -3c-8 -4.66699 -15 -10.667 -21 -18s-10.667 -13.666 -14 -18.999c-26 1.33301 -55.333 3 -88 5s-65.167 4.33301 -97.5 7
s-62.5 5.5 -90.5 8.5s-50.333 6.16699 -67 9.5c-2.66699 -10.667 -6.5 -24 -11.5 -40l-15.5 -49c-5.33301 -16.667 -10.666 -32.5 -15.999 -47.5s-10 -26.833 -14 -35.5c-0.666992 -0.666992 -1 -2 -1 -4c0 -2.66699 1.33301 -4 4 -4z" />
    <glyph glyph-name="braceleft" unicode="{" horiz-adv-x="333" 
d="M141 310l-0.00390625 -9c0 -2 -0.666992 -4.66699 -2 -8l-47 -181c-3.33301 -12.667 -5.66602 -24.5 -6.99902 -35.5s-2 -21.5 -2 -31.5c0 -23.333 3.66699 -43.166 11 -59.499s17 -29.833 29 -40.5s25.667 -18.5 41 -23.5s31 -7.5 47 -7.5c20 0 34.167 0.5 42.5 1.5
s12.5 3.83301 12.5 8.5c0 4 -2.5 6.33301 -7.5 7s-12.167 1 -21.5 1c-14 0 -25.167 4.83301 -33.5 14.5s-12.5 24.834 -12.5 45.501c0 13.333 2 29.666 6 48.999l44 191c2.66699 11.333 4.33398 21.5 5.00098 30.5s1 15.833 1 20.5c0 18 -6.5 32.833 -19.5 44.5
s-30.5 21.167 -52.5 28.5c20 4.66699 37.167 10.167 51.5 16.5s26.5 13.833 36.5 22.5s18.333 19.167 25 31.5s12.667 27.5 18 45.5l36 120c13.333 44 28 75.333 44 94s34.333 28 55 28c13.333 0 23.5 0.333008 30.5 1s10.5 3 10.5 7s-4.16699 6.33301 -12.5 7
s-21.833 1 -40.5 1c-23.333 0 -46.166 -3 -68.499 -9s-43 -14.833 -62 -26.5s-35.5 -26.334 -49.5 -44.001s-24 -38.167 -30 -61.5l-42 -154c-6.66699 -24 -16.167 -41.5 -28.5 -52.5s-29.833 -19.833 -52.5 -26.5c12.667 -3.33301 23.334 -8.5 32.001 -15.5
s13 -17.167 13 -30.5z" />
    <glyph glyph-name="bar" unicode="|" horiz-adv-x="194" 
d="M228 699l-191 -714h53l192 714h-54z" />
    <glyph glyph-name="braceright" unicode="}" horiz-adv-x="333" 
d="M332 394l0.00390625 7.99902c0 2.66699 0.666992 5.66699 2 9l32 121c3.33301 12.667 5.66602 24.5 6.99902 35.5s2 21.5 2 31.5c0 22.667 -3.66699 42.334 -11 59.001s-17 30.334 -29 41.001s-25.667 18.5 -41 23.5s-31 7.5 -47 7.5c-20 0 -34.167 -0.5 -42.5 -1.5
s-12.5 -3.83301 -12.5 -8.5c0 -4 2.5 -6.33301 7.5 -7s12.167 -1 21.5 -1c14 0 25.167 -4.83301 33.5 -14.5s12.5 -24.834 12.5 -45.501c0 -14 -2 -30.333 -6 -49l-29 -131c-2.66699 -11.333 -4.33398 -21.5 -5.00098 -30.5s-1 -15.833 -1 -20.5
c0 -18 6.5 -32.833 19.5 -44.5s30.5 -21.167 52.5 -28.5c-20 -5.33301 -37.167 -11 -51.5 -17s-26.5 -13.333 -36.5 -22s-18.5 -19.167 -25.5 -31.5s-12.833 -27.5 -17.5 -45.5l-51 -180c-12.667 -44 -27.167 -75.333 -43.5 -94s-34.833 -28 -55.5 -28
c-13.333 0 -23.5 -0.333008 -30.5 -1s-10.5 -3 -10.5 -7s4.16699 -6.33301 12.5 -7s21.833 -1 40.5 -1c23.333 0 46.166 3 68.499 9s43 14.833 62 26.5s35.5 26.334 49.5 44.001s24 38.167 30 61.5l57 214c3.33301 12 7.16602 22.167 11.499 30.5s9.83301 15.5 16.5 21.5
s14.334 11.167 23.001 15.5s18.667 8.16602 30 11.499c-12.667 3.33301 -23.334 8.5 -32.001 15.5s-13 17.167 -13 30.5z" />
    <glyph glyph-name="asciitilde" unicode="~" horiz-adv-x="486" 
d="M304 409c-16 7.33301 -32.501 13.333 -49.501 18s-34.167 7 -51.5 7c-24 0 -44.167 -3.5 -60.5 -10.5s-29.5 -15.333 -39.5 -25s-17.167 -19.5 -21.5 -29.5s-6.5 -18 -6.5 -24c0 -8.66699 3.33301 -13 10 -13s11.667 5 15 15c3.33301 12 10 21.667 20 29s21.667 11 35 11
c11.333 0 21.833 -3 31.5 -9s21.167 -12 34.5 -18c18.667 -8.66699 36.167 -14.667 52.5 -18s36.833 -5 61.5 -5c18 0 34 2.83301 48 8.5s25.833 12.667 35.5 21s16.834 17.5 21.501 27.5s7 19.333 7 28c0 7.33301 -3 11 -9 11c-8 0 -13.667 -5.33301 -17 -16
c-2 -8 -5.83301 -15.167 -11.5 -21.5s-17.167 -9.5 -34.5 -9.5c-12 0 -24 2.5 -36 7.5s-23.667 10.167 -35 15.5z" />
    <glyph glyph-name="exclamdown" unicode="&#xa1;" horiz-adv-x="263" 
d="M79 474c0 -18.667 6.33301 -35.334 19 -50.001s32 -22 58 -22c14.667 0 27.5 2.5 38.5 7.5s20.167 11.333 27.5 19s12.833 16.5 16.5 26.5s5.5 20 5.5 30c0 18.667 -6.33301 35.334 -19 50.001s-32 22 -58 22c-14.667 0 -27.5 -2.5 -38.5 -7.5s-20.167 -11.333 -27.5 -19
s-12.833 -16.5 -16.5 -26.5s-5.5 -20 -5.5 -30zM24 -138c16.667 0 30.332 4.33203 40.999 12.999c12.667 10 22.167 25.167 28.5 45.5s11 43.333 14 69s5.16699 52 6.5 79s3 51.833 5 74.5c2 25.333 5.5 55 10.5 89s10.833 65.667 17.5 95l-32 7
c-4 -14 -8.83301 -28.667 -14.5 -44l-17.5 -46c-6 -15.333 -12.167 -30.166 -18.5 -44.499s-12.166 -26.833 -17.499 -37.5l-30 -57.5c-10.667 -20.333 -20.667 -40.5 -30 -60.5s-17 -39.667 -23 -59s-9 -37 -9 -53c0 -14.667 2.5 -26.667 7.5 -36s11 -16.5 18 -21.5
s14.5 -8.33301 22.5 -10s15 -2.5 21 -2.5z" />
    <glyph glyph-name="cent" unicode="&#xa2;" horiz-adv-x="422" 
d="M234 98l97.001 363.997c14.667 0 28.167 -2.33301 40.5 -7s18.5 -9 18.5 -13c0 -3.33301 -3.33301 -6 -10 -8c-8 -2 -14.667 -6.66699 -20 -14s-8 -15.666 -8 -24.999s3.33301 -18 10 -26s17 -12 31 -12c13.333 0 23.833 4.66699 31.5 14s11.5 20.666 11.5 33.999
c0 10.667 -3.16699 20.334 -9.5 29.001s-14.333 16 -24 22s-20.5 10.667 -32.5 14s-23.667 5.33301 -35 6l17 64h-21l-17 -64c-40.667 -1.33301 -76.334 -9.5 -107.001 -24.5s-56.5 -34 -77.5 -57s-36.833 -48.5 -47.5 -76.5s-16 -55.333 -16 -82c0 -20 2.83301 -39 8.5 -57
s14.5 -34 26.5 -48s27 -25.333 45 -34s39 -13.667 63 -15l-21 -76h22l20 77c21.333 0.666992 41 4.33398 59 11.001s34.167 15.334 48.5 26.001s27 22.834 38 36.501s20.5 27.5 28.5 41.5c1.33301 2.66699 2 5 2 7c0 4.66699 -2.33301 7 -7 7
c-3.33301 0 -6.33301 -2.33301 -9 -7c-14 -27.333 -34.5 -51.333 -61.5 -72s-58.5 -32.334 -94.5 -35.001zM164.001 168.997c0 10.667 1.66699 24.833 5 42.5s7.33301 35.5 12 53.5s9.33398 35 14.001 51s8.33398 28 11.001 36c11.333 36 26.166 62.667 44.499 80
s38.166 27.333 59.499 30l-97 -364c-17.333 2 -29.833 9.5 -37.5 22.5s-11.5 29.167 -11.5 48.5z" />
    <glyph glyph-name="sterling" unicode="&#xa3;" horiz-adv-x="559" 
d="M614 576c0 12.667 -2.33105 25.332 -6.99805 37.999s-13.5 24.334 -26.5 35.001s-30.833 19.334 -53.5 26.001s-52 10 -88 10c-60 0 -109 -7 -147 -21s-68 -31.667 -90 -53s-37.167 -44.666 -45.5 -69.999s-12.5 -49.333 -12.5 -72c0 -19.333 2.16699 -38 6.5 -56
s9.5 -35.667 15.5 -53h-48l-5 -18h58l11.5 -30l13.5 -35l14 -36l13 -33c-7.33301 2 -15 3 -23 3c-20 0 -40.333 -4.33301 -61 -13s-39.5 -20.334 -56.5 -35.001s-31 -31.167 -42 -49.5s-16.5 -36.833 -16.5 -55.5c0 -20 6 -35.5 18 -46.5s30.333 -16.5 55 -16.5
c16 0 29.833 1.83301 41.5 5.5s21.834 8.16699 30.501 13.5s16 11.166 22 17.499l17 17.5c15.333 -22 33.833 -37.5 55.5 -46.5s48.5 -13.5 80.5 -13.5c27.333 0 52.166 8.5 74.499 25.5s42.166 37.5 59.499 61.5s32.333 48.667 45 74s23.667 46.333 33 63
c2.66699 5.33301 4 10 4 14s-1.66699 6 -5 6c-4.66699 0 -8.33398 -3 -11.001 -9c-11.333 -20 -21.333 -36.167 -30 -48.5s-18 -22 -28 -29s-21.333 -11.667 -34 -14s-28.667 -3.5 -48 -3.5c-16 0 -31 2.83301 -45 8.5s-27.333 12.167 -40 19.5l-34.5 22
c-11 7.33301 -21.167 12.666 -30.5 15.999l39 147h78l5 18h-78l42 167c6.66699 26.667 15.667 48.667 27 66s23.5 31 36.5 41s26.5 16.833 40.5 20.5s27 5.5 39 5.5c28.667 0 52 -5.66699 70 -17s27 -26.666 27 -45.999c-5.33301 3.33301 -11 6.5 -17 9.5
s-13.333 4.5 -22 4.5c-12.667 0 -25.167 -4.16699 -37.5 -12.5s-18.5 -22.833 -18.5 -43.5c0 -19.333 6.33301 -34 19 -44s26.667 -15 42 -15c23.333 0 40.5 7.5 51.5 22.5s16.5 34.167 16.5 57.5zM99.002 13.998c-20 0 -33.832 4.33105 -41.499 12.998s-11.5 19 -11.5 31
c0 8.66699 1.66699 17.334 5 26.001s8 16.334 14 23.001s13.333 12.167 22 16.5s18 6.5 28 6.5c16 0 30.333 -5.16699 43 -15.5s24.667 -25.5 36 -45.5c-11.333 -15.333 -24.833 -28.333 -40.5 -39s-33.834 -16 -54.501 -16z" />
    <glyph glyph-name="yen" unicode="&#xa5;" horiz-adv-x="671" 
d="M665 595l-196.999 -262l-78 323h54l4 16h-277l-4 -16h53l98 -359h-96l-5 -16h97l-11 -41h-97l-5 -17h97l-55 -207h-54l-4 -16h269l4 16h-54l55 207h97l5 17h-96l10 41h97l4 16h-96l6 22l206 276c16 22 32.167 37.667 48.5 47s36.166 14 59.499 14l4 16h-159l-4 -16
c18.667 0 30.5 -2.33301 35.5 -7s7.5 -10.667 7.5 -18c0 -9.33301 -6.33301 -21.333 -19 -36z" />
    <glyph glyph-name="brokenbar" unicode="&#xa6;" horiz-adv-x="148" 
d="M100 270h-54v-270h54v270zM46 377h54v297h-54v-297z" />
    <glyph glyph-name="section" unicode="&#xa7;" horiz-adv-x="474" 
d="M494 617c0 12.667 -3.32812 23.8379 -9.99512 33.5049s-15.834 17.834 -27.501 24.501s-24.834 11.667 -39.501 15s-30 5 -46 5c-34 0 -63.667 -4.5 -89 -13.5s-46.333 -21.333 -63 -37s-29.167 -33.834 -37.5 -54.501s-12.5 -42.667 -12.5 -66
c0 -21.333 5.66699 -41.833 17 -61.5s29.333 -33.834 54 -42.501c-34.667 -12 -63.667 -30.833 -87 -56.5s-35 -58.834 -35 -99.501c0 -28 7.5 -52.667 22.5 -74s44.167 -38 87.5 -50c36 -10 62 -22.833 78 -38.5s24 -36.5 24 -62.5c0 -28 -11.333 -50.833 -34 -68.5
s-55.334 -26.5 -98.001 -26.5c-20.667 0 -38.5 2.33301 -53.5 7s-27.333 10.167 -37 16.5s-16.834 13 -21.501 20s-7 12.833 -7 17.5c0 2 0.333008 3.33301 1 4s3.33398 1 8.00098 1c14 0 24.833 3.66699 32.5 11s11.5 15.666 11.5 24.999c0 23.333 -10.667 35 -32 35
c-14.667 0 -25.5 -5.33301 -32.5 -16s-10.5 -24 -10.5 -40c0 -26.667 12.333 -49.5 37 -68.5s58 -28.5 100 -28.5c68.667 0 120.167 16.5 154.5 49.5s51.5 76.5 51.5 130.5c0 24.667 -4.83301 47.5 -14.5 68.5s-26.5 36.5 -50.5 46.5c38 14 67.667 34.333 89 61
s32 60.334 32 101.001c0 34 -10 62.5 -30 85.5s-54.667 38.833 -104 47.5c-28.667 5.33301 -50.334 13.166 -65.001 23.499s-22 25.166 -22 44.499c0 29.333 11 52.333 33 69s55 25 99 25c17.333 0 32.166 -1.66699 44.499 -5s22.5 -7 30.5 -11s13.833 -8 17.5 -12
s5.5 -7 5.5 -9c0 -0.666992 -1 -1 -3 -1c-13.333 -0.666992 -23.333 -5.33398 -30 -14.001s-10 -17.667 -10 -27c0 -22 11.333 -33 34 -33c10.667 0 19.667 4 27 12s11 20.333 11 37zM314.005 231.004c-20 6 -38.668 12.167 -56.001 18.5s-32.333 13 -45 20
s-22.667 15 -30 24s-11 19.5 -11 31.5c0 21.333 8.33301 39 25 53s40.667 25.333 72 34c16 -1.33301 32.333 -4.5 49 -9.5s31.5 -11.5 44.5 -19.5s23.667 -17 32 -27s12.5 -20.667 12.5 -32c0 -23.333 -8.16699 -41.833 -24.5 -55.5s-39.166 -26.167 -68.499 -37.5z" />
    <glyph glyph-name="dieresis" unicode="&#xa8;" horiz-adv-x="438" 
d="M197 599c0 16.667 -5.50195 31.501 -16.502 44.501s-28.167 19.5 -51.5 19.5c-25.333 0 -44.666 -8 -57.999 -24s-20 -33 -20 -51c0 -16.667 5.33301 -31.334 16 -44.001s27.334 -19 50.001 -19c26.667 0 46.667 7.83301 60 23.5s20 32.5 20 50.5zM403.998 599.001
c0 16.667 -5.50195 31.501 -16.502 44.501s-28.167 19.5 -51.5 19.5c-25.333 0 -44.666 -8 -57.999 -24s-20 -33 -20 -51c0 -16.667 5.33301 -31.334 16 -44.001s27.334 -19 50.001 -19c26.667 0 46.667 7.83301 60 23.5s20 32.5 20 50.5z" />
    <glyph glyph-name="copyright" unicode="&#xa9;" horiz-adv-x="619" 
d="M324 387c2 12.667 6.33301 25.3301 13 37.9971s15.167 24 25.5 34s22.5 18 36.5 24s29.667 9 47 9c25.333 0 43.666 -3.16699 54.999 -9.5s21.333 -13.166 30 -20.499l12 33c-9.33301 6.66699 -20.833 13.334 -34.5 20.001s-33.834 10 -60.501 10
c-23.333 0 -44.166 -3.83301 -62.499 -11.5s-34.333 -18 -48 -31s-24.834 -27.667 -33.501 -44s-14.334 -33.166 -17.001 -50.499c-3.33301 -17.333 -3.5 -34.333 -0.5 -51s9 -31.5 18 -44.5s21.333 -23.5 37 -31.5s34.834 -12 57.501 -12c30 0 53 3.83301 69 11.5
s28.333 14.834 37 21.501l1 37c-4 -4 -8.66699 -8.16699 -14 -12.5s-11.666 -8.33301 -18.999 -12s-16.166 -6.83398 -26.499 -9.50098s-22.833 -4 -37.5 -4c-17.333 0 -32 3 -44 9s-21.5 14 -28.5 24s-11.5 21.333 -13.5 34s-1.66699 25.667 1 39zM697 371.996
c6.66699 38 5.66699 73.833 -3 107.5s-23.167 63 -43.5 88s-46.166 44.833 -77.499 59.5s-66 22 -104 22s-75.167 -7.33301 -111.5 -22s-69.333 -34.5 -99 -59.5s-54.667 -54.333 -75 -88s-33.833 -69.5 -40.5 -107.5s-5.66699 -73.833 3 -107.5s23.167 -63 43.5 -88
s46.166 -44.833 77.499 -59.5s66 -22 104 -22s75.167 7.33301 111.5 22s69.166 34.5 98.499 59.5s54.333 54.333 75 88s34.334 69.5 41.001 107.5zM176 372.996c6 34 18 65.833 36 95.5s40 55.5 66 77.5s55 39.5 87 52.5s65 19.5 99 19.5s64.667 -6.5 92 -19.5
s50.166 -30.5 68.499 -52.5s31.333 -47.833 39 -77.5s8.5 -61.5 2.5 -95.5s-18 -65.833 -36 -95.5s-40 -55.5 -66 -77.5s-55 -39.5 -87 -52.5s-65 -19.5 -99 -19.5s-64.667 6.5 -92 19.5s-50.166 30.5 -68.499 52.5s-31.333 47.833 -39 77.5s-8.5 61.5 -2.5 95.5z" />
    <glyph glyph-name="ordfeminine" unicode="&#xaa;" horiz-adv-x="457" 
d="M94 294l-4 -26h308l3 26h-307zM430 606h-93.999l-12 -41c-7.33301 18 -17.5 30.167 -30.5 36.5s-26.167 9.5 -39.5 9.5c-20 0 -39.333 -3.83301 -58 -11.5s-35.167 -18.334 -49.5 -32.001s-26 -30 -35 -49s-13.5 -39.833 -13.5 -62.5c0 -18 2.83301 -34 8.5 -48
s13.167 -26 22.5 -36s19.833 -17.5 31.5 -22.5s23.5 -7.5 35.5 -7.5s22.667 1.83301 32 5.5s17.666 8 24.999 13s13.333 10.333 18 16l12 14.5c2 -11.333 8.16699 -22.666 18.5 -33.999s28.166 -17 53.499 -17c16 0 29.5 2.83301 40.5 8.5s20.5 12.834 28.5 21.501
s14.5 17.667 19.5 27s9.16699 17.666 12.5 24.999v3c0 2.66699 -1.66699 4 -5 4c-2 0 -3.33301 -1 -4 -3c-10 -21.333 -20.167 -36.666 -30.5 -45.999s-19.166 -14 -26.499 -14c-9.33301 0 -14 6.66699 -14 20v8c0 3.33301 0.666992 6.66602 2 9.99902zM205.001 535
c5.33301 18.667 12.665 33.833 21.998 45.5s22 17.5 38 17.5c8.66699 0 16.167 -2.16699 22.5 -6.5s11.833 -9.5 16.5 -15.5s8.16699 -12 10.5 -18s3.5 -10.667 3.5 -14v-4c0 -0.666992 -0.666992 -3 -2 -7l-33 -117c-1.33301 -4.66699 -4.66602 -10.5 -9.99902 -17.5
s-11.666 -13.667 -18.999 -20s-15.5 -11.833 -24.5 -16.5s-17.5 -7 -25.5 -7c-9.33301 0 -17.333 2.83301 -24 8.5s-10 15.167 -10 28.5c0 10.667 1.66699 22 5 34z" />
    <glyph glyph-name="guillemotleft" unicode="&#xab;" horiz-adv-x="425" 
d="M235 425l-210 -156l127 -156h17l-80 156l164 156h-18zM392 425l-210 -156l127 -156h17l-80 156l164 156h-18z" />
    <glyph glyph-name="logicalnot" unicode="&#xac;" horiz-adv-x="386" 
d="M81 382l-4 -19h299l4 19h-299zM190 165c4 0 10.498 1.1709 19.498 3.50391s18.667 5.83301 29 10.5s20 11.167 29 19.5s15.167 18.5 18.5 30.5c5.33301 20 1.33301 38.333 -12 55s-33.333 25 -60 25c-30 0 -55.167 -7.5 -75.5 -22.5s-32.833 -34.167 -37.5 -57.5
c-2 -13.333 -0.666992 -24 4 -32s10.334 -14.333 17.001 -19s13.834 -7.83398 21.501 -9.50098s13.5 -2.83398 17.5 -3.50098c3.33301 0 5 -0.333008 5 -1s-1.66699 -1 -5 -1c-4.66699 0 -12 -1.33301 -22 -4s-20.5 -7.33398 -31.5 -14.001s-21.5 -15.5 -31.5 -26.5
s-17.333 -25.167 -22 -42.5c-6 -22.667 -1.83301 -42.5 12.5 -59.5s35.5 -25.5 63.5 -25.5c14.667 0 28.667 2.33301 42 7s25.5 11 36.5 19s20.333 17.5 28 28.5s13.167 22.5 16.5 34.5c4 16 3.66699 29.167 -1 39.5s-11 18.666 -19 24.999s-16.167 11 -24.5 14
s-14.5 4.5 -18.5 4.5c-2 0 -3 0.333008 -3 1s1 1 3 1zM217.998 671.004c2 0 3.66699 0.333008 5 1c25.333 4.66699 47 13 65 25l-68 -256h-25l-1 -7h116l1 7h-23l78 295h-38l-51 -32c-18.667 -12 -37 -20.333 -55 -25c-6 -2.66699 -9 -4.66699 -9 -6s1.66699 -2 5 -2z
M125.998 77.0039c7.33301 29.333 14.334 50.333 21.001 63s15.667 19 27 19c12 0 18.167 -6 18.5 -18s-3.83398 -33 -12.501 -63c-7.33301 -30 -13.833 -50.833 -19.5 -62.5s-15.5 -17.5 -29.5 -17.5c-12.667 0 -18.667 5.66699 -18 17s5 32 13 62zM168.999 229.004
c5.33301 22 11.001 39.8311 17.001 53.498s15 20.5 27 20.5c6.66699 0 11.167 -1.83301 13.5 -5.5s3.33301 -8.66699 3 -15s-1.66602 -14.166 -3.99902 -23.499l-7.5 -30c-4.66699 -20 -9.83398 -35 -15.501 -45s-14.167 -15 -25.5 -15s-16.833 4.83301 -16.5 14.5
s3.16602 24.834 8.49902 45.501z" />
    <glyph glyph-name="registered" unicode="&#xae;" horiz-adv-x="466" 
d="M366 552c0 14.667 -4.16699 26.167 -12.5 34.5s-18.833 12.5 -31.5 12.5h-83l-35 -203h17l16 94h16l66 -94h23l-68 94h30c21.333 0 37 6.5 47 19.5s15 27.167 15 42.5zM350 552c0 -11.333 -3.33203 -21.833 -9.99902 -31.5s-18 -14.5 -34 -14.5h-66l14 77h66
c9.33301 0 16.666 -2.83301 21.999 -8.5s8 -13.167 8 -22.5zM120.001 466c0 30 5.5 56.665 16.5 79.998s25.333 43.333 43 60s37.834 29.334 60.501 38.001s45.667 13 69 13c21.333 0 40.666 -3.33301 57.999 -10s32.333 -16 45 -28s22.334 -26.167 29.001 -42.5
s10 -33.833 10 -52.5c0 -26 -4.83301 -50.5 -14.5 -73.5s-22.834 -43.167 -39.501 -60.5s-36.5 -31.166 -59.5 -41.499s-47.5 -15.5 -73.5 -15.5c-22 0 -41.833 3.33301 -59.5 10s-32.667 16 -45 28s-22 26 -29 42s-10.5 33.667 -10.5 53zM472.001 523.998
c0 22.667 -3.83105 43.499 -11.498 62.499s-18.5 35.333 -32.5 49s-31 24.334 -51 32.001s-42 11.5 -66 11.5c-28 0 -54.833 -5 -80.5 -15s-48.334 -24.167 -68.001 -42.5s-35.334 -40.666 -47.001 -66.999s-17.5 -55.5 -17.5 -87.5c0 -22.667 3.83301 -43.5 11.5 -62.5
s18.667 -35.5 33 -49.5s31.666 -24.833 51.999 -32.5s43.166 -11.5 68.499 -11.5c29.333 0 56.833 5.66699 82.5 17s47.834 26.666 66.501 45.999s33.334 41.833 44.001 67.5s16 53.167 16 82.5z" />
    <glyph glyph-name="macron" unicode="&#xaf;" horiz-adv-x="452" 
d="M88 587l-3 -26h291l4 26h-292z" />
    <glyph glyph-name="degree" unicode="&#xb0;" horiz-adv-x="252" 
d="M236 598c0 20.667 -7.33301 38.334 -22 53.001s-32.334 22 -53.001 22s-38.334 -7.33301 -53.001 -22s-22 -32.334 -22 -53.001s7.33301 -38.334 22 -53.001s32.334 -22 53.001 -22s38.334 7.33301 53.001 22s22 32.334 22 53.001zM105 598c0 15.333 5.5 28.5 16.5 39.5
s24.167 16.5 39.5 16.5s28.5 -5.5 39.5 -16.5s16.5 -24.167 16.5 -39.5s-5.5 -28.5 -16.5 -39.5s-24.167 -16.5 -39.5 -16.5s-28.5 5.5 -39.5 16.5s-16.5 24.167 -16.5 39.5z" />
    <glyph glyph-name="plusminus" unicode="&#xb1;" horiz-adv-x="366" 
d="M198 414h-129l-14 -54h129l-37 -134h54l37 134h129l14 54h-129l36 134h-54zM292 204h-232l-18 -45h232z" />
    <glyph glyph-name="twosuperior" unicode="&#xb2;" 
d="M245 658c0 13.333 -4.5 22.332 -13.5 26.999s-19.167 7 -30.5 7c4.66699 6 12.5 12.167 23.5 18.5s23.833 9.5 38.5 9.5c10.667 0 19.167 -4 25.5 -12s9.5 -21.667 9.5 -41c0 -31.333 -6.16699 -56.166 -18.5 -74.499s-26.166 -33.833 -41.499 -46.5
c-8 -6.66699 -18 -14.167 -30 -22.5s-24 -17.333 -36 -27s-23 -19.667 -33 -30s-16.333 -20.5 -19 -30.5l-4 -12h172l43 82c2 4 3 7.66699 3 11c0 1.33301 -0.333008 2 -1 2c-2 0 -4.33301 -2.33301 -7 -7c-3.33301 -6.66699 -8.83301 -14.334 -16.5 -23.001
s-19.167 -13 -34.5 -13h-106c11.333 9.33301 24.333 16.833 39 22.5s28 11.5 40 17.5c14.667 6 29 13.333 43 22s26.167 18.834 36.5 30.501s18.666 24.667 24.999 39s9.5 30.166 9.5 47.499c0 24 -8.33301 42.5 -25 55.5s-37 19.5 -61 19.5
c-15.333 0 -29.666 -2.16699 -42.999 -6.5s-24.833 -10 -34.5 -17s-17.334 -15.167 -23.001 -24.5s-8.5 -18.666 -8.5 -27.999c0 -12.667 4 -22 12 -28s16.667 -9 26 -9c10.667 0 20 3.5 28 10.5s12 17.167 12 30.5z" />
    <glyph glyph-name="threesuperior" unicode="&#xb3;" 
d="M193 667c0 -22 11.3311 -33.001 33.998 -33.001c9.33301 0 17.5 3.16699 24.5 9.5s10.5 15.833 10.5 28.5c0 8 -2.16699 14.833 -6.5 20.5s-10.166 8.5 -17.499 8.5c-2 0 -3 0.333008 -3 1c0 2 4.33301 4.83301 13 8.5s18.667 5.5 30 5.5c10.667 0 18 -3 22 -9
s6 -14.667 6 -26c0 -7.33301 -1 -16.333 -3 -27s-5.66699 -21 -11 -31s-12.333 -18.5 -21 -25.5s-19.334 -10.5 -32.001 -10.5h-39c-4.66699 0 -7 -1.66699 -7 -5c0 -2 2 -3 6 -3h38c22.667 0 34 -13.333 34 -40c0 -9.33301 -1.16699 -20.666 -3.5 -33.999
s-6.16602 -26.166 -11.499 -38.499s-12.166 -22.833 -20.499 -31.5s-18.833 -13 -31.5 -13c-18.667 0 -31.667 3 -39 9s-11 10.667 -11 14c0 2 0.666992 3 2 3h1c4 -1.33301 7.33301 -2 10 -2c9.33301 0 18 2.5 26 7.5s12 13.167 12 24.5s-3.33301 19.666 -10 24.999
s-14.334 8 -23.001 8c-13.333 0 -23.333 -4.5 -30 -13.5s-10 -18.5 -10 -28.5c0 -15.333 6 -28.333 18 -39s29.667 -16 53 -16c28 0 50.667 3.83301 68 11.5s30.833 16.834 40.5 27.501s16 21.5 19 32.5s4.5 20.167 4.5 27.5c0 21.333 -5.83301 37.333 -17.5 48
s-25.167 17.667 -40.5 21c29.333 3.33301 51.833 12.666 67.5 27.999s23.5 33 23.5 53c0 17.333 -6.16699 32 -18.5 44s-32.5 18 -60.5 18c-31.333 0 -55.166 -6.33301 -71.499 -19s-24.5 -25.667 -24.5 -39z" />
    <glyph glyph-name="acute" unicode="&#xb4;" horiz-adv-x="414" 
d="M258 660l-112 -154l22 -11l191 165h-101z" />
    <glyph glyph-name="mu" unicode="&#xb5;" 
d="M77 379l-3 -18h292l3 18h-292zM214 665c2 0 3.66699 0.333008 5 1c25.333 4.66699 47 13 65 25l-68 -256h-25l-1 -7h116l1 7h-23l78 295h-38l-51 -32c-18.667 -12 -37 -20.333 -55 -25c-6 -2.66699 -9 -4.66699 -9 -6s1.66699 -2 5 -2zM174 234
c0 13.333 -4.5 22.332 -13.5 26.999s-19.167 7 -30.5 7c4.66699 6 12.5 12.167 23.5 18.5s23.833 9.5 38.5 9.5c10.667 0 19.167 -4 25.5 -12s9.5 -21.667 9.5 -41c0 -31.333 -6.16699 -56.166 -18.5 -74.499s-26.166 -33.833 -41.499 -46.5
c-8 -6.66699 -18 -14.167 -30 -22.5s-24 -17.333 -36 -27s-23 -19.667 -33 -30s-16.333 -20.5 -19 -30.5l-4 -12h172l43 82c2 4 3 7.66699 3 11c0 1.33301 -0.333008 2 -1 2c-2 0 -4.33301 -2.33301 -7 -7c-3.33301 -6.66699 -8.83301 -14.334 -16.5 -23.001
s-19.167 -13 -34.5 -13h-106c11.333 9.33301 24.333 16.833 39 22.5s28 11.5 40 17.5c14.667 6 29 13.333 43 22s26.167 18.834 36.5 30.501s18.666 24.667 24.999 39s9.5 30.166 9.5 47.499c0 24 -8.33301 42.5 -25 55.5s-37 19.5 -61 19.5
c-15.333 0 -29.666 -2.16699 -42.999 -6.5s-24.833 -10 -34.5 -17s-17.334 -15.167 -23.001 -24.5s-8.5 -18.666 -8.5 -27.999c0 -12.667 4 -22 12 -28s16.667 -9 26 -9c10.667 0 20 3.5 28 10.5s12 17.167 12 30.5z" />
    <glyph glyph-name="paragraph" unicode="&#xb6;" horiz-adv-x="694" 
d="M530 656l-203 -764h90l203 764h86l5 16h-373c-54 0 -98.333 -6.83301 -133 -20.5s-62 -31 -82 -52s-34 -43.833 -42 -68.5s-12 -47.667 -12 -69c0 -53.333 16.167 -92.333 48.5 -117s75.833 -37 130.5 -37h50l-111 -416h90l204 764h49z" />
    <glyph glyph-name="periodcentered" unicode="&#xb7;" horiz-adv-x="349" 
d="M269 327c0 18.667 -6.33301 35.334 -19 50.001s-32 22 -58 22c-14.667 0 -27.5 -2.5 -38.5 -7.5s-20.167 -11.333 -27.5 -19s-12.833 -16.5 -16.5 -26.5s-5.5 -20 -5.5 -30c0 -18.667 6.33301 -35.334 19 -50.001s32 -22 58 -22c14.667 0 27.5 2.5 38.5 7.5
s20.167 11.333 27.5 19s12.833 16.5 16.5 26.5s5.5 20 5.5 30z" />
    <glyph glyph-name="periodcentered" unicode="&#x2219;" horiz-adv-x="349" 
d="M269 327c0 18.667 -6.33301 35.334 -19 50.001s-32 22 -58 22c-14.667 0 -27.5 -2.5 -38.5 -7.5s-20.167 -11.333 -27.5 -19s-12.833 -16.5 -16.5 -26.5s-5.5 -20 -5.5 -30c0 -18.667 6.33301 -35.334 19 -50.001s32 -22 58 -22c14.667 0 27.5 2.5 38.5 7.5
s20.167 11.333 27.5 19s12.833 16.5 16.5 26.5s5.5 20 5.5 30z" />
    <glyph glyph-name="cedilla" unicode="&#xb8;" horiz-adv-x="301" 
d="M197 0l-22.999 -0.00195312l-22 -51c5.33301 -2 10.166 -5.83301 14.499 -11.5s6.5 -12.834 6.5 -21.501c0 -14.667 -5 -26 -15 -34s-21.333 -12 -34 -12c-6.66699 0 -13.167 1.5 -19.5 4.5s-11.5 8.16699 -15.5 15.5c-3.33301 6 -6.33301 9 -9 9s-4 -2.33301 -4 -7v-4
c0 -2 0.333008 -4 1 -6c3.33301 -12 10.666 -21.5 21.999 -28.5s24 -10.5 38 -10.5c13.333 0 24.833 2.16699 34.5 6.5s17.5 9.83301 23.5 16.5s10.5 13.834 13.5 21.501s4.5 15.167 4.5 22.5c0 12.667 -3.66699 22.834 -11 30.501s-14.666 12.834 -21.999 15.501z" />
    <glyph glyph-name="onesuperior" unicode="&#xb9;" 
d="M196 664c2 0 3.66699 0.333008 5 1c25.333 4.66699 47 13 65 25l-68 -256h-25l-1 -7h116l1 7h-23l78 295h-38l-51 -32c-18.667 -12 -37 -20.333 -55 -25c-6 -2.66699 -9 -4.66699 -9 -6s1.66699 -2 5 -2z" />
    <glyph glyph-name="ordmasculine" unicode="&#xba;" horiz-adv-x="455" 
d="M103 294l-3 -26h308l3 26h-308zM154 451c0 -32 9.33301 -58.668 28 -80.001s47.667 -32 87 -32c22.667 0 43.834 3.83301 63.501 11.5s36.667 18.5 51 32.5s25.666 30.5 33.999 49.5s12.5 39.5 12.5 61.5c0 36 -10.5 64.167 -31.5 84.5s-50.5 30.5 -88.5 30.5
c-20 0 -39.5 -4 -58.5 -12s-35.667 -19.167 -50 -33.5s-25.833 -31.166 -34.5 -50.499s-13 -40 -13 -62zM351 562.999c0 -4 -0.333984 -8.50195 -1.00098 -13.502s-2.16699 -12.5 -4.5 -22.5s-5.66602 -23 -9.99902 -39l-16.5 -63l-8 -26.5
c-2.66699 -9 -6 -17.167 -10 -24.5s-9 -13.333 -15 -18s-13 -7 -21 -7c-13.333 0 -22.333 4 -27 12s-7 17.667 -7 29c0 3.33301 0.333008 7.16602 1 11.499s2 11 4 20s4.83301 20.833 8.5 35.5l14.5 59c2.66699 10.667 5.66699 20.834 9 30.501s7.33301 18.334 12 26.001
s10.334 13.834 17.001 18.501s14.667 7 24 7c11.333 0 19.166 -3.33301 23.499 -10s6.5 -15 6.5 -25z" />
    <glyph glyph-name="guillemotright" unicode="&#xbb;" horiz-adv-x="414" 
d="M41 113h17l211 156l-127 156h-17l79 -156zM191 113h18l210 156l-127 156h-17l80 -156z" />
    <glyph glyph-name="onequarter" unicode="&#xbc;" 
d="M62 379l-3 -18h292l3 18h-292zM196 664c2 0 3.66699 0.333008 5 1c25.333 4.66699 47 13 65 25l-68 -256h-25l-1 -7h116l1 7h-23l78 295h-38l-51 -32c-18.667 -12 -37 -20.333 -55 -25c-6 -2.66699 -9 -4.66699 -9 -6s1.66699 -2 5 -2zM268 303l-44 -0.000976562
c-12 -12 -26 -26.833 -42 -44.5l-49 -55l-49 -57.5c-16 -19.333 -29.667 -36.666 -41 -51.999l-2 -10h101l-21 -76h-24l-2 -8h116l2 8h-24l20 76h42l7 27h-41zM149 110.999h-81c8 10.667 17.167 22.167 27.5 34.5l31.5 37l31 34.5l27 28z" />
    <glyph glyph-name="onehalf" unicode="&#xbd;" 
d="M77 379l-3 -18h292l3 18h-292zM214 665c2 0 3.66699 0.333008 5 1c25.333 4.66699 47 13 65 25l-68 -256h-25l-1 -7h116l1 7h-23l78 295h-38l-51 -32c-18.667 -12 -37 -20.333 -55 -25c-6 -2.66699 -9 -4.66699 -9 -6s1.66699 -2 5 -2zM174 234
c0 13.333 -4.5 22.332 -13.5 26.999s-19.167 7 -30.5 7c4.66699 6 12.5 12.167 23.5 18.5s23.833 9.5 38.5 9.5c10.667 0 19.167 -4 25.5 -12s9.5 -21.667 9.5 -41c0 -31.333 -6.16699 -56.166 -18.5 -74.499s-26.166 -33.833 -41.499 -46.5
c-8 -6.66699 -18 -14.167 -30 -22.5s-24 -17.333 -36 -27s-23 -19.667 -33 -30s-16.333 -20.5 -19 -30.5l-4 -12h172l43 82c2 4 3 7.66699 3 11c0 1.33301 -0.333008 2 -1 2c-2 0 -4.33301 -2.33301 -7 -7c-3.33301 -6.66699 -8.83301 -14.334 -16.5 -23.001
s-19.167 -13 -34.5 -13h-106c11.333 9.33301 24.333 16.833 39 22.5s28 11.5 40 17.5c14.667 6 29 13.333 43 22s26.167 18.834 36.5 30.501s18.666 24.667 24.999 39s9.5 30.166 9.5 47.499c0 24 -8.33301 42.5 -25 55.5s-37 19.5 -61 19.5
c-15.333 0 -29.666 -2.16699 -42.999 -6.5s-24.833 -10 -34.5 -17s-17.334 -15.167 -23.001 -24.5s-8.5 -18.666 -8.5 -27.999c0 -12.667 4 -22 12 -28s16.667 -9 26 -9c10.667 0 20 3.5 28 10.5s12 17.167 12 30.5z" />
    <glyph glyph-name="threequarters" unicode="&#xbe;" 
d="M55 368l-3 -17h291l3 17h-291zM193 667c0 -22 11.3311 -33.001 33.998 -33.001c9.33301 0 17.5 3.16699 24.5 9.5s10.5 15.833 10.5 28.5c0 8 -2.16699 14.833 -6.5 20.5s-10.166 8.5 -17.499 8.5c-2 0 -3 0.333008 -3 1c0 2 4.33301 4.83301 13 8.5s18.667 5.5 30 5.5
c10.667 0 18 -3 22 -9s6 -14.667 6 -26c0 -7.33301 -1 -16.333 -3 -27s-5.66699 -21 -11 -31s-12.333 -18.5 -21 -25.5s-19.334 -10.5 -32.001 -10.5h-39c-4.66699 0 -7 -1.66699 -7 -5c0 -2 2 -3 6 -3h38c22.667 0 34 -13.333 34 -40
c0 -9.33301 -1.16699 -20.666 -3.5 -33.999s-6.16602 -26.166 -11.499 -38.499s-12.166 -22.833 -20.499 -31.5s-18.833 -13 -31.5 -13c-18.667 0 -31.667 3 -39 9s-11 10.667 -11 14c0 2 0.666992 3 2 3h1c4 -1.33301 7.33301 -2 10 -2c9.33301 0 18 2.5 26 7.5
s12 13.167 12 24.5s-3.33301 19.666 -10 24.999s-14.334 8 -23.001 8c-13.333 0 -23.333 -4.5 -30 -13.5s-10 -18.5 -10 -28.5c0 -15.333 6 -28.333 18 -39s29.667 -16 53 -16c28 0 50.667 3.83301 68 11.5s30.833 16.834 40.5 27.501s16 21.5 19 32.5s4.5 20.167 4.5 27.5
c0 21.333 -5.83301 37.333 -17.5 48s-25.167 17.667 -40.5 21c29.333 3.33301 51.833 12.666 67.5 27.999s23.5 33 23.5 53c0 17.333 -6.16699 32 -18.5 44s-32.5 18 -60.5 18c-31.333 0 -55.166 -6.33301 -71.499 -19s-24.5 -25.667 -24.5 -39zM259.998 302.999
l-44 -0.000976562c-12 -12 -26 -26.833 -42 -44.5l-49 -55l-49 -57.5c-16 -19.333 -29.667 -36.666 -41 -51.999l-2 -10h101l-21 -76h-24l-2 -8h116l2 8h-24l20 76h42l7 27h-41zM140.998 110.998h-81c8 10.667 17.167 22.167 27.5 34.5l31.5 37l31 34.5l27 28z" />
    <glyph glyph-name="questiondown" unicode="&#xbf;" horiz-adv-x="398" 
d="M-6 4c0 -46 12.8262 -80.5029 38.4932 -103.503s58.834 -34.5 99.501 -34.5c28 0 52 3.33301 72 10s36.333 15 49 25s22 21 28 33s9 23.667 9 35c0 20.667 -5.66699 36.834 -17 48.501s-26.666 17.5 -45.999 17.5c-23.333 0 -40.833 -6.66699 -52.5 -20
s-17.5 -28.333 -17.5 -45c0 -15.333 4.5 -29.5 13.5 -42.5s22.5 -20.167 40.5 -21.5c-7.33301 -5.33301 -17.5 -10.333 -30.5 -15s-29.167 -7 -48.5 -7c-17.333 0 -32.166 5.66699 -44.499 17s-18.5 29 -18.5 53c0 16 1.83301 29.667 5.5 41s8.83398 21.166 15.501 29.499
s14.667 16 24 23s20 14.167 32 21.5l30.5 18.5c10.333 6.33301 20 13.833 29 22.5s17.167 18.834 24.5 30.501s13 25.5 17 41.5l41 157h-16l-13 -47c-3.33301 -12.667 -10.666 -24.167 -21.999 -34.5s-24.833 -20.166 -40.5 -29.499s-32.5 -18.666 -50.5 -27.999
s-35.667 -19.333 -53 -30c-24 -16 -42.667 -31.5 -56 -46.5s-23.166 -29.5 -29.499 -43.5s-10.166 -27.333 -11.499 -40s-2 -24.667 -2 -36zM213.993 460.997c0 -18.667 6.33301 -35.334 19 -50.001s32 -22 58 -22c14.667 0 27.5 2.5 38.5 7.5s20.167 11.333 27.5 19
s12.833 16.5 16.5 26.5s5.5 20 5.5 30c0 18.667 -6.33301 35.334 -19 50.001s-32 22 -58 22c-14.667 0 -27.5 -2.5 -38.5 -7.5s-20.167 -11.333 -27.5 -19s-12.833 -16.5 -16.5 -26.5s-5.5 -20 -5.5 -30z" />
    <glyph glyph-name="Agrave" unicode="&#xc0;" horiz-adv-x="675" 
d="M388 848l124 -154l17 4l-58 150h-83zM537 681l-69.999 -0.00195312l-367 -613c-4.66699 -7.33301 -10.334 -14.166 -17.001 -20.499s-14.334 -12.166 -23.001 -17.499c-5.33301 -3.33301 -12 -6.16602 -20 -8.49902s-14.667 -3.83301 -20 -4.5s-8.33301 -1 -9 -1l-5 -16
h151l4 16c-0.666992 0 -3.66699 0.333008 -9 1s-11.666 2.16699 -18.999 4.5s-12.333 6.16602 -15 11.499s-3.5 11.333 -2.5 18s3.16699 12.667 6.5 18l81 140h200l13 -193h-90l-4 -16h339l5 16h-87zM383.001 510.998l19 -286h-190z" />
    <glyph glyph-name="Aacute" unicode="&#xc1;" horiz-adv-x="675" 
d="M599 848l-98 -137l21 -12l168 149h-91zM537 681l-69.999 -0.00195312l-367 -613c-4.66699 -7.33301 -10.334 -14.166 -17.001 -20.499s-14.334 -12.166 -23.001 -17.499c-5.33301 -3.33301 -12 -6.16602 -20 -8.49902s-14.667 -3.83301 -20 -4.5s-8.33301 -1 -9 -1
l-5 -16h151l4 16c-0.666992 0 -3.66699 0.333008 -9 1s-11.666 2.16699 -18.999 4.5s-12.333 6.16602 -15 11.499s-3.5 11.333 -2.5 18s3.16699 12.667 6.5 18l81 140h200l13 -193h-90l-4 -16h339l5 16h-87zM383.001 510.998l19 -286h-190z" />
    <glyph glyph-name="Acircumflex" unicode="&#xc2;" horiz-adv-x="675" 
d="M629 711l-80 119h-38l-121 -119l9 -9l125 68l96 -67zM537 681l-69.999 -0.00195312l-367 -613c-4.66699 -7.33301 -10.334 -14.166 -17.001 -20.499s-14.334 -12.166 -23.001 -17.499c-5.33301 -3.33301 -12 -6.16602 -20 -8.49902s-14.667 -3.83301 -20 -4.5
s-8.33301 -1 -9 -1l-5 -16h151l4 16c-0.666992 0 -3.66699 0.333008 -9 1s-11.666 2.16699 -18.999 4.5s-12.333 6.16602 -15 11.499s-3.5 11.333 -2.5 18s3.16699 12.667 6.5 18l81 140h200l13 -193h-90l-4 -16h339l5 16h-87zM383.001 510.998l19 -286h-190z" />
    <glyph glyph-name="Atilde" unicode="&#xc3;" horiz-adv-x="675" 
d="M544 814c-14 6.66699 -28.166 12.165 -42.499 16.498s-28.833 6.5 -43.5 6.5c-20.667 0 -38 -3.16699 -52 -9.5s-25.167 -14 -33.5 -23s-14.333 -18 -18 -27s-5.5 -15.833 -5.5 -20.5c0 -8 2.66699 -12 8 -12c6 0 10.333 4.66699 13 14
c2.66699 10.667 8.33398 19.334 17.001 26.001s18.667 10 30 10c9.33301 0 18.166 -2.83301 26.499 -8.5s18.166 -11.167 29.499 -16.5c15.333 -7.33301 30 -12.5 44 -15.5s31.667 -4.5 53 -4.5c15.333 0 29 2.5 41 7.5s22 11.333 30 19s14 15.834 18 24.501s6 17 6 25
c0 6.66699 -2.66699 10 -8 10c-6 0 -10.667 -4.66699 -14 -14c-1.33301 -7.33301 -4.5 -13.833 -9.5 -19.5s-14.833 -8.5 -29.5 -8.5c-10.667 0 -21 2.16699 -31 6.5s-19.667 8.83301 -29 13.5zM537.001 680.998l-69.999 -0.00195312l-367 -613
c-4.66699 -7.33301 -10.334 -14.166 -17.001 -20.499s-14.334 -12.166 -23.001 -17.499c-5.33301 -3.33301 -12 -6.16602 -20 -8.49902s-14.667 -3.83301 -20 -4.5s-8.33301 -1 -9 -1l-5 -16h151l4 16c-0.666992 0 -3.66699 0.333008 -9 1s-11.666 2.16699 -18.999 4.5
s-12.333 6.16602 -15 11.499s-3.5 11.333 -2.5 18s3.16699 12.667 6.5 18l81 140h200l13 -193h-90l-4 -16h339l5 16h-87zM383.002 510.996l19 -286h-190z" />
    <glyph glyph-name="Adieresis" unicode="&#xc4;" horiz-adv-x="675" 
d="M483 797c0 15.333 -5 28.832 -15 40.499s-25.333 17.5 -46 17.5c-23.333 0 -40.833 -7.16699 -52.5 -21.5s-17.5 -29.5 -17.5 -45.5c0 -15.333 4.66699 -28.666 14 -39.999s24.333 -17 45 -17c24 0 42 7 54 21s18 29 18 45zM669 796.999
c0 15.333 -4.83301 28.832 -14.5 40.499s-25.167 17.5 -46.5 17.5c-23.333 0 -40.833 -7.16699 -52.5 -21.5s-17.5 -29.5 -17.5 -45.5c0 -15.333 4.83301 -28.666 14.5 -39.999s24.5 -17 44.5 -17c24 0 42 7 54 21s18 29 18 45zM537 680.998l-69.999 -0.00195312l-367 -613
c-4.66699 -7.33301 -10.334 -14.166 -17.001 -20.499s-14.334 -12.166 -23.001 -17.499c-5.33301 -3.33301 -12 -6.16602 -20 -8.49902s-14.667 -3.83301 -20 -4.5s-8.33301 -1 -9 -1l-5 -16h151l4 16c-0.666992 0 -3.66699 0.333008 -9 1s-11.666 2.16699 -18.999 4.5
s-12.333 6.16602 -15 11.499s-3.5 11.333 -2.5 18s3.16699 12.667 6.5 18l81 140h200l13 -193h-90l-4 -16h339l5 16h-87zM383.001 510.996l19 -286h-190z" />
    <glyph glyph-name="Aring" unicode="&#xc5;" horiz-adv-x="675" 
d="M580 777c0 18.667 -6.66699 34.667 -20 48s-29.333 20 -48 20s-34.667 -6.66699 -48 -20s-20 -29.333 -20 -48s6.66699 -34.667 20 -48s29.333 -20 48 -20s34.667 6.66699 48 20s20 29.333 20 48zM462 777c0 14 4.83301 25.833 14.5 35.5s21.5 14.5 35.5 14.5
s25.833 -4.83301 35.5 -14.5s14.5 -21.5 14.5 -35.5s-4.83301 -25.833 -14.5 -35.5s-21.5 -14.5 -35.5 -14.5s-25.833 4.83301 -35.5 14.5s-14.5 21.5 -14.5 35.5zM537 681l-69.999 -0.00195312l-367 -613c-4.66699 -7.33301 -10.334 -14.166 -17.001 -20.499
s-14.334 -12.166 -23.001 -17.499c-5.33301 -3.33301 -12 -6.16602 -20 -8.49902s-14.667 -3.83301 -20 -4.5s-8.33301 -1 -9 -1l-5 -16h151l4 16c-0.666992 0 -3.66699 0.333008 -9 1s-11.666 2.16699 -18.999 4.5s-12.333 6.16602 -15 11.499s-3.5 11.333 -2.5 18
s3.16699 12.667 6.5 18l81 140h200l13 -193h-90l-4 -16h339l5 16h-87zM383.001 510.998l19 -286h-190z" />
    <glyph glyph-name="AE" unicode="&#xc6;" horiz-adv-x="1043" 
d="M366 301l316 317l-85 -317h-231zM460 0l476.002 0.000976562c9.33301 0 17 3 23 9s10.333 13.667 13 23l37 141c2.66699 10.667 4 16.667 4 18c0 7.33301 -2.33301 11 -7 11c-6.66699 0 -12.334 -6.66699 -17.001 -20c-7.33301 -20.667 -16.666 -41 -27.999 -61
s-24.666 -37.667 -39.999 -53s-32.833 -27.833 -52.5 -37.5s-41.5 -14.5 -65.5 -14.5h-123l88 330h72c18 0 30.333 -7.66699 37 -23s10 -34.333 10 -57c0 -5.33301 -0.166992 -10.833 -0.5 -16.5s-0.5 -11.167 -0.5 -16.5c0 -9.33301 3 -14 9 -14c4 0 7 3.66699 9 11l54 217
c0.666992 3.33301 1 5.33301 1 6v2c0 6 -2.33301 9 -7 9s-8.33398 -3 -11.001 -9c-12 -24.667 -25.667 -46.334 -41 -65.001s-33.666 -28 -54.999 -28h-72l78 294h93c20.667 0 38 -4.66699 52 -14s25.167 -20.833 33.5 -34.5s14.166 -28.5 17.499 -44.5s5 -31 5 -45
c0 -5.33301 -0.166992 -10 -0.5 -14s-0.5 -7.33301 -0.5 -10c0 -8 2.33301 -12 7 -12s8.33398 5 11.001 15l34 126c2 7.33301 3.5 13.166 4.5 17.499s1.5 8.5 1.5 12.5c0 12.667 -8.33301 19 -25 19h-442l-4 -16h56l-588 -588c-6 -8 -12.333 -14.833 -19 -20.5
s-14.667 -10.834 -24 -15.501l-25 -10.5c-7.33301 -3 -16.333 -4.83301 -27 -5.5l-5 -16h168l4 16l-8.5 -0.5c-5.66699 -0.333008 -11.834 0 -18.501 1s-13 2.83301 -19 5.5s-10 6.66699 -12 12c-0.666992 4 0.166016 8.83301 2.49902 14.5s4.66602 10.334 6.99902 14.001
s3.83301 5.83398 4.5 6.50098l217 216h241l-69 -270h-58z" />
    <glyph glyph-name="Ccedilla" unicode="&#xc7;" horiz-adv-x="648" 
d="M296 -60l22.0068 42.999c24 0 46.333 2.83301 67 8.5s39 12.167 55 19.5s29.5 15 40.5 23s18.833 14 23.5 18l29 -52c4 -6 8 -9 12 -9c5.33301 0 9 4 11 12l50 199c0.666992 2 1 4.33301 1 7c0 6 -2.33301 9 -7 9s-9 -3 -13 -9c-4 -6.66699 -10.333 -16.5 -19 -29.5
s-19.334 -27.167 -32.001 -42.5s-26.834 -31 -42.501 -47s-32.5 -30.667 -50.5 -44s-37 -24.166 -57 -32.499s-40.333 -12.5 -61 -12.5c-38 0 -65.333 7.33301 -82 22s-25 38 -25 70c0 16 1.83301 34.333 5.5 55s9.16699 44 16.5 70l29 108.5
c10 38.333 20.667 76.5 32 114.5s22.5 71.167 33.5 99.5s24 51.833 39 70.5s33.167 32.667 54.5 42s48.333 14 81 14c22.667 0 42.834 -5 60.501 -15s32.667 -23.333 45 -40s21.666 -35.667 27.999 -57s9.5 -43.333 9.5 -66c0 -10.667 3 -16 9 -16
c4.66699 0 8 3.66699 10 11l46 172c0.666992 2.66699 1 6 1 10c0 6 -2 9 -6 9s-9.66699 -2.33301 -17 -7l-42 -35c-15.333 12.667 -34.833 24.334 -58.5 35.001s-53.834 16 -90.501 16c-68.667 0 -130 -13.833 -184 -41.5s-99.833 -63 -137.5 -106
s-66.334 -90.833 -86.001 -143.5s-29.5 -104 -29.5 -154c0 -33.333 4.5 -64.833 13.5 -94.5s22.833 -56 41.5 -79s42.167 -41.667 70.5 -56s62.166 -22.833 101.499 -25.5l-26 -51c5.33301 -2 10.166 -5.66699 14.499 -11s6.5 -12.333 6.5 -21
c0 -12.667 -3.83301 -23.5 -11.5 -32.5s-18.167 -13.5 -31.5 -13.5c-9.33301 0 -17.333 1.83301 -24 5.5s-12 8.16699 -16 13.5c-4 6 -7.33301 9 -10 9s-4 -2 -4 -6s1.16699 -9 3.5 -15s6 -11.833 11 -17.5s11.333 -10.334 19 -14.001s16.5 -5.5 26.5 -5.5
c19.333 0 36.666 5.16699 51.999 15.5s23 26.833 23 49.5c0 14 -3.83301 25.167 -11.5 33.5s-14.167 13.833 -19.5 16.5z" />
    <glyph glyph-name="Egrave" unicode="&#xc8;" horiz-adv-x="604" 
d="M354 848l123 -154l18 4l-58 150h-83zM608 482c4.66699 0 8.33301 5.00195 11 15.002l34 126c2 7.33301 3.5 13.166 4.5 17.499s1.5 8.5 1.5 12.5c0 12.667 -8.33301 19 -25 19h-445l-4 -16h55l-171 -640h-54l-4 -16h475c9.33301 0 17 3 23 9s10.333 13.667 13 23l37 141
c2.66699 10.667 4 16.667 4 18c0 7.33301 -2.33301 11 -7 11c-6.66699 0 -12.334 -6.66699 -17.001 -20c-7.33301 -20.667 -16.666 -41 -27.999 -61s-24.666 -37.667 -39.999 -53s-32.833 -27.833 -52.5 -37.5s-41.5 -14.5 -65.5 -14.5h-123l88 330h72
c18 0 30.333 -7.66699 37 -23s10 -34.333 10 -57c0 -5.33301 -0.166992 -10.833 -0.5 -16.5s-0.5 -11.167 -0.5 -16.5c0 -9.33301 3 -14 9 -14c4 0 7 3.66699 9 11l54 217c0.666992 3.33301 1 5.33301 1 6v2c0 6 -2.33301 9 -7 9s-8.33398 -3 -11.001 -9
c-12 -24.667 -25.667 -46.334 -41 -65.001s-33.666 -28 -54.999 -28h-72l78 294h93c20.667 0 38 -4.66699 52 -14s25.167 -20.833 33.5 -34.5s14.166 -28.5 17.499 -44.5s5 -31 5 -45c0 -5.33301 -0.166992 -10 -0.5 -14s-0.5 -7.33301 -0.5 -10c0 -8 2.33301 -12 7 -12z
" />
    <glyph glyph-name="Eacute" unicode="&#xc9;" horiz-adv-x="604" 
d="M535 848l-104 -146l21 -12l175 158h-92zM608 482c4.66699 0 8.33301 5.00195 11 15.002l34 126c2 7.33301 3.5 13.166 4.5 17.499s1.5 8.5 1.5 12.5c0 12.667 -8.33301 19 -25 19h-445l-4 -16h55l-171 -640h-54l-4 -16h475c9.33301 0 17 3 23 9s10.333 13.667 13 23
l37 141c2.66699 10.667 4 16.667 4 18c0 7.33301 -2.33301 11 -7 11c-6.66699 0 -12.334 -6.66699 -17.001 -20c-7.33301 -20.667 -16.666 -41 -27.999 -61s-24.666 -37.667 -39.999 -53s-32.833 -27.833 -52.5 -37.5s-41.5 -14.5 -65.5 -14.5h-123l88 330h72
c18 0 30.333 -7.66699 37 -23s10 -34.333 10 -57c0 -5.33301 -0.166992 -10.833 -0.5 -16.5s-0.5 -11.167 -0.5 -16.5c0 -9.33301 3 -14 9 -14c4 0 7 3.66699 9 11l54 217c0.666992 3.33301 1 5.33301 1 6v2c0 6 -2.33301 9 -7 9s-8.33398 -3 -11.001 -9
c-12 -24.667 -25.667 -46.334 -41 -65.001s-33.666 -28 -54.999 -28h-72l78 294h93c20.667 0 38 -4.66699 52 -14s25.167 -20.833 33.5 -34.5s14.166 -28.5 17.499 -44.5s5 -31 5 -45c0 -5.33301 -0.166992 -10 -0.5 -14s-0.5 -7.33301 -0.5 -10c0 -8 2.33301 -12 7 -12z
" />
    <glyph glyph-name="Ecircumflex" unicode="&#xca;" horiz-adv-x="604" 
d="M580 711l-80 119h-39l-120 -119l8 -9l125 68l97 -67zM608 482c4.66699 0 8.33301 5.00195 11 15.002l34 126c2 7.33301 3.5 13.166 4.5 17.499s1.5 8.5 1.5 12.5c0 12.667 -8.33301 19 -25 19h-445l-4 -16h55l-171 -640h-54l-4 -16h475c9.33301 0 17 3 23 9
s10.333 13.667 13 23l37 141c2.66699 10.667 4 16.667 4 18c0 7.33301 -2.33301 11 -7 11c-6.66699 0 -12.334 -6.66699 -17.001 -20c-7.33301 -20.667 -16.666 -41 -27.999 -61s-24.666 -37.667 -39.999 -53s-32.833 -27.833 -52.5 -37.5s-41.5 -14.5 -65.5 -14.5h-123
l88 330h72c18 0 30.333 -7.66699 37 -23s10 -34.333 10 -57c0 -5.33301 -0.166992 -10.833 -0.5 -16.5s-0.5 -11.167 -0.5 -16.5c0 -9.33301 3 -14 9 -14c4 0 7 3.66699 9 11l54 217c0.666992 3.33301 1 5.33301 1 6v2c0 6 -2.33301 9 -7 9s-8.33398 -3 -11.001 -9
c-12 -24.667 -25.667 -46.334 -41 -65.001s-33.666 -28 -54.999 -28h-72l78 294h93c20.667 0 38 -4.66699 52 -14s25.167 -20.833 33.5 -34.5s14.166 -28.5 17.499 -44.5s5 -31 5 -45c0 -5.33301 -0.166992 -10 -0.5 -14s-0.5 -7.33301 -0.5 -10c0 -8 2.33301 -12 7 -12z
" />
    <glyph glyph-name="Edieresis" unicode="&#xcb;" horiz-adv-x="604" 
d="M429 797c0 15.333 -5 28.832 -15 40.499s-25.333 17.5 -46 17.5c-23.333 0 -40.833 -7.16699 -52.5 -21.5s-17.5 -29.5 -17.5 -45.5c0 -15.333 4.66699 -28.666 14 -39.999s24.333 -17 45 -17c24 0 42 7 54 21s18 29 18 45zM615 796.999
c0 15.333 -4.83301 28.832 -14.5 40.499s-25.167 17.5 -46.5 17.5c-23.333 0 -40.833 -7.16699 -52.5 -21.5s-17.5 -29.5 -17.5 -45.5c0 -15.333 4.83301 -28.666 14.5 -39.999s24.5 -17 44.5 -17c24 0 42 7 54 21s18 29 18 45zM608 481.998
c4.66699 0 8.33301 5.00195 11 15.002l34 126c2 7.33301 3.5 13.166 4.5 17.499s1.5 8.5 1.5 12.5c0 12.667 -8.33301 19 -25 19h-445l-4 -16h55l-171 -640h-54l-4 -16h475c9.33301 0 17 3 23 9s10.333 13.667 13 23l37 141c2.66699 10.667 4 16.667 4 18
c0 7.33301 -2.33301 11 -7 11c-6.66699 0 -12.334 -6.66699 -17.001 -20c-7.33301 -20.667 -16.666 -41 -27.999 -61s-24.666 -37.667 -39.999 -53s-32.833 -27.833 -52.5 -37.5s-41.5 -14.5 -65.5 -14.5h-123l88 330h72c18 0 30.333 -7.66699 37 -23s10 -34.333 10 -57
c0 -5.33301 -0.166992 -10.833 -0.5 -16.5s-0.5 -11.167 -0.5 -16.5c0 -9.33301 3 -14 9 -14c4 0 7 3.66699 9 11l54 217c0.666992 3.33301 1 5.33301 1 6v2c0 6 -2.33301 9 -7 9s-8.33398 -3 -11.001 -9c-12 -24.667 -25.667 -46.334 -41 -65.001s-33.666 -28 -54.999 -28
h-72l78 294h93c20.667 0 38 -4.66699 52 -14s25.167 -20.833 33.5 -34.5s14.166 -28.5 17.499 -44.5s5 -31 5 -45c0 -5.33301 -0.166992 -10 -0.5 -14s-0.5 -7.33301 -0.5 -10c0 -8 2.33301 -12 7 -12z" />
    <glyph glyph-name="Igrave" unicode="&#xcc;" horiz-adv-x="404" 
d="M205 848l124 -154l17 4l-58 150h-83zM473 656l4 16h-268l-5 -16h54l-171 -640h-54l-4 -16h273l4 16h-58l171 640h54z" />
    <glyph glyph-name="Iacute" unicode="&#xcd;" horiz-adv-x="404" 
d="M444 848l-104 -146l20 -12l175 158h-91zM473 656l4 16h-268l-5 -16h54l-171 -640h-54l-4 -16h273l4 16h-58l171 640h54z" />
    <glyph glyph-name="Icircumflex" unicode="&#xce;" horiz-adv-x="404" 
d="M470 725l-80 105h-38l-121 -105l9 -9l125 54l96 -53zM473 656l4 16h-268l-5 -16h54l-171 -640h-54l-4 -16h273l4 16h-58l171 640h54z" />
    <glyph glyph-name="Idieresis" unicode="&#xcf;" horiz-adv-x="404" 
d="M339 797c0 15.333 -5 28.832 -15 40.499s-25.333 17.5 -46 17.5c-23.333 0 -40.833 -7.16699 -52.5 -21.5s-17.5 -29.5 -17.5 -45.5c0 -15.333 4.66699 -28.666 14 -39.999s24.333 -17 45 -17c24 0 42 7 54 21s18 29 18 45zM525 796.999
c0 15.333 -4.83301 28.832 -14.5 40.499s-25.167 17.5 -46.5 17.5c-23.333 0 -40.833 -7.16699 -52.5 -21.5s-17.5 -29.5 -17.5 -45.5c0 -15.333 4.83301 -28.666 14.5 -39.999s24.5 -17 44.5 -17c24 0 42 7 54 21s18 29 18 45zM473 655.998l4 16h-268l-5 -16h54l-171 -640
h-54l-4 -16h273l4 16h-58l171 640h54z" />
    <glyph glyph-name="Eth" unicode="&#xd0;" horiz-adv-x="634" 
d="M318 320l88.002 0.00390625l14 53h-88l76 283h50c11.333 0 22.166 -2 32.499 -6s19.5 -10.333 27.5 -19s14.333 -20.334 19 -35.001s7 -32.334 7 -53.001c0 -14 -2 -31.833 -6 -53.5s-9.16699 -45.834 -15.5 -72.501s-13.833 -55.334 -22.5 -86.001l-26 -94
c-12 -42.667 -25.167 -78.167 -39.5 -106.5s-29.5 -51 -45.5 -68s-32.333 -29 -49 -36s-33.334 -10.5 -50.001 -10.5h-53zM157.002 320.004l-79.998 -304h-53l-7 -16h291c60 0 112.833 12.667 158.5 38s83.667 58 114 98s53.166 84.5 68.499 133.5s23 97.167 23 144.5
c0 34.667 -4 67.5 -12 98.5s-20.333 58.333 -37 82s-37.334 42.5 -62.001 56.5s-53.667 21 -87 21h-277l-5 -16h54l-75 -283h-71l-14 -53h71z" />
    <glyph glyph-name="Ntilde" unicode="&#xd1;" horiz-adv-x="606" 
d="M526 814c-14 6.66699 -28.166 12.165 -42.499 16.498s-28.833 6.5 -43.5 6.5c-20.667 0 -38 -3.16699 -52 -9.5s-25.167 -14 -33.5 -23s-14.333 -18 -18 -27s-5.5 -15.833 -5.5 -20.5c0 -8 2.66699 -12 8 -12c6 0 10.333 4.66699 13 14
c2.66699 10.667 8.33398 19.334 17.001 26.001s18.667 10 30 10c9.33301 0 18.166 -2.83301 26.499 -8.5s18.166 -11.167 29.499 -16.5c15.333 -7.33301 30 -12.5 44 -15.5s31.667 -4.5 53 -4.5c15.333 0 29 2.5 41 7.5s22 11.333 30 19s14 15.834 18 24.501s6 17 6 25
c0 6.66699 -2.66699 10 -8 10c-6 0 -10.667 -4.66699 -14 -14c-1.33301 -7.33301 -4.5 -13.833 -9.5 -19.5s-14.833 -8.5 -29.5 -8.5c-10.667 0 -21 2.16699 -31 6.5s-19.667 8.83301 -29 13.5zM654.001 621.998c0 -5.33301 -0.666016 -11.333 -1.99902 -18l-94 -349
l-178 417h-195l-4 -16l42 -77l-137 -511c-5.33301 -18 -14 -31.167 -26 -39.5s-26 -12.5 -42 -12.5l-5 -16h125l5 16c-14.667 0 -25.334 3.5 -32.001 10.5s-10 15.833 -10 26.5c0 3.33301 0.666992 8.33301 2 15l128 481l238 -557h34l165 612c5.33301 18 14 31.167 26 39.5
s26 12.5 42 12.5l5 16h-125l-5 -16c28.667 0 43 -11.333 43 -34z" />
    <glyph glyph-name="Ograve" unicode="&#xd2;" horiz-adv-x="701" 
d="M371 848l124 -154l17 4l-58 150h-83zM67 234c0 -34 4.83496 -66.1689 14.502 -96.502s24.667 -56.833 45 -79.5s46.166 -40.667 77.499 -54s68.666 -20 111.999 -20c68 0 128.167 14 180.5 42s96.333 63.667 132 107s62.667 91.666 81 144.999s27.5 105 27.5 155
c0 34 -4.83301 66.167 -14.5 96.5s-24.667 56.833 -45 79.5s-46.333 40.667 -78 54s-69.167 20 -112.5 20c-45.333 0 -87.333 -6.5 -126 -19.5s-73.5 -30.5 -104.5 -52.5s-58.333 -47.667 -82 -77s-43.5 -60.666 -59.5 -93.999s-28 -67.666 -36 -102.999
s-12 -69.666 -12 -102.999zM581.002 567.998c0 -16.667 -1.83301 -34.5 -5.5 -53.5s-8.16699 -39.167 -13.5 -60.5l-65 -244c-6.66699 -24 -14 -48.333 -22 -73s-18.667 -47 -32 -67s-29.833 -36.333 -49.5 -49s-44.5 -19 -74.5 -19c-39.333 0 -66 9.16699 -80 27.5
s-21 40.833 -21 67.5c0 17.333 2 35.333 6 54s8.33301 37 13 55l65 241c8 28.667 16.667 56.167 26 82.5s21 49.5 35 69.5s30.667 36 50 48s43 18 71 18c36 0 61.167 -8.66699 75.5 -26s21.5 -41 21.5 -71z" />
    <glyph glyph-name="Oacute" unicode="&#xd3;" horiz-adv-x="701" 
d="M585 848l-104 -146l20 -12l175 158h-91zM67 234c0 -34 4.83496 -66.1689 14.502 -96.502s24.667 -56.833 45 -79.5s46.166 -40.667 77.499 -54s68.666 -20 111.999 -20c68 0 128.167 14 180.5 42s96.333 63.667 132 107s62.667 91.666 81 144.999s27.5 105 27.5 155
c0 34 -4.83301 66.167 -14.5 96.5s-24.667 56.833 -45 79.5s-46.333 40.667 -78 54s-69.167 20 -112.5 20c-45.333 0 -87.333 -6.5 -126 -19.5s-73.5 -30.5 -104.5 -52.5s-58.333 -47.667 -82 -77s-43.5 -60.666 -59.5 -93.999s-28 -67.666 -36 -102.999
s-12 -69.666 -12 -102.999zM581.002 567.998c0 -16.667 -1.83301 -34.5 -5.5 -53.5s-8.16699 -39.167 -13.5 -60.5l-65 -244c-6.66699 -24 -14 -48.333 -22 -73s-18.667 -47 -32 -67s-29.833 -36.333 -49.5 -49s-44.5 -19 -74.5 -19c-39.333 0 -66 9.16699 -80 27.5
s-21 40.833 -21 67.5c0 17.333 2 35.333 6 54s8.33301 37 13 55l65 241c8 28.667 16.667 56.167 26 82.5s21 49.5 35 69.5s30.667 36 50 48s43 18 71 18c36 0 61.167 -8.66699 75.5 -26s21.5 -41 21.5 -71z" />
    <glyph glyph-name="Ocircumflex" unicode="&#xd4;" horiz-adv-x="701" 
d="M629 725l-80 105h-38l-121 -105l9 -9l125 54l96 -53zM67 234c0 -34 4.83496 -66.1689 14.502 -96.502s24.667 -56.833 45 -79.5s46.166 -40.667 77.499 -54s68.666 -20 111.999 -20c68 0 128.167 14 180.5 42s96.333 63.667 132 107s62.667 91.666 81 144.999
s27.5 105 27.5 155c0 34 -4.83301 66.167 -14.5 96.5s-24.667 56.833 -45 79.5s-46.333 40.667 -78 54s-69.167 20 -112.5 20c-45.333 0 -87.333 -6.5 -126 -19.5s-73.5 -30.5 -104.5 -52.5s-58.333 -47.667 -82 -77s-43.5 -60.666 -59.5 -93.999s-28 -67.666 -36 -102.999
s-12 -69.666 -12 -102.999zM581.002 567.998c0 -16.667 -1.83301 -34.5 -5.5 -53.5s-8.16699 -39.167 -13.5 -60.5l-65 -244c-6.66699 -24 -14 -48.333 -22 -73s-18.667 -47 -32 -67s-29.833 -36.333 -49.5 -49s-44.5 -19 -74.5 -19c-39.333 0 -66 9.16699 -80 27.5
s-21 40.833 -21 67.5c0 17.333 2 35.333 6 54s8.33301 37 13 55l65 241c8 28.667 16.667 56.167 26 82.5s21 49.5 35 69.5s30.667 36 50 48s43 18 71 18c36 0 61.167 -8.66699 75.5 -26s21.5 -41 21.5 -71z" />
    <glyph glyph-name="Otilde" unicode="&#xd5;" horiz-adv-x="701" 
d="M571 814c-14 6.66699 -28.166 12.165 -42.499 16.498s-28.833 6.5 -43.5 6.5c-20.667 0 -38 -3.16699 -52 -9.5s-25.167 -14 -33.5 -23s-14.333 -18 -18 -27s-5.5 -15.833 -5.5 -20.5c0 -8 2.66699 -12 8 -12c6 0 10.333 4.66699 13 14
c2.66699 10.667 8.33398 19.334 17.001 26.001s18.667 10 30 10c9.33301 0 18.166 -2.83301 26.499 -8.5s18.166 -11.167 29.499 -16.5c15.333 -7.33301 30 -12.5 44 -15.5s31.667 -4.5 53 -4.5c15.333 0 29 2.5 41 7.5s22 11.333 30 19s14 15.834 18 24.501s6 17 6 25
c0 6.66699 -2.66699 10 -8 10c-6 0 -10.667 -4.66699 -14 -14c-1.33301 -7.33301 -4.5 -13.833 -9.5 -19.5s-14.833 -8.5 -29.5 -8.5c-10.667 0 -21 2.16699 -31 6.5s-19.667 8.83301 -29 13.5zM67.001 233.998c0 -34 4.83496 -66.1689 14.502 -96.502
s24.667 -56.833 45 -79.5s46.166 -40.667 77.499 -54s68.666 -20 111.999 -20c68 0 128.167 14 180.5 42s96.333 63.667 132 107s62.667 91.666 81 144.999s27.5 105 27.5 155c0 34 -4.83301 66.167 -14.5 96.5s-24.667 56.833 -45 79.5s-46.333 40.667 -78 54
s-69.167 20 -112.5 20c-45.333 0 -87.333 -6.5 -126 -19.5s-73.5 -30.5 -104.5 -52.5s-58.333 -47.667 -82 -77s-43.5 -60.666 -59.5 -93.999s-28 -67.666 -36 -102.999s-12 -69.666 -12 -102.999zM581.003 567.996c0 -16.667 -1.83301 -34.5 -5.5 -53.5
s-8.16699 -39.167 -13.5 -60.5l-65 -244c-6.66699 -24 -14 -48.333 -22 -73s-18.667 -47 -32 -67s-29.833 -36.333 -49.5 -49s-44.5 -19 -74.5 -19c-39.333 0 -66 9.16699 -80 27.5s-21 40.833 -21 67.5c0 17.333 2 35.333 6 54s8.33301 37 13 55l65 241
c8 28.667 16.667 56.167 26 82.5s21 49.5 35 69.5s30.667 36 50 48s43 18 71 18c36 0 61.167 -8.66699 75.5 -26s21.5 -41 21.5 -71z" />
    <glyph glyph-name="Odieresis" unicode="&#xd6;" horiz-adv-x="701" 
d="M487 797c0 15.333 -5 28.832 -15 40.499s-25.333 17.5 -46 17.5c-23.333 0 -40.833 -7.16699 -52.5 -21.5s-17.5 -29.5 -17.5 -45.5c0 -15.333 4.66699 -28.666 14 -39.999s24.333 -17 45 -17c24 0 42 7 54 21s18 29 18 45zM673 796.999
c0 15.333 -4.83301 28.832 -14.5 40.499s-25.167 17.5 -46.5 17.5c-23.333 0 -40.833 -7.16699 -52.5 -21.5s-17.5 -29.5 -17.5 -45.5c0 -15.333 4.83301 -28.666 14.5 -39.999s24.5 -17 44.5 -17c24 0 42 7 54 21s18 29 18 45zM67 233.998
c0 -34 4.83496 -66.1689 14.502 -96.502s24.667 -56.833 45 -79.5s46.166 -40.667 77.499 -54s68.666 -20 111.999 -20c68 0 128.167 14 180.5 42s96.333 63.667 132 107s62.667 91.666 81 144.999s27.5 105 27.5 155c0 34 -4.83301 66.167 -14.5 96.5
s-24.667 56.833 -45 79.5s-46.333 40.667 -78 54s-69.167 20 -112.5 20c-45.333 0 -87.333 -6.5 -126 -19.5s-73.5 -30.5 -104.5 -52.5s-58.333 -47.667 -82 -77s-43.5 -60.666 -59.5 -93.999s-28 -67.666 -36 -102.999s-12 -69.666 -12 -102.999zM581.002 567.996
c0 -16.667 -1.83301 -34.5 -5.5 -53.5s-8.16699 -39.167 -13.5 -60.5l-65 -244c-6.66699 -24 -14 -48.333 -22 -73s-18.667 -47 -32 -67s-29.833 -36.333 -49.5 -49s-44.5 -19 -74.5 -19c-39.333 0 -66 9.16699 -80 27.5s-21 40.833 -21 67.5c0 17.333 2 35.333 6 54
s8.33301 37 13 55l65 241c8 28.667 16.667 56.167 26 82.5s21 49.5 35 69.5s30.667 36 50 48s43 18 71 18c36 0 61.167 -8.66699 75.5 -26s21.5 -41 21.5 -71z" />
    <glyph glyph-name="multiply" unicode="&#xd7;" horiz-adv-x="564" 
d="M38 449l196 -196l-196 -197l48 -48l196 197l197 -197l48 48l-197 197l197 196l-48 48l-197 -197l-196 197z" />
    <glyph glyph-name="Oslash" unicode="&#xd8;" horiz-adv-x="701" 
d="M737 433c0 50 -10.332 95.167 -30.999 135.5s-53 70.5 -97 90.5l37 61l-16 10l-39 -64c-30.667 11.333 -65.334 17 -104.001 17c-45.333 0 -87.333 -6.5 -126 -19.5s-73.5 -30.5 -104.5 -52.5s-58.333 -47.667 -82 -77s-43.5 -60.666 -59.5 -93.999
s-28 -67.666 -36 -102.999s-12 -69.666 -12 -102.999c0 -48.667 9.66699 -92.834 29 -132.501s50 -69.834 92 -90.501l-46 -76l18 -11l48 79c30 -12.667 66 -19 108 -19c68 0 128.167 14 180.5 42s96.333 63.667 132 107s62.667 91.666 81 144.999s27.5 105 27.5 155z
M231.001 40l345 565.998c2 -5.33301 3.33301 -11.166 4 -17.499s1 -13.166 1 -20.499c0 -16.667 -1.83301 -34.5 -5.5 -53.5s-8.16699 -39.167 -13.5 -60.5l-65 -244c-6.66699 -24 -14 -48.333 -22 -73s-18.667 -47 -32 -67s-29.833 -36.333 -49.5 -49s-44.5 -19 -74.5 -19
c-23.333 0 -42 3.5 -56 10.5s-24.667 16.167 -32 27.5zM484.001 664.998c21.333 0 38.668 -3.16699 52.001 -9.5s23.666 -15.5 30.999 -27.5l-346 -564c-2 12 -3 23 -3 33c0 17.333 2 35.333 6 54s8.33301 37 13 55l65 241c8 28.667 16.667 56.167 26 82.5s21 49.5 35 69.5
s30.667 36 50 48s43 18 71 18z" />
    <glyph glyph-name="Ugrave" unicode="&#xd9;" horiz-adv-x="626" 
d="M362 848l124 -154l17 4l-58 150h-83zM658 622c0 -6 -0.664062 -11.667 -1.99707 -17l-108 -391c-15.333 -57.333 -40.5 -102.833 -75.5 -136.5s-74.833 -50.5 -119.5 -50.5c-32.667 0 -58.334 7.66699 -77.001 23s-28 39.333 -28 72c0 12 1.33301 25.833 4 41.5
s7 34.167 13 55.5l117 437h53l5 16h-269l-4 -16h53l-114 -430c-4 -15.333 -6.83301 -30.333 -8.5 -45s-2.5 -26.667 -2.5 -36c0 -49.333 18.667 -87.5 56 -114.5s87 -40.5 149 -40.5c65.333 0 121.166 17.667 167.499 53s79.166 89.333 98.499 162l107 399
c5.33301 18 13.833 31.167 25.5 39.5s25.5 12.5 41.5 12.5l5 16h-125l-5 -16c28.667 0 43 -11.333 43 -34z" />
    <glyph glyph-name="Uacute" unicode="&#xda;" horiz-adv-x="626" 
d="M561 848l-104 -146l20 -12l176 158h-92zM658 622c0 -6 -0.664062 -11.667 -1.99707 -17l-108 -391c-15.333 -57.333 -40.5 -102.833 -75.5 -136.5s-74.833 -50.5 -119.5 -50.5c-32.667 0 -58.334 7.66699 -77.001 23s-28 39.333 -28 72c0 12 1.33301 25.833 4 41.5
s7 34.167 13 55.5l117 437h53l5 16h-269l-4 -16h53l-114 -430c-4 -15.333 -6.83301 -30.333 -8.5 -45s-2.5 -26.667 -2.5 -36c0 -49.333 18.667 -87.5 56 -114.5s87 -40.5 149 -40.5c65.333 0 121.166 17.667 167.499 53s79.166 89.333 98.499 162l107 399
c5.33301 18 13.833 31.167 25.5 39.5s25.5 12.5 41.5 12.5l5 16h-125l-5 -16c28.667 0 43 -11.333 43 -34z" />
    <glyph glyph-name="Ucircumflex" unicode="&#xdb;" horiz-adv-x="626" 
d="M608 725l-80 105h-39l-120 -105l8 -9l125 54l97 -53zM658 622c0 -6 -0.664062 -11.667 -1.99707 -17l-108 -391c-15.333 -57.333 -40.5 -102.833 -75.5 -136.5s-74.833 -50.5 -119.5 -50.5c-32.667 0 -58.334 7.66699 -77.001 23s-28 39.333 -28 72
c0 12 1.33301 25.833 4 41.5s7 34.167 13 55.5l117 437h53l5 16h-269l-4 -16h53l-114 -430c-4 -15.333 -6.83301 -30.333 -8.5 -45s-2.5 -26.667 -2.5 -36c0 -49.333 18.667 -87.5 56 -114.5s87 -40.5 149 -40.5c65.333 0 121.166 17.667 167.499 53
s79.166 89.333 98.499 162l107 399c5.33301 18 13.833 31.167 25.5 39.5s25.5 12.5 41.5 12.5l5 16h-125l-5 -16c28.667 0 43 -11.333 43 -34z" />
    <glyph glyph-name="Udieresis" unicode="&#xdc;" horiz-adv-x="626" 
d="M463 797c0 15.333 -5 28.832 -15 40.499s-25.333 17.5 -46 17.5c-23.333 0 -40.833 -7.16699 -52.5 -21.5s-17.5 -29.5 -17.5 -45.5c0 -15.333 4.66699 -28.666 14 -39.999s24.333 -17 45 -17c24 0 42 7 54 21s18 29 18 45zM649 796.999
c0 15.333 -4.83301 28.832 -14.5 40.499s-25.167 17.5 -46.5 17.5c-23.333 0 -40.833 -7.16699 -52.5 -21.5s-17.5 -29.5 -17.5 -45.5c0 -15.333 4.83301 -28.666 14.5 -39.999s24.5 -17 44.5 -17c24 0 42 7 54 21s18 29 18 45zM658 621.998
c0 -6 -0.664062 -11.667 -1.99707 -17l-108 -391c-15.333 -57.333 -40.5 -102.833 -75.5 -136.5s-74.833 -50.5 -119.5 -50.5c-32.667 0 -58.334 7.66699 -77.001 23s-28 39.333 -28 72c0 12 1.33301 25.833 4 41.5s7 34.167 13 55.5l117 437h53l5 16h-269l-4 -16h53
l-114 -430c-4 -15.333 -6.83301 -30.333 -8.5 -45s-2.5 -26.667 -2.5 -36c0 -49.333 18.667 -87.5 56 -114.5s87 -40.5 149 -40.5c65.333 0 121.166 17.667 167.499 53s79.166 89.333 98.499 162l107 399c5.33301 18 13.833 31.167 25.5 39.5s25.5 12.5 41.5 12.5l5 16h-125
l-5 -16c28.667 0 43 -11.333 43 -34z" />
    <glyph glyph-name="Yacute" unicode="&#xdd;" horiz-adv-x="671" 
d="M646 673l-4 -16.001c26 0 39 -8 39 -24c0 -9.33301 -4.66699 -20.666 -14 -33.999l-199 -265l-78 322h54l4 16h-277l-4 -16h53l98 -360l-75 -280h-54l-4 -16h269l4 16h-54l82 306l206 274c15.333 19.333 32 34.333 50 45s37.667 16 59 16l4 16h-159zM605 847.999
l-104 -146l21 -12l175 158h-92z" />
    <glyph glyph-name="Thorn" unicode="&#xde;" horiz-adv-x="585" 
d="M325 194h-66l88 332h35c25.333 0 46 -8 62 -24s24 -43.333 24 -82c0 -16 -3 -36.833 -9 -62.5s-14.833 -50.5 -26.5 -74.5s-26.5 -44.833 -44.5 -62.5s-39 -26.5 -63 -26.5zM352 542l30 114h52l5 16h-268l-4 -16h53l-171 -640h-52l-5 -17h268l5 17h-54l43 162h98
c44.667 0 83.5 5.33301 116.5 16s60 25.167 81 43.5s36.667 39.5 47 63.5s15.5 49.667 15.5 77c0 28.667 -4.5 53.5 -13.5 74.5s-21.333 38 -37 51s-34 22.667 -55 29s-43.167 9.5 -66.5 9.5h-88z" />
    <glyph glyph-name="germandbls" unicode="&#xdf;" horiz-adv-x="585" 
d="M-71 -220c20.667 0 44.5059 4.50488 71.5059 13.5049s53.667 23.667 80 44s50.5 47.166 72.5 80.499s38.667 74 50 122c10 40.667 17.333 82.334 22 125.001l13.5 127.5c4.33301 42.333 9.16602 83.5 14.499 123.5s13.333 77.667 24 113
c8.66699 28 19.5 50.167 32.5 66.5s26.667 28.833 41 37.5s28.666 14.167 42.999 16.5s27.166 3.5 38.499 3.5c23.333 0 42.666 -7.66699 57.999 -23s23 -37 23 -65c0 -28.667 -4.5 -53.667 -13.5 -75s-20.333 -40 -34 -56s-28.167 -30 -43.5 -42l-41 -33
c-19.333 -16 -33.333 -29.167 -42 -39.5s-13 -20.833 -13 -31.5c0 -11.333 2.33301 -20.333 7 -27s13.334 -12.667 26.001 -18c14 -6 28.333 -14.833 43 -26.5s28 -24.334 40 -38.001s22 -27.834 30 -42.501s12 -28 12 -40c0 -14 -4.16699 -26.333 -12.5 -37
s-19.333 -19.667 -33 -27s-29 -13 -46 -17s-34.5 -6 -52.5 -6c-13.333 0 -20 0.666992 -20 2c0 2 2 3.66699 6 5c5.33301 2.66699 10.166 7 14.499 13s6.5 15.667 6.5 29c0 15.333 -4.33301 26.5 -13 33.5s-19 10.5 -31 10.5c-14.667 0 -26.334 -4.5 -35.001 -13.5
s-13 -21.167 -13 -36.5c0 -23.333 8 -39.5 24 -48.5s37.667 -13.5 65 -13.5c38 0 70.333 5.66699 97 17s48.5 26.5 65.5 45.5s29.5 40.667 37.5 65s12 49.833 12 76.5c0 18 -2.83301 35.167 -8.5 51.5s-13.5 31.166 -23.5 44.499s-21.333 25.166 -34 35.499
s-26 18.166 -40 23.499c-12.667 4.66699 -19 10.667 -19 18c0 4.66699 2.66699 9 8 13c16 12 31 24.167 45 36.5s26.167 25.333 36.5 39s18.5 28.5 24.5 44.5s9 34.333 9 55c0 34.667 -12 63.5 -36 86.5s-56 34.5 -96 34.5c-33.333 0 -64.833 -3.83301 -94.5 -11.5
s-57.167 -19.834 -82.5 -36.501s-48 -38 -68 -64s-36.333 -57.333 -49 -94c-10 -28 -17.333 -58.167 -22 -90.5s-8.5 -65.833 -11.5 -100.5l-9.5 -105c-3.33301 -35.333 -8.33301 -69.666 -15 -102.999c-8.66699 -42 -17.5 -79.833 -26.5 -113.5
s-19.167 -62.334 -30.5 -86.001s-23.833 -41.834 -37.5 -54.501s-29.167 -19 -46.5 -19c-4 0 -7 0.333008 -9 1c5.33301 2.66699 11.5 6.83398 18.5 12.501s10.5 15.834 10.5 30.501c0 11.333 -3.83301 22.833 -11.5 34.5s-20.834 17.5 -39.501 17.5
c-16 0 -28.667 -5.16699 -38 -15.5s-14 -22.833 -14 -37.5c0 -22 8.5 -37.667 25.5 -47s36.167 -14 57.5 -14z" />
    <glyph glyph-name="agrave" unicode="&#xe0;" horiz-adv-x="649" 
d="M200 660l124 -155l17 5l-58 150h-83zM615 430l-157.996 -0.00292969l-19 -67c-12 30 -28.833 50 -50.5 60s-43.834 15 -66.501 15c-32.667 0 -64.667 -6.33301 -96 -19s-59.166 -30.167 -83.499 -52.5s-43.833 -49.166 -58.5 -80.499s-22 -66 -22 -104
c0 -30 4.66699 -56.833 14 -80.5s21.833 -43.5 37.5 -59.5s33.167 -28.333 52.5 -37s39 -13 59 -13s37.833 2.83301 53.5 8.5s29.5 12.834 41.5 21.501s22.167 17.5 30.5 26.5s15.166 17.167 20.499 24.5c1.33301 -9.33301 4.5 -19 9.5 -29s12.167 -19.167 21.5 -27.5
s21.166 -15.166 35.499 -20.499s32.166 -8 53.499 -8c26 0 48.333 4.83301 67 14.5s34.5 21.5 47.5 35.5s23.667 28.833 32 44.5s15.166 29.5 20.499 41.5c0.666992 1.33301 1 3 1 5c0 5.33301 -2.66699 8 -8 8c-3.33301 0 -6 -2 -8 -6c-16.667 -34.667 -33.5 -60 -50.5 -76
s-31.5 -24 -43.5 -24c-16 0 -24 11.333 -24 34c0 9.33301 1.33301 19 4 29zM240.004 312.997c8.66699 30.667 20.8301 55.6699 36.4971 75.0029s36.834 29 63.501 29c14 0 26.5 -3.5 37.5 -10.5s20.333 -15.5 28 -25.5s13.334 -20 17.001 -30s5.5 -18 5.5 -24
c0 -1.33301 -0.166992 -3 -0.5 -5s-1.5 -6.33301 -3.5 -13l-54 -195c-2 -8 -7.5 -17.667 -16.5 -29s-19.833 -22.333 -32.5 -33s-26.167 -19.834 -40.5 -27.501s-28.5 -11.5 -42.5 -11.5c-16 0 -29.5 5 -40.5 15s-16.5 25.667 -16.5 47
c0 9.33301 0.833008 18.666 2.5 27.999s3.83398 18.666 6.50098 27.999z" />
    <glyph glyph-name="aacute" unicode="&#xe1;" horiz-adv-x="649" 
d="M419 660l-111 -154l21 -11l191 165h-101zM615 430l-157.996 -0.00292969l-19 -67c-12 30 -28.833 50 -50.5 60s-43.834 15 -66.501 15c-32.667 0 -64.667 -6.33301 -96 -19s-59.166 -30.167 -83.499 -52.5s-43.833 -49.166 -58.5 -80.499s-22 -66 -22 -104
c0 -30 4.66699 -56.833 14 -80.5s21.833 -43.5 37.5 -59.5s33.167 -28.333 52.5 -37s39 -13 59 -13s37.833 2.83301 53.5 8.5s29.5 12.834 41.5 21.501s22.167 17.5 30.5 26.5s15.166 17.167 20.499 24.5c1.33301 -9.33301 4.5 -19 9.5 -29s12.167 -19.167 21.5 -27.5
s21.166 -15.166 35.499 -20.499s32.166 -8 53.499 -8c26 0 48.333 4.83301 67 14.5s34.5 21.5 47.5 35.5s23.667 28.833 32 44.5s15.166 29.5 20.499 41.5c0.666992 1.33301 1 3 1 5c0 5.33301 -2.66699 8 -8 8c-3.33301 0 -6 -2 -8 -6c-16.667 -34.667 -33.5 -60 -50.5 -76
s-31.5 -24 -43.5 -24c-16 0 -24 11.333 -24 34c0 9.33301 1.33301 19 4 29zM240.004 312.997c8.66699 30.667 20.8301 55.6699 36.4971 75.0029s36.834 29 63.501 29c14 0 26.5 -3.5 37.5 -10.5s20.333 -15.5 28 -25.5s13.334 -20 17.001 -30s5.5 -18 5.5 -24
c0 -1.33301 -0.166992 -3 -0.5 -5s-1.5 -6.33301 -3.5 -13l-54 -195c-2 -8 -7.5 -17.667 -16.5 -29s-19.833 -22.333 -32.5 -33s-26.167 -19.834 -40.5 -27.501s-28.5 -11.5 -42.5 -11.5c-16 0 -29.5 5 -40.5 15s-16.5 25.667 -16.5 47
c0 9.33301 0.833008 18.666 2.5 27.999s3.83398 18.666 6.50098 27.999z" />
    <glyph glyph-name="acircumflex" unicode="&#xe2;" horiz-adv-x="649" 
d="M481 518l-89 134h-43l-134 -134l10 -9l138 76l108 -74zM615 430l-157.996 -0.00292969l-19 -67c-12 30 -28.833 50 -50.5 60s-43.834 15 -66.501 15c-32.667 0 -64.667 -6.33301 -96 -19s-59.166 -30.167 -83.499 -52.5s-43.833 -49.166 -58.5 -80.499s-22 -66 -22 -104
c0 -30 4.66699 -56.833 14 -80.5s21.833 -43.5 37.5 -59.5s33.167 -28.333 52.5 -37s39 -13 59 -13s37.833 2.83301 53.5 8.5s29.5 12.834 41.5 21.501s22.167 17.5 30.5 26.5s15.166 17.167 20.499 24.5c1.33301 -9.33301 4.5 -19 9.5 -29s12.167 -19.167 21.5 -27.5
s21.166 -15.166 35.499 -20.499s32.166 -8 53.499 -8c26 0 48.333 4.83301 67 14.5s34.5 21.5 47.5 35.5s23.667 28.833 32 44.5s15.166 29.5 20.499 41.5c0.666992 1.33301 1 3 1 5c0 5.33301 -2.66699 8 -8 8c-3.33301 0 -6 -2 -8 -6c-16.667 -34.667 -33.5 -60 -50.5 -76
s-31.5 -24 -43.5 -24c-16 0 -24 11.333 -24 34c0 9.33301 1.33301 19 4 29zM240.004 312.997c8.66699 30.667 20.8301 55.6699 36.4971 75.0029s36.834 29 63.501 29c14 0 26.5 -3.5 37.5 -10.5s20.333 -15.5 28 -25.5s13.334 -20 17.001 -30s5.5 -18 5.5 -24
c0 -1.33301 -0.166992 -3 -0.5 -5s-1.5 -6.33301 -3.5 -13l-54 -195c-2 -8 -7.5 -17.667 -16.5 -29s-19.833 -22.333 -32.5 -33s-26.167 -19.834 -40.5 -27.501s-28.5 -11.5 -42.5 -11.5c-16 0 -29.5 5 -40.5 15s-16.5 25.667 -16.5 47
c0 9.33301 0.833008 18.666 2.5 27.999s3.83398 18.666 6.50098 27.999z" />
    <glyph glyph-name="atilde" unicode="&#xe3;" horiz-adv-x="649" 
d="M395 606c-14 6.66699 -28.166 12.165 -42.499 16.498s-28.833 6.5 -43.5 6.5c-20.667 0 -38 -3.16699 -52 -9.5s-25.167 -14 -33.5 -23s-14.333 -18 -18 -27s-5.5 -15.833 -5.5 -20.5c0 -8 2.66699 -12 8 -12c6 0 10.333 4.66699 13 14
c2.66699 10.667 8.33398 19.334 17.001 26.001s18.667 10 30 10c9.33301 0 18.166 -2.83301 26.499 -8.5s18.166 -11.167 29.499 -16.5c15.333 -7.33301 30 -12.5 44 -15.5s31.667 -4.5 53 -4.5c15.333 0 29 2.5 41 7.5s22 11.333 30 19s14 15.834 18 24.501s6 17 6 25
c0 6.66699 -2.66699 10 -8 10c-6 0 -10.667 -4.66699 -14 -14c-1.33301 -7.33301 -4.5 -13.833 -9.5 -19.5s-14.833 -8.5 -29.5 -8.5c-10.667 0 -21 2.16699 -31 6.5s-19.667 8.83301 -29 13.5zM615.001 429.998l-157.996 -0.00292969l-19 -67c-12 30 -28.833 50 -50.5 60
s-43.834 15 -66.501 15c-32.667 0 -64.667 -6.33301 -96 -19s-59.166 -30.167 -83.499 -52.5s-43.833 -49.166 -58.5 -80.499s-22 -66 -22 -104c0 -30 4.66699 -56.833 14 -80.5s21.833 -43.5 37.5 -59.5s33.167 -28.333 52.5 -37s39 -13 59 -13s37.833 2.83301 53.5 8.5
s29.5 12.834 41.5 21.501s22.167 17.5 30.5 26.5s15.166 17.167 20.499 24.5c1.33301 -9.33301 4.5 -19 9.5 -29s12.167 -19.167 21.5 -27.5s21.166 -15.166 35.499 -20.499s32.166 -8 53.499 -8c26 0 48.333 4.83301 67 14.5s34.5 21.5 47.5 35.5s23.667 28.833 32 44.5
s15.166 29.5 20.499 41.5c0.666992 1.33301 1 3 1 5c0 5.33301 -2.66699 8 -8 8c-3.33301 0 -6 -2 -8 -6c-16.667 -34.667 -33.5 -60 -50.5 -76s-31.5 -24 -43.5 -24c-16 0 -24 11.333 -24 34c0 9.33301 1.33301 19 4 29zM240.005 312.995
c8.66699 30.667 20.8301 55.6699 36.4971 75.0029s36.834 29 63.501 29c14 0 26.5 -3.5 37.5 -10.5s20.333 -15.5 28 -25.5s13.334 -20 17.001 -30s5.5 -18 5.5 -24c0 -1.33301 -0.166992 -3 -0.5 -5s-1.5 -6.33301 -3.5 -13l-54 -195c-2 -8 -7.5 -17.667 -16.5 -29
s-19.833 -22.333 -32.5 -33s-26.167 -19.834 -40.5 -27.501s-28.5 -11.5 -42.5 -11.5c-16 0 -29.5 5 -40.5 15s-16.5 25.667 -16.5 47c0 9.33301 0.833008 18.666 2.5 27.999s3.83398 18.666 6.50098 27.999z" />
    <glyph glyph-name="adieresis" unicode="&#xe4;" horiz-adv-x="649" 
d="M333 599c0 16.667 -5.50195 31.501 -16.502 44.501s-28.167 19.5 -51.5 19.5c-25.333 0 -44.666 -8 -57.999 -24s-20 -33 -20 -51c0 -16.667 5.33301 -31.334 16 -44.001s27.334 -19 50.001 -19c26.667 0 46.667 7.83301 60 23.5s20 32.5 20 50.5zM539.998 599.001
c0 16.667 -5.50195 31.501 -16.502 44.501s-28.167 19.5 -51.5 19.5c-25.333 0 -44.666 -8 -57.999 -24s-20 -33 -20 -51c0 -16.667 5.33301 -31.334 16 -44.001s27.334 -19 50.001 -19c26.667 0 46.667 7.83301 60 23.5s20 32.5 20 50.5zM614.996 430.002
l-157.996 -0.00292969l-19 -67c-12 30 -28.833 50 -50.5 60s-43.834 15 -66.501 15c-32.667 0 -64.667 -6.33301 -96 -19s-59.166 -30.167 -83.499 -52.5s-43.833 -49.166 -58.5 -80.499s-22 -66 -22 -104c0 -30 4.66699 -56.833 14 -80.5s21.833 -43.5 37.5 -59.5
s33.167 -28.333 52.5 -37s39 -13 59 -13s37.833 2.83301 53.5 8.5s29.5 12.834 41.5 21.501s22.167 17.5 30.5 26.5s15.166 17.167 20.499 24.5c1.33301 -9.33301 4.5 -19 9.5 -29s12.167 -19.167 21.5 -27.5s21.166 -15.166 35.499 -20.499s32.166 -8 53.499 -8
c26 0 48.333 4.83301 67 14.5s34.5 21.5 47.5 35.5s23.667 28.833 32 44.5s15.166 29.5 20.499 41.5c0.666992 1.33301 1 3 1 5c0 5.33301 -2.66699 8 -8 8c-3.33301 0 -6 -2 -8 -6c-16.667 -34.667 -33.5 -60 -50.5 -76s-31.5 -24 -43.5 -24c-16 0 -24 11.333 -24 34
c0 9.33301 1.33301 19 4 29zM240 312.999c8.66699 30.667 20.8301 55.6699 36.4971 75.0029s36.834 29 63.501 29c14 0 26.5 -3.5 37.5 -10.5s20.333 -15.5 28 -25.5s13.334 -20 17.001 -30s5.5 -18 5.5 -24c0 -1.33301 -0.166992 -3 -0.5 -5s-1.5 -6.33301 -3.5 -13
l-54 -195c-2 -8 -7.5 -17.667 -16.5 -29s-19.833 -22.333 -32.5 -33s-26.167 -19.834 -40.5 -27.501s-28.5 -11.5 -42.5 -11.5c-16 0 -29.5 5 -40.5 15s-16.5 25.667 -16.5 47c0 9.33301 0.833008 18.666 2.5 27.999s3.83398 18.666 6.50098 27.999z" />
    <glyph glyph-name="aring" unicode="&#xe5;" horiz-adv-x="649" 
d="M427 579c0 20.667 -7.33301 38.334 -22 53.001s-32.334 22 -53.001 22s-38.334 -7.33301 -53.001 -22s-22 -32.334 -22 -53.001s7.33301 -38.334 22 -53.001s32.334 -22 53.001 -22s38.334 7.33301 53.001 22s22 32.334 22 53.001zM296 579c0 15.333 5.5 28.5 16.5 39.5
s24.167 16.5 39.5 16.5s28.5 -5.5 39.5 -16.5s16.5 -24.167 16.5 -39.5s-5.5 -28.5 -16.5 -39.5s-24.167 -16.5 -39.5 -16.5s-28.5 5.5 -39.5 16.5s-16.5 24.167 -16.5 39.5zM615 430l-157.996 -0.00292969l-19 -67c-12 30 -28.833 50 -50.5 60s-43.834 15 -66.501 15
c-32.667 0 -64.667 -6.33301 -96 -19s-59.166 -30.167 -83.499 -52.5s-43.833 -49.166 -58.5 -80.499s-22 -66 -22 -104c0 -30 4.66699 -56.833 14 -80.5s21.833 -43.5 37.5 -59.5s33.167 -28.333 52.5 -37s39 -13 59 -13s37.833 2.83301 53.5 8.5s29.5 12.834 41.5 21.501
s22.167 17.5 30.5 26.5s15.166 17.167 20.499 24.5c1.33301 -9.33301 4.5 -19 9.5 -29s12.167 -19.167 21.5 -27.5s21.166 -15.166 35.499 -20.499s32.166 -8 53.499 -8c26 0 48.333 4.83301 67 14.5s34.5 21.5 47.5 35.5s23.667 28.833 32 44.5s15.166 29.5 20.499 41.5
c0.666992 1.33301 1 3 1 5c0 5.33301 -2.66699 8 -8 8c-3.33301 0 -6 -2 -8 -6c-16.667 -34.667 -33.5 -60 -50.5 -76s-31.5 -24 -43.5 -24c-16 0 -24 11.333 -24 34c0 9.33301 1.33301 19 4 29zM240.004 312.997c8.66699 30.667 20.8301 55.6699 36.4971 75.0029
s36.834 29 63.501 29c14 0 26.5 -3.5 37.5 -10.5s20.333 -15.5 28 -25.5s13.334 -20 17.001 -30s5.5 -18 5.5 -24c0 -1.33301 -0.166992 -3 -0.5 -5s-1.5 -6.33301 -3.5 -13l-54 -195c-2 -8 -7.5 -17.667 -16.5 -29s-19.833 -22.333 -32.5 -33
s-26.167 -19.834 -40.5 -27.501s-28.5 -11.5 -42.5 -11.5c-16 0 -29.5 5 -40.5 15s-16.5 25.667 -16.5 47c0 9.33301 0.833008 18.666 2.5 27.999s3.83398 18.666 6.50098 27.999z" />
    <glyph glyph-name="ae" unicode="&#xe6;" horiz-adv-x="751" 
d="M280 87c-6 -21.333 -17 -37.5 -33 -48.5s-31.333 -16.5 -46 -16.5c-20.667 0 -31 17.667 -31 53c0 20 3.16699 40.333 9.5 61s14.5 39.167 24.5 55.5s20.833 29.833 32.5 40.5s23.167 16 34.5 16c22.667 0 40 -2 52 -6zM480 224l22 89.999
c3.33301 14.667 7.5 28.667 12.5 42s11.333 25 19 35s16.667 17.833 27 23.5s22.5 8.5 36.5 8.5c16.667 0 28.167 -5.66699 34.5 -17s9.5 -24.666 9.5 -39.999c0 -44 -9.66699 -80 -29 -108s-46 -42 -80 -42c-10 0 -19.333 1 -28 3s-16.667 3.66699 -24 5zM454 131.999
l21.0049 76.999c10.667 -4.66699 24.5 -8.33398 41.5 -11.001s35.5 -4 55.5 -4c65.333 0 113.666 11.667 144.999 35s47 52.333 47 87c0 16.667 -3.66699 32.5 -11 47.5s-18 28 -32 39s-31.167 19.833 -51.5 26.5s-43.833 10 -70.5 10
c-19.333 0 -36.166 -1.66699 -50.499 -5s-27 -7.5 -38 -12.5s-20.833 -10.5 -29.5 -16.5l-24 -17c-12 14 -28.833 25.667 -50.5 35s-52.5 14 -92.5 14c-30.667 0 -56.834 -2.5 -78.501 -7.5s-39.5 -11.667 -53.5 -20s-24.167 -17.833 -30.5 -28.5s-9.5 -21.334 -9.5 -32.001
c0 -17.333 5.16699 -29.666 15.5 -36.999s22.833 -11 37.5 -11c19.333 0 33.833 5.5 43.5 16.5s14.5 22.833 14.5 35.5c0 8 -1.83301 15.333 -5.5 22s-9.16699 11.667 -16.5 15c-2.66699 0.666992 -4 2.33398 -4 5.00098c0 5.33301 7 10.666 21 15.999s32.333 8 55 8
c16 0 27.833 -5 35.5 -15s11.5 -23 11.5 -39c0 -5.33301 -0.5 -10.833 -1.5 -16.5s-2.83301 -14.167 -5.5 -25.5l-14 -61c-14 2 -32.333 3 -55 3c-44 0 -82 -4.33301 -114 -13s-58.333 -20.5 -79 -35.5s-36 -32.667 -46 -53s-15 -41.833 -15 -64.5c0 -32 11 -58.5 33 -79.5
s52.667 -31.5 92 -31.5c22 0 40.833 1.83301 56.5 5.5s29.167 8.33398 40.5 14.001s20.666 11.834 27.999 18.501s13.666 12.667 18.999 18c7.33301 -8.66699 15.833 -16.334 25.5 -23.001s22.334 -12.5 38.001 -17.5s35.667 -8.83301 60 -11.5s54.833 -4 91.5 -4
c47.333 0 89.166 12.5 125.499 37.5s67.166 56.167 92.499 93.5c4.66699 6.66699 7 12.334 7 17.001c0 4 -1.66699 6 -5 6c-4.66699 0 -9 -3 -13 -9c-12 -17.333 -25.833 -33.5 -41.5 -48.5s-32.334 -28.167 -50.001 -39.5s-36 -20.333 -55 -27s-37.5 -10 -55.5 -10
c-19.333 0 -34.833 4.83301 -46.5 14.5s-17.5 26.834 -17.5 51.501c0 15.333 3 34.666 9 57.999z" />
    <glyph glyph-name="ccedilla" unicode="&#xe7;" horiz-adv-x="475" 
d="M235 -39l12.002 30.0039c26 1.33301 49.5 6.33301 70.5 15s39.5 19.167 55.5 31.5s29.833 25.666 41.5 39.999s21.167 27.833 28.5 40.5c2.66699 4.66699 4 8.66699 4 12c0 5.33301 -2.66699 8 -8 8c-4 0 -7.33301 -2.33301 -10 -7
c-11.333 -20.667 -24.333 -38.5 -39 -53.5s-30 -27.333 -46 -37s-32.167 -16.834 -48.5 -21.501s-31.833 -7 -46.5 -7c-18 0 -32.5 2.66699 -43.5 8s-19.167 12 -24.5 20s-8.83301 16.333 -10.5 25s-2.5 16.667 -2.5 24c0 10.667 1.66699 25.5 5 44.5s7.5 39.333 12.5 61
s10.5 43.167 16.5 64.5s11.333 39.333 16 54c6.66699 20 13.334 36.833 20.001 50.5s14.5 24.667 23.5 33s19.5 14.333 31.5 18s26 5.5 42 5.5c19.333 0 34.666 -1.33301 45.999 -4s17 -5.33398 17 -8.00098c0 -2 -2.66699 -3.33301 -8 -4
c-12.667 -1.33301 -22.834 -7.33301 -30.501 -18s-11.5 -22.667 -11.5 -36c0 -18 6.33301 -31.833 19 -41.5s27.334 -14.5 44.001 -14.5c14.667 0 28.667 4.66699 42 14s20 24.666 20 45.999c0 16 -4.16699 29.167 -12.5 39.5s-19 18.666 -32 24.999
s-27.5 10.833 -43.5 13.5s-32 4 -48 4c-48.667 0 -91.667 -7.83301 -129 -23.5s-68.833 -36 -94.5 -61s-45 -52.833 -58 -83.5s-19.5 -61.334 -19.5 -92.001c0 -28 5.16699 -53.167 15.5 -75.5s24.166 -41.333 41.499 -57s37.333 -28 60 -37s46 -14.167 70 -15.5l-16 -37
c5.33301 -2 10.166 -5.83301 14.499 -11.5s6.5 -12.834 6.5 -21.501c0 -14.667 -5 -26 -15 -34s-21.333 -12 -34 -12c-6.66699 0 -13.167 1.5 -19.5 4.5s-11.5 8.16699 -15.5 15.5c-3.33301 6 -6.33301 9 -9 9s-4 -2.33301 -4 -7v-4c0 -2 0.333008 -4 1 -6
c3.33301 -12 10.666 -21.5 21.999 -28.5s24 -10.5 38 -10.5c13.333 0 24.833 2.16699 34.5 6.5s17.5 9.83301 23.5 16.5s10.5 13.834 13.5 21.501s4.5 15.167 4.5 22.5c0 12.667 -3.66699 22.834 -11 30.501s-14.666 12.834 -21.999 15.501z" />
    <glyph glyph-name="egrave" unicode="&#xe8;" horiz-adv-x="482" 
d="M211 660l123 -155l18 5l-58 150h-83zM498 318c0 14.667 -3.16699 29.3379 -9.5 44.0049s-16 27.5 -29 38.5s-29.333 20 -49 27s-43.167 10.5 -70.5 10.5c-46 0 -87 -8.16699 -123 -24.5s-66.167 -37.5 -90.5 -63.5s-42.833 -55 -55.5 -87s-19 -63.667 -19 -95
c0 -24 3.83301 -46.833 11.5 -68.5s19.334 -40.667 35.001 -57s35.5 -29.5 59.5 -39.5s52.333 -15 85 -15c26 0 50.333 3.33301 73 10s43.5 15.667 62.5 27s36 24.166 51 38.499s28.167 29.5 39.5 45.5c2.66699 3.33301 4.33398 6.33301 5.00098 9s1 5 1 7
c0 6 -2.33301 9 -7 9c-4 0 -8 -2.66699 -12 -8c-25.333 -36 -55.833 -64.5 -91.5 -85.5s-74.834 -31.5 -117.501 -31.5c-18 0 -34.333 5.16699 -49 15.5s-22 25.166 -22 44.499c0 11.333 0.666992 21.166 2 29.499s3.66602 19.5 6.99902 33.5l16 68
c12.667 -4 28 -7.5 46 -10.5s37 -4.5 57 -4.5c28 0 54 3 78 9s44.5 14.667 61.5 26s30.333 25.166 40 41.499s14.5 35.166 14.5 56.499zM232 314.004c4 14 8.66992 27.501 14.0029 40.501s11.833 24.5 19.5 34.5s16.667 18 27 24s22.166 9 35.499 9
c17.333 0 29.666 -5.5 36.999 -16.5s11 -25.167 11 -42.5c0 -50.667 -11.833 -88.834 -35.5 -114.501s-53.834 -38.5 -90.501 -38.5c-8 0 -15.667 0.666992 -23 2l-22 4z" />
    <glyph glyph-name="eacute" unicode="&#xe9;" horiz-adv-x="482" 
d="M414 660l-112 -154l22 -11l191 165h-101zM498 318c0 14.667 -3.16699 29.3379 -9.5 44.0049s-16 27.5 -29 38.5s-29.333 20 -49 27s-43.167 10.5 -70.5 10.5c-46 0 -87 -8.16699 -123 -24.5s-66.167 -37.5 -90.5 -63.5s-42.833 -55 -55.5 -87s-19 -63.667 -19 -95
c0 -24 3.83301 -46.833 11.5 -68.5s19.334 -40.667 35.001 -57s35.5 -29.5 59.5 -39.5s52.333 -15 85 -15c26 0 50.333 3.33301 73 10s43.5 15.667 62.5 27s36 24.166 51 38.499s28.167 29.5 39.5 45.5c2.66699 3.33301 4.33398 6.33301 5.00098 9s1 5 1 7
c0 6 -2.33301 9 -7 9c-4 0 -8 -2.66699 -12 -8c-25.333 -36 -55.833 -64.5 -91.5 -85.5s-74.834 -31.5 -117.501 -31.5c-18 0 -34.333 5.16699 -49 15.5s-22 25.166 -22 44.499c0 11.333 0.666992 21.166 2 29.499s3.66602 19.5 6.99902 33.5l16 68
c12.667 -4 28 -7.5 46 -10.5s37 -4.5 57 -4.5c28 0 54 3 78 9s44.5 14.667 61.5 26s30.333 25.166 40 41.499s14.5 35.166 14.5 56.499zM232 314.004c4 14 8.66992 27.501 14.0029 40.501s11.833 24.5 19.5 34.5s16.667 18 27 24s22.166 9 35.499 9
c17.333 0 29.666 -5.5 36.999 -16.5s11 -25.167 11 -42.5c0 -50.667 -11.833 -88.834 -35.5 -114.501s-53.834 -38.5 -90.501 -38.5c-8 0 -15.667 0.666992 -23 2l-22 4z" />
    <glyph glyph-name="ecircumflex" unicode="&#xea;" horiz-adv-x="482" 
d="M466 518l-89 134h-43l-134 -134l10 -9l138 76l108 -74zM498 318c0 14.667 -3.16699 29.3379 -9.5 44.0049s-16 27.5 -29 38.5s-29.333 20 -49 27s-43.167 10.5 -70.5 10.5c-46 0 -87 -8.16699 -123 -24.5s-66.167 -37.5 -90.5 -63.5s-42.833 -55 -55.5 -87
s-19 -63.667 -19 -95c0 -24 3.83301 -46.833 11.5 -68.5s19.334 -40.667 35.001 -57s35.5 -29.5 59.5 -39.5s52.333 -15 85 -15c26 0 50.333 3.33301 73 10s43.5 15.667 62.5 27s36 24.166 51 38.499s28.167 29.5 39.5 45.5c2.66699 3.33301 4.33398 6.33301 5.00098 9
s1 5 1 7c0 6 -2.33301 9 -7 9c-4 0 -8 -2.66699 -12 -8c-25.333 -36 -55.833 -64.5 -91.5 -85.5s-74.834 -31.5 -117.501 -31.5c-18 0 -34.333 5.16699 -49 15.5s-22 25.166 -22 44.499c0 11.333 0.666992 21.166 2 29.499s3.66602 19.5 6.99902 33.5l16 68
c12.667 -4 28 -7.5 46 -10.5s37 -4.5 57 -4.5c28 0 54 3 78 9s44.5 14.667 61.5 26s30.333 25.166 40 41.499s14.5 35.166 14.5 56.499zM232 314.004c4 14 8.66992 27.501 14.0029 40.501s11.833 24.5 19.5 34.5s16.667 18 27 24s22.166 9 35.499 9
c17.333 0 29.666 -5.5 36.999 -16.5s11 -25.167 11 -42.5c0 -50.667 -11.833 -88.834 -35.5 -114.501s-53.834 -38.5 -90.501 -38.5c-8 0 -15.667 0.666992 -23 2l-22 4z" />
    <glyph glyph-name="edieresis" unicode="&#xeb;" horiz-adv-x="482" 
d="M316 599c0 16.667 -5.50195 31.501 -16.502 44.501s-28.167 19.5 -51.5 19.5c-25.333 0 -44.666 -8 -57.999 -24s-20 -33 -20 -51c0 -16.667 5.33301 -31.334 16 -44.001s27.334 -19 50.001 -19c26.667 0 46.667 7.83301 60 23.5s20 32.5 20 50.5zM522.998 599.001
c0 16.667 -5.50195 31.501 -16.502 44.501s-28.167 19.5 -51.5 19.5c-25.333 0 -44.666 -8 -57.999 -24s-20 -33 -20 -51c0 -16.667 5.33301 -31.334 16 -44.001s27.334 -19 50.001 -19c26.667 0 46.667 7.83301 60 23.5s20 32.5 20 50.5zM497.996 318.002
c0 14.667 -3.16699 29.3379 -9.5 44.0049s-16 27.5 -29 38.5s-29.333 20 -49 27s-43.167 10.5 -70.5 10.5c-46 0 -87 -8.16699 -123 -24.5s-66.167 -37.5 -90.5 -63.5s-42.833 -55 -55.5 -87s-19 -63.667 -19 -95c0 -24 3.83301 -46.833 11.5 -68.5
s19.334 -40.667 35.001 -57s35.5 -29.5 59.5 -39.5s52.333 -15 85 -15c26 0 50.333 3.33301 73 10s43.5 15.667 62.5 27s36 24.166 51 38.499s28.167 29.5 39.5 45.5c2.66699 3.33301 4.33398 6.33301 5.00098 9s1 5 1 7c0 6 -2.33301 9 -7 9c-4 0 -8 -2.66699 -12 -8
c-25.333 -36 -55.833 -64.5 -91.5 -85.5s-74.834 -31.5 -117.501 -31.5c-18 0 -34.333 5.16699 -49 15.5s-22 25.166 -22 44.499c0 11.333 0.666992 21.166 2 29.499s3.66602 19.5 6.99902 33.5l16 68c12.667 -4 28 -7.5 46 -10.5s37 -4.5 57 -4.5c28 0 54 3 78 9
s44.5 14.667 61.5 26s30.333 25.166 40 41.499s14.5 35.166 14.5 56.499zM231.996 314.006c4 14 8.66992 27.501 14.0029 40.501s11.833 24.5 19.5 34.5s16.667 18 27 24s22.166 9 35.499 9c17.333 0 29.666 -5.5 36.999 -16.5s11 -25.167 11 -42.5
c0 -50.667 -11.833 -88.834 -35.5 -114.501s-53.834 -38.5 -90.501 -38.5c-8 0 -15.667 0.666992 -23 2l-22 4z" />
    <glyph glyph-name="igrave" unicode="&#xec;" horiz-adv-x="335" 
d="M135 660l124 -155l17 5l-58 150h-83zM217 60c0 3.33301 0.333008 7.5 1 12.5s2.66699 13.167 6 24.5l99 365l-213 -32l-5 -17l57 7l-85 -311c-4 -16 -6 -30 -6 -42c0 -26 7.66699 -45.667 23 -59s36 -20 62 -20c44 0 79 12.167 105 36.5s48.333 56.833 67 97.5
c2 4 3 8 3 12c0 6 -2.33301 9 -7 9s-8.33398 -3 -11.001 -9c-16.667 -33.333 -32.167 -57.5 -46.5 -72.5s-26.166 -22.5 -35.499 -22.5s-14 7 -14 21z" />
    <glyph glyph-name="iacute" unicode="&#xed;" horiz-adv-x="335" 
d="M344 660l-112 -154l22 -11l191 165h-101zM217 60c0 3.33301 0.333008 7.5 1 12.5s2.66699 13.167 6 24.5l99 365l-213 -32l-5 -17l57 7l-85 -311c-4 -16 -6 -30 -6 -42c0 -26 7.66699 -45.667 23 -59s36 -20 62 -20c44 0 79 12.167 105 36.5s48.333 56.833 67 97.5
c2 4 3 8 3 12c0 6 -2.33301 9 -7 9s-8.33398 -3 -11.001 -9c-16.667 -33.333 -32.167 -57.5 -46.5 -72.5s-26.166 -22.5 -35.499 -22.5s-14 7 -14 21z" />
    <glyph glyph-name="icircumflex" unicode="&#xee;" horiz-adv-x="335" 
d="M385 525l-88 133h-43l-135 -133l10 -10l139 76l107 -74zM217 60c0 3.33301 0.333008 7.5 1 12.5s2.66699 13.167 6 24.5l99 365l-213 -32l-5 -17l57 7l-85 -311c-4 -16 -6 -30 -6 -42c0 -26 7.66699 -45.667 23 -59s36 -20 62 -20c44 0 79 12.167 105 36.5
s48.333 56.833 67 97.5c2 4 3 8 3 12c0 6 -2.33301 9 -7 9s-8.33398 -3 -11.001 -9c-16.667 -33.333 -32.167 -57.5 -46.5 -72.5s-26.166 -22.5 -35.499 -22.5s-14 7 -14 21z" />
    <glyph glyph-name="idieresis" unicode="&#xef;" horiz-adv-x="335" 
d="M217 60c0 3.33301 0.333008 7.5 1 12.5s2.66699 13.167 6 24.5l99 365l-213 -32l-5 -17l57 7l-85 -311c-4 -16 -6 -30 -6 -42c0 -26 7.66699 -45.667 23 -59s36 -20 62 -20c44 0 79 12.167 105 36.5s48.333 56.833 67 97.5c2 4 3 8 3 12c0 6 -2.33301 9 -7 9
s-8.33398 -3 -11.001 -9c-16.667 -33.333 -32.167 -57.5 -46.5 -72.5s-26.166 -22.5 -35.499 -22.5s-14 7 -14 21zM244 599c0 16.667 -5.50195 31.501 -16.502 44.501s-28.167 19.5 -51.5 19.5c-25.333 0 -44.666 -8 -57.999 -24s-20 -33 -20 -51
c0 -16.667 5.33301 -31.334 16 -44.001s27.334 -19 50.001 -19c26.667 0 46.667 7.83301 60 23.5s20 32.5 20 50.5zM450.998 599.001c0 16.667 -5.50195 31.501 -16.502 44.501s-28.167 19.5 -51.5 19.5c-25.333 0 -44.666 -8 -57.999 -24s-20 -33 -20 -51
c0 -16.667 5.33301 -31.334 16 -44.001s27.334 -19 50.001 -19c26.667 0 46.667 7.83301 60 23.5s20 32.5 20 50.5z" />
    <glyph glyph-name="eth" unicode="&#xf0;" horiz-adv-x="512" 
d="M385 361c0 -6.66699 -0.666992 -14.168 -2 -22.501s-3.83301 -20.666 -7.5 -36.999s-9 -38 -16 -65l-28.5 -105.5c-4 -14.667 -8.33301 -29.5 -13 -44.5s-10.5 -28.5 -17.5 -40.5s-15.167 -21.833 -24.5 -29.5s-21 -11.5 -35 -11.5c-21.333 0 -36 6.83301 -44 20.5
s-12 29.5 -12 47.5c0 6 0.5 12.667 1.5 20s3.16699 18.166 6.5 32.499l14 58.5l25 98c4.66699 18 9.66699 35.167 15 51.5s12 30.833 20 43.5s17.333 22.834 28 30.501s24 11.5 40 11.5c19.333 0 32.5 -5.5 39.5 -16.5s10.5 -24.833 10.5 -41.5zM248 -12.001
c38 0 73.334 7.50488 106.001 22.5049s61 35.5 85 61.5s42.833 56.333 56.5 91s20.5 71.667 20.5 111c0 55.333 -5.66699 101.666 -17 138.999s-25.5 68.333 -42.5 93s-35.333 44.5 -55 59.5s-37.5 27.5 -53.5 37.5l29 48l-32 20l-31 -50c-30 11.333 -62.333 17 -97 17
l-12 -33c16.667 0 32.167 -1.83301 46.5 -5.5s27.833 -8.83398 40.5 -15.501l-33 -53l32 -20l31 51c17.333 -16 31 -35.5 41 -58.5s16 -47.5 18 -73.5c-18.667 4.66699 -40.334 7 -65.001 7c-34 0 -66.667 -6.83301 -98 -20.5s-59 -32.167 -83 -55.5s-43.167 -51 -57.5 -83
s-21.5 -66.333 -21.5 -103c0 -26.667 3.83301 -51.334 11.5 -74.001s19.5 -42.334 35.5 -59.001s36 -29.834 60 -39.501s52.333 -14.5 85 -14.5z" />
    <glyph glyph-name="ntilde" unicode="&#xf1;" horiz-adv-x="572" 
d="M393 606c-14 6.66699 -28.166 12.165 -42.499 16.498s-28.833 6.5 -43.5 6.5c-20.667 0 -38 -3.16699 -52 -9.5s-25.167 -14 -33.5 -23s-14.333 -18 -18 -27s-5.5 -15.833 -5.5 -20.5c0 -8 2.66699 -12 8 -12c6 0 10.333 4.66699 13 14
c2.66699 10.667 8.33398 19.334 17.001 26.001s18.667 10 30 10c9.33301 0 18.166 -2.83301 26.499 -8.5s18.166 -11.167 29.499 -16.5c15.333 -7.33301 30 -12.5 44 -15.5s31.667 -4.5 53 -4.5c15.333 0 29 2.5 41 7.5s22 11.333 30 19s14 15.834 18 24.501s6 17 6 25
c0 6.66699 -2.66699 10 -8 10c-6 0 -10.667 -4.66699 -14 -14c-1.33301 -7.33301 -4.5 -13.833 -9.5 -19.5s-14.833 -8.5 -29.5 -8.5c-10.667 0 -21 2.16699 -31 6.5s-19.667 8.83301 -29 13.5zM579.001 150.998c-4 0 -7.66406 -2.66699 -10.9971 -8
c-18.667 -32 -34.334 -55.167 -47.001 -69.5s-23 -21.5 -31 -21.5c-10.667 0 -16 8.66699 -16 26c0 4 0.666992 9 2 15s3.66602 15.667 6.99902 29l43 158c3.33301 11.333 5.5 21.333 6.5 30s1.5 15.667 1.5 21c0 30 -9.5 56 -28.5 78s-46.167 33 -81.5 33
c-36.667 0 -66.834 -7 -90.501 -21s-44.167 -31.333 -61.5 -52l24 82l-214 -33l-5 -17l57 11l-110 -412h148l81 299c4.66699 17.333 12 33 22 47s20.667 25.833 32 35.5s22.5 17.167 33.5 22.5s20.167 8 27.5 8c10.667 0 18 -3.83301 22 -11.5s6 -17.167 6 -28.5
c0 -12.667 -3.33301 -32 -10 -58l-48 -179c-5.33301 -20 -8 -37.667 -8 -53c0 -26.667 6.66699 -47.834 20 -63.501s33 -23.5 59 -23.5c40.667 0 75.5 13.333 104.5 40s52.167 60.334 69.5 101.001c1.33301 4 2 7 2 9c0 4 -2 6 -6 6z" />
    <glyph glyph-name="ograve" unicode="&#xf2;" horiz-adv-x="512" 
d="M222 660l123 -155l17 5l-58 150h-82zM56 175c0 -26.667 3.83301 -51.3301 11.5 -73.9971s19.5 -42.334 35.5 -59.001s36 -29.834 60 -39.501s52.333 -14.5 85 -14.5c38 0 73.333 6.5 106 19.5s61 31 85 54s42.833 50.167 56.5 81.5s20.5 65.666 20.5 102.999
c0 59.333 -17.5 106 -52.5 140s-84.167 51 -147.5 51c-34 0 -66.667 -6.83301 -98 -20.5s-59 -32.167 -83 -55.5s-43.167 -51 -57.5 -83s-21.5 -66.333 -21.5 -103zM385 361.004c0 -6.66699 -0.666992 -14.168 -2 -22.501s-3.83301 -20.666 -7.5 -36.999s-9 -38 -16 -65
l-28.5 -105.5c-4 -14.667 -8.33301 -29.5 -13 -44.5s-10.5 -28.5 -17.5 -40.5s-15.167 -21.833 -24.5 -29.5s-21 -11.5 -35 -11.5c-21.333 0 -36 6.83301 -44 20.5s-12 29.5 -12 47.5c0 6 0.5 12.667 1.5 20s3.16699 18.166 6.5 32.499l14 58.5l25 98
c4.66699 18 9.66699 35.167 15 51.5s12 30.833 20 43.5s17.333 22.834 28 30.501s24 11.5 40 11.5c19.333 0 32.5 -5.5 39.5 -16.5s10.5 -24.833 10.5 -41.5z" />
    <glyph glyph-name="oacute" unicode="&#xf3;" horiz-adv-x="512" 
d="M414 660l-112 -154l22 -11l191 165h-101zM56 175c0 -26.667 3.83301 -51.3301 11.5 -73.9971s19.5 -42.334 35.5 -59.001s36 -29.834 60 -39.501s52.333 -14.5 85 -14.5c38 0 73.333 6.5 106 19.5s61 31 85 54s42.833 50.167 56.5 81.5s20.5 65.666 20.5 102.999
c0 59.333 -17.5 106 -52.5 140s-84.167 51 -147.5 51c-34 0 -66.667 -6.83301 -98 -20.5s-59 -32.167 -83 -55.5s-43.167 -51 -57.5 -83s-21.5 -66.333 -21.5 -103zM385 361.004c0 -6.66699 -0.666992 -14.168 -2 -22.501s-3.83301 -20.666 -7.5 -36.999s-9 -38 -16 -65
l-28.5 -105.5c-4 -14.667 -8.33301 -29.5 -13 -44.5s-10.5 -28.5 -17.5 -40.5s-15.167 -21.833 -24.5 -29.5s-21 -11.5 -35 -11.5c-21.333 0 -36 6.83301 -44 20.5s-12 29.5 -12 47.5c0 6 0.5 12.667 1.5 20s3.16699 18.166 6.5 32.499l14 58.5l25 98
c4.66699 18 9.66699 35.167 15 51.5s12 30.833 20 43.5s17.333 22.834 28 30.501s24 11.5 40 11.5c19.333 0 32.5 -5.5 39.5 -16.5s10.5 -24.833 10.5 -41.5z" />
    <glyph glyph-name="ocircumflex" unicode="&#xf4;" horiz-adv-x="512" 
d="M474 518l-88 134h-43l-134 -134l9 -9l139 76l108 -74zM56 175c0 -26.667 3.83301 -51.3301 11.5 -73.9971s19.5 -42.334 35.5 -59.001s36 -29.834 60 -39.501s52.333 -14.5 85 -14.5c38 0 73.333 6.5 106 19.5s61 31 85 54s42.833 50.167 56.5 81.5
s20.5 65.666 20.5 102.999c0 59.333 -17.5 106 -52.5 140s-84.167 51 -147.5 51c-34 0 -66.667 -6.83301 -98 -20.5s-59 -32.167 -83 -55.5s-43.167 -51 -57.5 -83s-21.5 -66.333 -21.5 -103zM385 361.004c0 -6.66699 -0.666992 -14.168 -2 -22.501
s-3.83301 -20.666 -7.5 -36.999s-9 -38 -16 -65l-28.5 -105.5c-4 -14.667 -8.33301 -29.5 -13 -44.5s-10.5 -28.5 -17.5 -40.5s-15.167 -21.833 -24.5 -29.5s-21 -11.5 -35 -11.5c-21.333 0 -36 6.83301 -44 20.5s-12 29.5 -12 47.5c0 6 0.5 12.667 1.5 20
s3.16699 18.166 6.5 32.499l14 58.5l25 98c4.66699 18 9.66699 35.167 15 51.5s12 30.833 20 43.5s17.333 22.834 28 30.501s24 11.5 40 11.5c19.333 0 32.5 -5.5 39.5 -16.5s10.5 -24.833 10.5 -41.5z" />
    <glyph glyph-name="otilde" unicode="&#xf5;" horiz-adv-x="512" 
d="M385 606c-14 6.66699 -28.166 12.165 -42.499 16.498s-28.833 6.5 -43.5 6.5c-20.667 0 -38 -3.16699 -52 -9.5s-25.167 -14 -33.5 -23s-14.333 -18 -18 -27s-5.5 -15.833 -5.5 -20.5c0 -8 2.66699 -12 8 -12c6 0 10.333 4.66699 13 14
c2.66699 10.667 8.33398 19.334 17.001 26.001s18.667 10 30 10c9.33301 0 18.166 -2.83301 26.499 -8.5s18.166 -11.167 29.499 -16.5c15.333 -7.33301 30 -12.5 44 -15.5s31.667 -4.5 53 -4.5c15.333 0 29 2.5 41 7.5s22 11.333 30 19s14 15.834 18 24.501s6 17 6 25
c0 6.66699 -2.66699 10 -8 10c-6 0 -10.667 -4.66699 -14 -14c-1.33301 -7.33301 -4.5 -13.833 -9.5 -19.5s-14.833 -8.5 -29.5 -8.5c-10.667 0 -21 2.16699 -31 6.5s-19.667 8.83301 -29 13.5zM56.001 174.998c0 -26.667 3.83301 -51.3301 11.5 -73.9971
s19.5 -42.334 35.5 -59.001s36 -29.834 60 -39.501s52.333 -14.5 85 -14.5c38 0 73.333 6.5 106 19.5s61 31 85 54s42.833 50.167 56.5 81.5s20.5 65.666 20.5 102.999c0 59.333 -17.5 106 -52.5 140s-84.167 51 -147.5 51c-34 0 -66.667 -6.83301 -98 -20.5
s-59 -32.167 -83 -55.5s-43.167 -51 -57.5 -83s-21.5 -66.333 -21.5 -103zM385.001 361.002c0 -6.66699 -0.666992 -14.168 -2 -22.501s-3.83301 -20.666 -7.5 -36.999s-9 -38 -16 -65l-28.5 -105.5c-4 -14.667 -8.33301 -29.5 -13 -44.5s-10.5 -28.5 -17.5 -40.5
s-15.167 -21.833 -24.5 -29.5s-21 -11.5 -35 -11.5c-21.333 0 -36 6.83301 -44 20.5s-12 29.5 -12 47.5c0 6 0.5 12.667 1.5 20s3.16699 18.166 6.5 32.499l14 58.5l25 98c4.66699 18 9.66699 35.167 15 51.5s12 30.833 20 43.5s17.333 22.834 28 30.501s24 11.5 40 11.5
c19.333 0 32.5 -5.5 39.5 -16.5s10.5 -24.833 10.5 -41.5z" />
    <glyph glyph-name="odieresis" unicode="&#xf6;" horiz-adv-x="512" 
d="M323 599c0 16.667 -5.50195 31.501 -16.502 44.501s-28.167 19.5 -51.5 19.5c-25.333 0 -44.666 -8 -57.999 -24s-20 -33 -20 -51c0 -16.667 5.33301 -31.334 16 -44.001s27.334 -19 50.001 -19c26.667 0 46.667 7.83301 60 23.5s20 32.5 20 50.5zM529.998 599.001
c0 16.667 -5.50195 31.501 -16.502 44.501s-28.167 19.5 -51.5 19.5c-25.333 0 -44.666 -8 -57.999 -24s-20 -33 -20 -51c0 -16.667 5.33301 -31.334 16 -44.001s27.334 -19 50.001 -19c26.667 0 46.667 7.83301 60 23.5s20 32.5 20 50.5zM55.9961 175.002
c0 -26.667 3.83301 -51.3301 11.5 -73.9971s19.5 -42.334 35.5 -59.001s36 -29.834 60 -39.501s52.333 -14.5 85 -14.5c38 0 73.333 6.5 106 19.5s61 31 85 54s42.833 50.167 56.5 81.5s20.5 65.666 20.5 102.999c0 59.333 -17.5 106 -52.5 140s-84.167 51 -147.5 51
c-34 0 -66.667 -6.83301 -98 -20.5s-59 -32.167 -83 -55.5s-43.167 -51 -57.5 -83s-21.5 -66.333 -21.5 -103zM384.996 361.006c0 -6.66699 -0.666992 -14.168 -2 -22.501s-3.83301 -20.666 -7.5 -36.999s-9 -38 -16 -65l-28.5 -105.5c-4 -14.667 -8.33301 -29.5 -13 -44.5
s-10.5 -28.5 -17.5 -40.5s-15.167 -21.833 -24.5 -29.5s-21 -11.5 -35 -11.5c-21.333 0 -36 6.83301 -44 20.5s-12 29.5 -12 47.5c0 6 0.5 12.667 1.5 20s3.16699 18.166 6.5 32.499l14 58.5l25 98c4.66699 18 9.66699 35.167 15 51.5s12 30.833 20 43.5
s17.333 22.834 28 30.501s24 11.5 40 11.5c19.333 0 32.5 -5.5 39.5 -16.5s10.5 -24.833 10.5 -41.5z" />
    <glyph glyph-name="divide" unicode="&#xf7;" horiz-adv-x="371" 
d="M367 287h-266l-12 -43h266zM246 124c0 13.333 -4.33301 25.166 -13 35.499s-22.334 15.5 -41.001 15.5c-20 0 -35.167 -6.33301 -45.5 -19s-15.5 -25.667 -15.5 -39s4.33301 -25.166 13 -35.499s22.334 -15.5 41.001 -15.5c20 0 35.167 6.16699 45.5 18.5
s15.5 25.5 15.5 39.5zM322 410c0 13.333 -4.33301 25.166 -13 35.499s-22.334 15.5 -41.001 15.5c-20 0 -35.167 -6.33301 -45.5 -19s-15.5 -25.667 -15.5 -39s4.33301 -25.166 13 -35.499s22.334 -15.5 41.001 -15.5c20 0 35.167 6.16699 45.5 18.5s15.5 25.5 15.5 39.5z
" />
    <glyph glyph-name="oslash" unicode="&#xf8;" horiz-adv-x="515" 
d="M516 246c0 42 -8.66699 77.501 -26 106.501s-42 50.833 -74 65.5l31 52l-18 9l-32 -54c-24 8 -51 12 -81 12c-34 0 -66.667 -6.83301 -98 -20.5s-59 -32.167 -83 -55.5s-43.167 -51 -57.5 -83s-21.5 -66.333 -21.5 -103c0 -38 7.5 -71.5 22.5 -100.5
s38.5 -51.167 70.5 -66.5l-32 -53l18 -7l31 53c24.667 -8.66699 52 -13 82 -13c38 0 73.333 6.5 106 19.5s61 31 85 54s42.833 50.167 56.5 81.5s20.5 65.666 20.5 102.999zM190 40.001l195 326c0 -8 -0.666992 -16.5 -2 -25.5s-3.83301 -21.833 -7.5 -38.5
s-9 -38.5 -16 -65.5l-28.5 -105.5c-4 -14.667 -8.33301 -29.5 -13 -44.5s-10.5 -28.5 -17.5 -40.5s-15.167 -21.833 -24.5 -29.5s-21 -11.5 -35 -11.5c-14.667 0 -26 3.16699 -34 9.5s-13.667 14.833 -17 25.5zM335 419.001c22 0 36.667 -8 44 -24l-194 -322
c0 6 0.5 12.667 1.5 20s3.16699 18.166 6.5 32.499l14 58.5l25 98c4.66699 18 9.66699 35.167 15 51.5s12 30.833 20 43.5s17.333 22.834 28 30.501s24 11.5 40 11.5z" />
    <glyph glyph-name="ugrave" unicode="&#xf9;" horiz-adv-x="598" 
d="M259 660l124 -155l17 5l-58 150h-83zM101 202c-8.66699 -32.667 -13.0029 -62.333 -13.0029 -89s3.66699 -48.334 11 -65.001s16.333 -29.5 27 -38.5s22.334 -15 35.001 -18s24.334 -4.5 35.001 -4.5c24.667 0 46 3 64 9s33.333 13.667 46 23s23.167 19.666 31.5 30.999
s15.5 22.333 21.5 33c0 -12 1.16699 -23.5 3.5 -34.5s6.66602 -21 12.999 -30s15 -16.167 26 -21.5s24.833 -8 41.5 -8c24 0 44.833 3.16699 62.5 9.5s33.667 15.333 48 27s27.333 26 39 43s23.167 36.5 34.5 58.5c0.666992 1.33301 1 3.33301 1 6
c0 6.66699 -2.66699 10 -8 10c-4 0 -7.33301 -3.33301 -10 -10c-19.333 -37.333 -37.166 -63.166 -53.499 -77.499s-30.166 -21.5 -41.499 -21.5c-6.66699 0 -12 2.5 -16 7.5s-6 11.167 -6 18.5c0 2 0.166992 4 0.5 6s0.833008 4.33301 1.5 7l95 357h-149l-75 -279
c-6.66699 -25.333 -15.167 -46.166 -25.5 -62.499s-21 -29.5 -32 -39.5s-21.5 -17 -31.5 -21s-18 -6 -24 -6c-8.66699 0 -15.5 3.5 -20.5 10.5s-7.5 19.167 -7.5 36.5c0 10 1 22.167 3 36.5s5.66699 30.833 11 49.5l76 291l-209 -26l-4 -16l56 7z" />
    <glyph glyph-name="uacute" unicode="&#xfa;" horiz-adv-x="598" 
d="M473 660l-112 -154l22 -11l191 165h-101zM101 202c-8.66699 -32.667 -13.0029 -62.333 -13.0029 -89s3.66699 -48.334 11 -65.001s16.333 -29.5 27 -38.5s22.334 -15 35.001 -18s24.334 -4.5 35.001 -4.5c24.667 0 46 3 64 9s33.333 13.667 46 23
s23.167 19.666 31.5 30.999s15.5 22.333 21.5 33c0 -12 1.16699 -23.5 3.5 -34.5s6.66602 -21 12.999 -30s15 -16.167 26 -21.5s24.833 -8 41.5 -8c24 0 44.833 3.16699 62.5 9.5s33.667 15.333 48 27s27.333 26 39 43s23.167 36.5 34.5 58.5
c0.666992 1.33301 1 3.33301 1 6c0 6.66699 -2.66699 10 -8 10c-4 0 -7.33301 -3.33301 -10 -10c-19.333 -37.333 -37.166 -63.166 -53.499 -77.499s-30.166 -21.5 -41.499 -21.5c-6.66699 0 -12 2.5 -16 7.5s-6 11.167 -6 18.5c0 2 0.166992 4 0.5 6
s0.833008 4.33301 1.5 7l95 357h-149l-75 -279c-6.66699 -25.333 -15.167 -46.166 -25.5 -62.499s-21 -29.5 -32 -39.5s-21.5 -17 -31.5 -21s-18 -6 -24 -6c-8.66699 0 -15.5 3.5 -20.5 10.5s-7.5 19.167 -7.5 36.5c0 10 1 22.167 3 36.5s5.66699 30.833 11 49.5l76 291
l-209 -26l-4 -16l56 7z" />
    <glyph glyph-name="ucircumflex" unicode="&#xfb;" horiz-adv-x="598" 
d="M513 518l-88 134h-43l-135 -134l10 -9l139 76l107 -74zM101 202c-8.66699 -32.667 -13.0029 -62.333 -13.0029 -89s3.66699 -48.334 11 -65.001s16.333 -29.5 27 -38.5s22.334 -15 35.001 -18s24.334 -4.5 35.001 -4.5c24.667 0 46 3 64 9s33.333 13.667 46 23
s23.167 19.666 31.5 30.999s15.5 22.333 21.5 33c0 -12 1.16699 -23.5 3.5 -34.5s6.66602 -21 12.999 -30s15 -16.167 26 -21.5s24.833 -8 41.5 -8c24 0 44.833 3.16699 62.5 9.5s33.667 15.333 48 27s27.333 26 39 43s23.167 36.5 34.5 58.5
c0.666992 1.33301 1 3.33301 1 6c0 6.66699 -2.66699 10 -8 10c-4 0 -7.33301 -3.33301 -10 -10c-19.333 -37.333 -37.166 -63.166 -53.499 -77.499s-30.166 -21.5 -41.499 -21.5c-6.66699 0 -12 2.5 -16 7.5s-6 11.167 -6 18.5c0 2 0.166992 4 0.5 6
s0.833008 4.33301 1.5 7l95 357h-149l-75 -279c-6.66699 -25.333 -15.167 -46.166 -25.5 -62.499s-21 -29.5 -32 -39.5s-21.5 -17 -31.5 -21s-18 -6 -24 -6c-8.66699 0 -15.5 3.5 -20.5 10.5s-7.5 19.167 -7.5 36.5c0 10 1 22.167 3 36.5s5.66699 30.833 11 49.5l76 291
l-209 -26l-4 -16l56 7z" />
    <glyph glyph-name="udieresis" unicode="&#xfc;" horiz-adv-x="598" 
d="M376 599c0 16.667 -5.50195 31.501 -16.502 44.501s-28.167 19.5 -51.5 19.5c-25.333 0 -44.666 -8 -57.999 -24s-20 -33 -20 -51c0 -16.667 5.33301 -31.334 16 -44.001s27.334 -19 50.001 -19c26.667 0 46.667 7.83301 60 23.5s20 32.5 20 50.5zM582.998 599.001
c0 16.667 -5.50195 31.501 -16.502 44.501s-28.167 19.5 -51.5 19.5c-25.333 0 -44.666 -8 -57.999 -24s-20 -33 -20 -51c0 -16.667 5.33301 -31.334 16 -44.001s27.334 -19 50.001 -19c26.667 0 46.667 7.83301 60 23.5s20 32.5 20 50.5zM100.996 202.002
c-8.66699 -32.667 -13.0029 -62.333 -13.0029 -89s3.66699 -48.334 11 -65.001s16.333 -29.5 27 -38.5s22.334 -15 35.001 -18s24.334 -4.5 35.001 -4.5c24.667 0 46 3 64 9s33.333 13.667 46 23s23.167 19.666 31.5 30.999s15.5 22.333 21.5 33
c0 -12 1.16699 -23.5 3.5 -34.5s6.66602 -21 12.999 -30s15 -16.167 26 -21.5s24.833 -8 41.5 -8c24 0 44.833 3.16699 62.5 9.5s33.667 15.333 48 27s27.333 26 39 43s23.167 36.5 34.5 58.5c0.666992 1.33301 1 3.33301 1 6c0 6.66699 -2.66699 10 -8 10
c-4 0 -7.33301 -3.33301 -10 -10c-19.333 -37.333 -37.166 -63.166 -53.499 -77.499s-30.166 -21.5 -41.499 -21.5c-6.66699 0 -12 2.5 -16 7.5s-6 11.167 -6 18.5c0 2 0.166992 4 0.5 6s0.833008 4.33301 1.5 7l95 357h-149l-75 -279
c-6.66699 -25.333 -15.167 -46.166 -25.5 -62.499s-21 -29.5 -32 -39.5s-21.5 -17 -31.5 -21s-18 -6 -24 -6c-8.66699 0 -15.5 3.5 -20.5 10.5s-7.5 19.167 -7.5 36.5c0 10 1 22.167 3 36.5s5.66699 30.833 11 49.5l76 291l-209 -26l-4 -16l56 7z" />
    <glyph glyph-name="yacute" unicode="&#xfd;" horiz-adv-x="597" 
d="M185 303l77.0059 -365.001c-5.33301 -12 -15 -28.167 -29 -48.5s-30 -40.333 -48 -60s-36.833 -36.667 -56.5 -51s-37.5 -21.5 -53.5 -21.5c9.33301 4 18.333 11 27 21s13 22.667 13 38c0 18 -5.83301 33.167 -17.5 45.5s-27.5 18.5 -47.5 18.5
c-12 0 -22.333 -2.16699 -31 -6.5s-15.834 -9.83301 -21.501 -16.5s-9.83398 -14.334 -12.501 -23.001s-4 -17 -4 -25c0 -21.333 7.83301 -39.166 23.5 -53.499s35.167 -21.5 58.5 -21.5c26 0 51.667 8.16699 77 24.5s50.166 39 74.499 68s48.166 63 71.499 102
s45.666 81.167 66.999 126.5c14 28.667 28.167 60 42.5 94l41 95c13 29.333 24.5 53.666 34.5 72.999s17.333 29 22 29c1.33301 0 2.66602 -1 3.99902 -3c5.33301 -14.667 13.5 -25.334 24.5 -32.001s22.5 -10 34.5 -10c16.667 0 31.834 5.83301 45.501 17.5
s20.5 27.167 20.5 46.5c0 21.333 -5.5 37.833 -16.5 49.5s-26.167 17.5 -45.5 17.5c-18 0 -33 -4.33301 -45 -13c-10 -7.33301 -21 -20.666 -33 -39.999s-24.167 -42 -36.5 -68s-24.666 -53.5 -36.999 -82.5l-34.5 -82.5l-50 223c-6 26.667 -18.167 45.334 -36.5 56.001
s-42.5 16 -72.5 16c-22.667 0 -43.667 -4.83301 -63 -14.5s-37 -21.5 -53 -35.5s-30.333 -29.167 -43 -45.5l-34 -44.5c-2 -2 -3 -4.33301 -3 -7c0 -6 2.66699 -9 8 -9c3.33301 0 6 2 8 6c6.66699 10 14.667 20.333 24 31s18.666 20.5 27.999 29.5s18.666 16.5 27.999 22.5
s17.333 9 24 9c7.33301 0 13.333 -1.33301 18 -4s8.5 -7.16699 11.5 -13.5s5.66699 -14.666 8 -24.999zM473.006 659.999l-112 -154l22 -11l191 165h-101z" />
    <glyph glyph-name="thorn" unicode="&#xfe;" horiz-adv-x="569" 
d="M171 645l-8.00098 -16.0029l57 9l-242 -891h-55l-5 -16h276l4 16h-65l80 300c5.33301 -14 14.166 -26.333 26.499 -37s32.5 -16 60.5 -16c42.667 0 80.834 8.83301 114.501 26.5s62.167 40.334 85.5 68.001s41 58.334 53 92.001s18 66.5 18 98.5c0 22 -3 42.833 -9 62.5
s-15 36.667 -27 51s-27.167 25.833 -45.5 34.5s-39.833 13 -64.5 13c-29.333 0 -53.666 -6.66699 -72.999 -20s-36.333 -27.666 -51 -42.999l81 300zM232.999 123.997l49.998 188.001c2 6.66699 6.66699 15.667 14 27s16.5 22.333 27.5 33s23 19.834 36 27.501
s26.167 11.5 39.5 11.5c19.333 0 29 -13 29 -39c0 -9.33301 -2.16699 -23.833 -6.5 -43.5s-9.66602 -41.667 -15.999 -66l-20 -75.5l-19.5 -71c-9.33301 -36 -19.666 -61.333 -30.999 -76s-26 -22 -44 -22c-19.333 0 -34.833 6.83301 -46.5 20.5s-17.5 31.5 -17.5 53.5
c0 3.33301 0.166992 7.16602 0.5 11.499s1.83301 11.166 4.5 20.499z" />
    <glyph glyph-name="ydieresis" unicode="&#xff;" horiz-adv-x="597" 
d="M365 599c0 16.667 -5.50195 31.501 -16.502 44.501s-28.167 19.5 -51.5 19.5c-25.333 0 -44.666 -8 -57.999 -24s-20 -33 -20 -51c0 -16.667 5.33301 -31.334 16 -44.001s27.334 -19 50.001 -19c26.667 0 46.667 7.83301 60 23.5s20 32.5 20 50.5zM571.998 599.001
c0 16.667 -5.50195 31.501 -16.502 44.501s-28.167 19.5 -51.5 19.5c-25.333 0 -44.666 -8 -57.999 -24s-20 -33 -20 -51c0 -16.667 5.33301 -31.334 16 -44.001s27.334 -19 50.001 -19c26.667 0 46.667 7.83301 60 23.5s20 32.5 20 50.5zM184.996 303.002l77.0059 -365.001
c-5.33301 -12 -15 -28.167 -29 -48.5s-30 -40.333 -48 -60s-36.833 -36.667 -56.5 -51s-37.5 -21.5 -53.5 -21.5c9.33301 4 18.333 11 27 21s13 22.667 13 38c0 18 -5.83301 33.167 -17.5 45.5s-27.5 18.5 -47.5 18.5c-12 0 -22.333 -2.16699 -31 -6.5
s-15.834 -9.83301 -21.501 -16.5s-9.83398 -14.334 -12.501 -23.001s-4 -17 -4 -25c0 -21.333 7.83301 -39.166 23.5 -53.499s35.167 -21.5 58.5 -21.5c26 0 51.667 8.16699 77 24.5s50.166 39 74.499 68s48.166 63 71.499 102s45.666 81.167 66.999 126.5
c14 28.667 28.167 60 42.5 94l41 95c13 29.333 24.5 53.666 34.5 72.999s17.333 29 22 29c1.33301 0 2.66602 -1 3.99902 -3c5.33301 -14.667 13.5 -25.334 24.5 -32.001s22.5 -10 34.5 -10c16.667 0 31.834 5.83301 45.501 17.5s20.5 27.167 20.5 46.5
c0 21.333 -5.5 37.833 -16.5 49.5s-26.167 17.5 -45.5 17.5c-18 0 -33 -4.33301 -45 -13c-10 -7.33301 -21 -20.666 -33 -39.999s-24.167 -42 -36.5 -68s-24.666 -53.5 -36.999 -82.5l-34.5 -82.5l-50 223c-6 26.667 -18.167 45.334 -36.5 56.001s-42.5 16 -72.5 16
c-22.667 0 -43.667 -4.83301 -63 -14.5s-37 -21.5 -53 -35.5s-30.333 -29.167 -43 -45.5l-34 -44.5c-2 -2 -3 -4.33301 -3 -7c0 -6 2.66699 -9 8 -9c3.33301 0 6 2 8 6c6.66699 10 14.667 20.333 24 31s18.666 20.5 27.999 29.5s18.666 16.5 27.999 22.5s17.333 9 24 9
c7.33301 0 13.333 -1.33301 18 -4s8.5 -7.16699 11.5 -13.5s5.66699 -14.666 8 -24.999z" />
    <glyph glyph-name="OE" unicode="&#x152;" horiz-adv-x="1018" 
d="M634 672l-5.99707 -23c-38 22.667 -85 34 -141 34c-45.333 0 -87.333 -6.5 -126 -19.5s-73.5 -30.5 -104.5 -52.5s-58.333 -47.667 -82 -77s-43.5 -60.666 -59.5 -93.999s-28 -67.666 -36 -102.999s-12 -69.666 -12 -102.999c0 -34 4.83301 -66.167 14.5 -96.5
s24.667 -56.833 45 -79.5s46.166 -40.667 77.499 -54s68.666 -20 111.999 -20c25.333 0 49.666 2.16699 72.999 6.5s45.666 10.166 66.999 17.499l-2 -8h408c9.33301 0 17 3 23 9s10.333 13.667 13 23l37 141c2.66699 10.667 4 16.667 4 18c0 7.33301 -2.33301 11 -7 11
c-6.66699 0 -12.334 -6.66699 -17.001 -20c-7.33301 -20.667 -16.666 -41 -27.999 -61s-24.666 -37.667 -39.999 -53s-32.833 -27.833 -52.5 -37.5s-41.5 -14.5 -65.5 -14.5h-123l88 330h72c18 0 30.333 -7.66699 37 -23s10 -34.333 10 -57
c0 -5.33301 -0.166992 -10.833 -0.5 -16.5s-0.5 -11.167 -0.5 -16.5c0 -9.33301 3 -14 9 -14c4 0 7 3.66699 9 11l54 217c0.666992 3.33301 1 5.33301 1 6v2c0 6 -2.33301 9 -7 9s-8.33398 -3 -11.001 -9c-12 -24.667 -25.667 -46.334 -41 -65.001s-33.666 -28 -54.999 -28
h-72l78 294h93c20.667 0 38 -4.66699 52 -14s25.167 -20.833 33.5 -34.5s14.166 -28.5 17.499 -44.5s5 -31 5 -45c0 -5.33301 -0.166992 -10 -0.5 -14s-0.5 -7.33301 -0.5 -10c0 -8 2.33301 -12 7 -12s8.33398 5 11.001 15l34 126c2 7.33301 3.5 13.166 4.5 17.499
s1.5 8.5 1.5 12.5c0 12.667 -8.33301 19 -25 19h-376zM581.003 568c0 -16.667 -1.83301 -34.5 -5.5 -53.5s-8.16699 -39.167 -13.5 -60.5l-65 -244c-6.66699 -24 -14 -48.333 -22 -73s-18.667 -47 -32 -67s-29.833 -36.333 -49.5 -49s-44.5 -19 -74.5 -19
c-39.333 0 -66 9.16699 -80 27.5s-21 40.833 -21 67.5c0 17.333 2 35.333 6 54s8.33301 37 13 55l65 241c8 28.667 16.667 56.167 26 82.5s21 49.5 35 69.5s30.667 36 50 48s43 18 71 18c36 0 61.167 -8.66699 75.5 -26s21.5 -41 21.5 -71z" />
    <glyph glyph-name="oe" unicode="&#x153;" horiz-adv-x="771" 
d="M644 438c-36 0 -68.668 -4.99316 -98.001 -14.9932s-55.666 -23.667 -78.999 -41c-17.333 17.333 -38.666 30.833 -63.999 40.5s-54.333 14.5 -87 14.5c-34 0 -66.667 -6.83301 -98 -20.5s-59 -32.167 -83 -55.5s-43.167 -51 -57.5 -83s-21.5 -66.333 -21.5 -103
c0 -26.667 3.83301 -51.334 11.5 -74.001s19.5 -42.334 35.5 -59.001s36 -29.834 60 -39.501s52.333 -14.5 85 -14.5c31.333 0 60.5 4.33301 87.5 13s51.167 20.667 72.5 36c16 -15.333 35.5 -27.333 58.5 -36s49.833 -13 80.5 -13c26 0 50.333 3.33301 73 10
s43.5 15.667 62.5 27s36 24.166 51 38.499s28.167 29.5 39.5 45.5c2.66699 3.33301 4.33398 6.33301 5.00098 9s1 5 1 7c0 6 -2.33301 9 -7 9c-4 0 -8 -2.66699 -12 -8c-25.333 -36 -55.833 -64.5 -91.5 -85.5s-74.834 -31.5 -117.501 -31.5c-18 0 -34.333 5.16699 -49 15.5
s-22 25.166 -22 44.499c0 11.333 0.666992 21.166 2 29.499s3.66602 19.5 6.99902 33.5l16 68c12.667 -4 28 -7.5 46 -10.5s37 -4.5 57 -4.5c28 0 54 3 78 9s44.5 14.667 61.5 26s30.333 25.166 40 41.499s14.5 35.166 14.5 56.499c0 14.667 -3.16699 29.334 -9.5 44.001
s-16 27.5 -29 38.5s-29.333 20 -49 27s-43.167 10.5 -70.5 10.5zM384.999 361.007c0 -6.66699 -0.666992 -14.168 -2 -22.501s-3.83301 -20.666 -7.5 -36.999s-9 -38 -16 -65l-28.5 -105.5c-4 -14.667 -8.33301 -29.5 -13 -44.5s-10.5 -28.5 -17.5 -40.5
s-15.167 -21.833 -24.5 -29.5s-21 -11.5 -35 -11.5c-21.333 0 -36 6.83301 -44 20.5s-12 29.5 -12 47.5c0 6 0.5 12.667 1.5 20s3.16699 18.166 6.5 32.499l14 58.5l25 98c4.66699 18 9.66699 35.167 15 51.5s12 30.833 20 43.5s17.333 22.834 28 30.501s24 11.5 40 11.5
c19.333 0 32.5 -5.5 39.5 -16.5s10.5 -24.833 10.5 -41.5zM535.999 314.006c4 14 8.66992 27.501 14.0029 40.501s11.833 24.5 19.5 34.5s16.667 18 27 24s22.166 9 35.499 9c17.333 0 29.666 -5.5 36.999 -16.5s11 -25.167 11 -42.5
c0 -50.667 -11.833 -88.834 -35.5 -114.501s-53.834 -38.5 -90.501 -38.5c-8 0 -15.667 0.666992 -23 2l-22 4z" />
    <glyph glyph-name="Scaron" unicode="&#x160;" horiz-adv-x="557" 
d="M590 665l-35.998 -35.0039c-6 6 -13 12.167 -21 18.5s-17.5 12 -28.5 17s-23.5 9.16699 -37.5 12.5s-30.333 5 -49 5c-49.333 0 -91.833 -6 -127.5 -18s-65 -28 -88 -48s-40 -42.833 -51 -68.5s-16.5 -52.167 -16.5 -79.5c0 -30 7 -58.667 21 -86
s34.333 -49.666 61 -66.999c20.667 -13.333 38.334 -24.333 53.001 -33l40 -23.5l35.5 -21l40.5 -25.5c14 -9.33301 24.5 -20.833 31.5 -34.5s10.5 -28.167 10.5 -43.5s-3.5 -30.333 -10.5 -45s-17.167 -28 -30.5 -40s-29.833 -21.667 -49.5 -29s-42.167 -11 -67.5 -11
c-52 0 -92 15.333 -120 46s-45.333 73.334 -52 128.001c-1.33301 9.33301 -3 15.5 -5 18.5s-4.66699 4.5 -8 4.5c-4.66699 0 -9 -7.33301 -13 -22l-41 -154c-3.33301 -12 -5 -20 -5 -24c0 -5.33301 3 -8 9 -8c3.33301 0 6.5 1.33301 9.5 4s6.83301 6.33398 11.5 11.001
l50 48c6.66699 -8 14.667 -16.167 24 -24.5s20.333 -15.833 33 -22.5s27.667 -12.167 45 -16.5s38 -6.5 62 -6.5c52.667 0 97.667 6.33301 135 19s68 29.334 92 50.001s41.5 44.167 52.5 70.5s16.5 53.5 16.5 81.5c0 44.667 -9.83301 81.834 -29.5 111.501
s-48.834 55.167 -87.501 76.5c-20.667 11.333 -41.667 23.5 -63 36.5l-70 41.5c-15.333 8.66699 -27 20.5 -35 35.5s-12 30.833 -12 47.5c0 12.667 2.66699 25.167 8 37.5s13.833 23.333 25.5 33s26.667 17.5 45 23.5s40.5 9 66.5 9c22 0 41.333 -3.5 58 -10.5
s30.834 -16.167 42.501 -27.5s20.667 -24.333 27 -39s10.5 -29.667 12.5 -45c1.33301 -8.66699 2.66602 -15 3.99902 -19s4 -6 8 -6c3.33301 0 5.66602 1.16699 6.99902 3.5s2.66602 6.16602 3.99902 11.499l34 122c1.33301 4 2 6.66699 2 8v5c0 5.33301 -1.66699 8 -5 8
s-6.5 -1.16699 -9.5 -3.5s-5.83301 -4.83301 -8.5 -7.5zM304.002 851.996l88 -133h43l134 133l-10 10l-138 -77l-108 75z" />
    <glyph glyph-name="scaron" unicode="&#x161;" horiz-adv-x="415" 
d="M442 353c0 10.667 -3.16309 21.168 -9.49609 31.501s-16 19.666 -29 27.999s-29.333 15 -49 20s-42.834 7.5 -69.501 7.5c-25.333 0 -49.166 -3.16699 -71.499 -9.5s-41.666 -15.5 -57.999 -27.5s-29.333 -26.833 -39 -44.5s-14.5 -37.5 -14.5 -59.5
c0 -20.667 6.66699 -40.667 20 -60s35 -37.333 65 -54c29.333 -16 50.166 -33.167 62.499 -51.5s18.5 -36.166 18.5 -53.499c0 -26.667 -7.83301 -46 -23.5 -58s-36.167 -18 -61.5 -18c-16 0 -30.833 1.83301 -44.5 5.5s-25.5 7.83398 -35.5 12.501s-18 9.5 -24 14.5
s-9 9.16699 -9 12.5c0 2 2 3.66699 6 5c14 2 26.167 7.5 36.5 16.5s15.5 20.5 15.5 34.5c0 17.333 -5.83301 30.666 -17.5 39.999s-24.834 14 -39.501 14c-17.333 0 -31 -5.83301 -41 -17.5s-15 -25.5 -15 -41.5c0 -12.667 3.66699 -25.667 11 -39
s18.166 -25.333 32.499 -36s32.166 -19.5 53.499 -26.5s45.666 -10.5 72.999 -10.5c34.667 0 65 4.16699 91 12.5s47.667 19.666 65 33.999s30.333 31 39 50s13 39.5 13 61.5c0 62.667 -32 110.667 -96 144c-30 15.333 -50.667 29.333 -62 42s-17 26 -17 40
c0 18.667 7.66699 32 23 40s31.333 12 48 12c28.667 0 51.167 -3.33301 67.5 -10s24.5 -12.667 24.5 -18c0 -2.66699 -2.33301 -5 -7 -7c-10 -4 -17.167 -9.5 -21.5 -16.5s-6.5 -14.5 -6.5 -22.5c0 -14.667 4.83301 -25.834 14.5 -33.501s21.167 -11.5 34.5 -11.5
c15.333 0 27 4.83301 35 14.5s12 20.834 12 33.501zM204.004 657.001l88 -133h43l134 133l-10 10l-138 -77l-108 75z" />
    <glyph glyph-name="Ydieresis" unicode="&#x178;" horiz-adv-x="671" 
d="M488 797c0 15.333 -5 28.832 -15 40.499s-25.333 17.5 -46 17.5c-23.333 0 -40.833 -7.16699 -52.5 -21.5s-17.5 -29.5 -17.5 -45.5c0 -15.333 4.66699 -28.666 14 -39.999s24.333 -17 45 -17c24 0 42 7 54 21s18 29 18 45zM674 796.999
c0 15.333 -4.83301 28.832 -14.5 40.499s-25.167 17.5 -46.5 17.5c-23.333 0 -40.833 -7.16699 -52.5 -21.5s-17.5 -29.5 -17.5 -45.5c0 -15.333 4.83301 -28.666 14.5 -39.999s24.5 -17 44.5 -17c24 0 42 7 54 21s18 29 18 45zM646 672.998l-4 -16.001c26 0 39 -8 39 -24
c0 -9.33301 -4.66699 -20.666 -14 -33.999l-199 -265l-78 322h54l4 16h-277l-4 -16h53l98 -360l-75 -280h-54l-4 -16h269l4 16h-54l82 306l206 274c15.333 19.333 32 34.333 50 45s37.667 16 59 16l4 16h-159z" />
    <glyph glyph-name="florin" unicode="&#x192;" horiz-adv-x="726" 
d="M689 516h-516l-121 -516h516z" />
    <glyph glyph-name="circumflex" unicode="&#x2c6;" horiz-adv-x="403" 
d="M346 518l-88 134h-43l-134 -134l9 -9l139 76l108 -74z" />
    <glyph glyph-name="tilde" unicode="&#x2dc;" horiz-adv-x="462" 
d="M274 606c-14 6.66699 -28.166 12.165 -42.499 16.498s-28.833 6.5 -43.5 6.5c-20.667 0 -38 -3.16699 -52 -9.5s-25.167 -14 -33.5 -23s-14.333 -18 -18 -27s-5.5 -15.833 -5.5 -20.5c0 -8 2.66699 -12 8 -12c6 0 10.333 4.66699 13 14
c2.66699 10.667 8.33398 19.334 17.001 26.001s18.667 10 30 10c9.33301 0 18.166 -2.83301 26.499 -8.5s18.166 -11.167 29.499 -16.5c15.333 -7.33301 30 -12.5 44 -15.5s31.667 -4.5 53 -4.5c15.333 0 29 2.5 41 7.5s22 11.333 30 19s14 15.834 18 24.501s6 17 6 25
c0 6.66699 -2.66699 10 -8 10c-6 0 -10.667 -4.66699 -14 -14c-1.33301 -7.33301 -4.5 -13.833 -9.5 -19.5s-14.833 -8.5 -29.5 -8.5c-10.667 0 -21 2.16699 -31 6.5s-19.667 8.83301 -29 13.5z" />
    <glyph glyph-name="endash" unicode="&#x2013;" horiz-adv-x="366" 
d="M340 319h-260l-12 -43h260z" />
    <glyph glyph-name="emdash" unicode="&#x2014;" horiz-adv-x="694" 
d="M698 319h-588l-12 -43h588z" />
    <glyph glyph-name="quoteleft" unicode="&#x2018;" horiz-adv-x="253" 
d="M148 565c-0.666992 -4 -0.998047 -7.66797 -0.998047 -11.001v-9c0 -24.667 8.83301 -46.167 26.5 -64.5s41.5 -27.5 71.5 -27.5c14.667 0 27 2.33301 37 7s18 10.667 24 18s10.333 15.5 13 24.5s4 17.833 4 26.5c0 20 -7 36.333 -21 49s-29.333 19 -46 19
c-32 0 -52.667 -12.667 -62 -38c-0.666992 -1.33301 -1.33398 -3.33301 -2.00098 -6s-2 -4 -4 -4c-4.66699 0 -7 4.66699 -7 14s0.666992 15.666 2 18.999c2 10.667 6.66699 22.834 14 36.501s17.5 26.834 30.5 39.501s28.333 24.334 46 35.001s38.167 18.667 61.5 24
c5.33301 2 8 4.33301 8 7c0 3.33301 -2 5 -6 5c-2.66699 0 -5.33398 -0.666992 -8.00098 -2c-28 -6 -52.667 -15 -74 -27s-39.333 -25.5 -54 -40.5s-26.5 -30.833 -35.5 -47.5s-14.833 -32.334 -17.5 -47.001z" />
    <glyph glyph-name="quoteright" unicode="&#x2019;" horiz-adv-x="269" 
d="M364 602c0.666992 4 0.99707 7.66699 0.99707 11v9c0 24.667 -8.83301 46.167 -26.5 64.5s-41.5 27.5 -71.5 27.5c-14.667 0 -27 -2.33301 -37 -7s-18 -10.667 -24 -18s-10.333 -15.5 -13 -24.5s-4 -17.833 -4 -26.5c0 -20 7 -36.333 21 -49s29.333 -19 46 -19
c32 0 52.667 12.667 62 38c0.666992 1.33301 1.33398 3.33301 2.00098 6s2 4 4 4c4.66699 0 7 -4.66699 7 -14s-0.666992 -15.666 -2 -18.999c-2 -11.333 -6.66699 -23.666 -14 -36.999s-17.5 -26.333 -30.5 -39s-28.5 -24.334 -46.5 -35.001s-38.333 -18.667 -61 -24
c-5.33301 -2 -8 -4.33301 -8 -7c0 -3.33301 2 -5 6 -5c2.66699 0 5.33398 0.666992 8.00098 2c28 6 52.667 15 74 27s39.333 25.5 54 40.5s26.334 30.667 35.001 47s14.667 32.166 18 47.499z" />
    <glyph glyph-name="quotesinglbase" unicode="&#x201a;" horiz-adv-x="269" 
d="M354 108c0.666992 4 0.99707 7.66699 0.99707 11v9c0 24.667 -8.83301 46.167 -26.5 64.5s-41.5 27.5 -71.5 27.5c-14.667 0 -27 -2.33301 -37 -7s-18 -10.667 -24 -18s-10.333 -15.5 -13 -24.5s-4 -17.833 -4 -26.5c0 -20 7 -36.333 21 -49s29.333 -19 46 -19
c32 0 52.667 12.667 62 38c0.666992 1.33301 1.33398 3.33301 2.00098 6s2 4 4 4c4.66699 0 7 -4.66699 7 -14s-0.666992 -15.666 -2 -18.999c-2 -11.333 -6.66699 -23.666 -14 -36.999s-17.5 -26.333 -30.5 -39s-28.5 -24.334 -46.5 -35.001s-38.333 -18.667 -61 -24
c-5.33301 -2 -8 -4.33301 -8 -7c0 -3.33301 2 -5 6 -5c2.66699 0 5.33398 0.666992 8.00098 2c28 6 52.667 15 74 27s39.333 25.5 54 40.5s26.334 30.667 35.001 47s14.667 32.166 18 47.499z" />
    <glyph glyph-name="quotedblleft" unicode="&#x201c;" horiz-adv-x="468" 
d="M94 565c-0.666992 -4 -0.998047 -7.66797 -0.998047 -11.001v-9c0 -24.667 8.83301 -46.167 26.5 -64.5s41.5 -27.5 71.5 -27.5c14.667 0 27 2.33301 37 7s18 10.667 24 18s10.333 15.5 13 24.5s4 17.833 4 26.5c0 20 -7 36.333 -21 49s-29.333 19 -46 19
c-32 0 -52.667 -12.667 -62 -38c-0.666992 -1.33301 -1.33398 -3.33301 -2.00098 -6s-2 -4 -4 -4c-4.66699 0 -7 4.66699 -7 14s0.666992 15.666 2 18.999c2 10.667 6.66699 22.834 14 36.501s17.5 26.834 30.5 39.501s28.333 24.334 46 35.001s38.167 18.667 61.5 24
c5.33301 2 8 4.33301 8 7c0 3.33301 -2 5 -6 5c-2.66699 0 -5.33398 -0.666992 -8.00098 -2c-28 -6 -52.667 -15 -74 -27s-39.333 -25.5 -54 -40.5s-26.5 -30.833 -35.5 -47.5s-14.833 -32.334 -17.5 -47.001zM313.002 564.999
c-0.666992 -4 -0.998047 -7.66797 -0.998047 -11.001v-9c0 -24.667 8.83301 -46.167 26.5 -64.5s41.5 -27.5 71.5 -27.5c14.667 0 27 2.33301 37 7s18 10.667 24 18s10.333 15.5 13 24.5s4 17.833 4 26.5c0 20 -7 36.333 -21 49s-29.333 19 -46 19
c-32 0 -52.667 -12.667 -62 -38c-0.666992 -1.33301 -1.33398 -3.33301 -2.00098 -6s-2 -4 -4 -4c-4.66699 0 -7 4.66699 -7 14s0.666992 15.666 2 18.999c2 10.667 6.66699 22.834 14 36.501s17.5 26.834 30.5 39.501s28.333 24.334 46 35.001s38.167 18.667 61.5 24
c5.33301 2 8 4.33301 8 7c0 3.33301 -2 5 -6 5c-2.66699 0 -5.33398 -0.666992 -8.00098 -2c-28 -6 -52.667 -15 -74 -27s-39.333 -25.5 -54 -40.5s-26.5 -30.833 -35.5 -47.5s-14.833 -32.334 -17.5 -47.001z" />
    <glyph glyph-name="quotedblright" unicode="&#x201d;" horiz-adv-x="468" 
d="M577 602c0.666992 4 0.99707 7.66699 0.99707 11v9c0 24.667 -8.83301 46.167 -26.5 64.5s-41.5 27.5 -71.5 27.5c-14.667 0 -27 -2.33301 -37 -7s-18 -10.667 -24 -18s-10.333 -15.5 -13 -24.5s-4 -17.833 -4 -26.5c0 -20 7 -36.333 21 -49s29.333 -19 46 -19
c32 0 52.667 12.667 62 38c0.666992 1.33301 1.33398 3.33301 2.00098 6s2 4 4 4c4.66699 0 7 -4.66699 7 -14s-0.666992 -15.666 -2 -18.999c-2 -11.333 -6.66699 -23.666 -14 -36.999s-17.5 -26.333 -30.5 -39s-28.5 -24.334 -46.5 -35.001s-38.333 -18.667 -61 -24
c-5.33301 -2 -8 -4.33301 -8 -7c0 -3.33301 2 -5 6 -5c2.66699 0 5.33398 0.666992 8.00098 2c28 6 52.667 15 74 27s39.333 25.5 54 40.5s26.334 30.667 35.001 47s14.667 32.166 18 47.499zM357.997 602c0.666992 4 0.99707 7.66699 0.99707 11v9
c0 24.667 -8.83301 46.167 -26.5 64.5s-41.5 27.5 -71.5 27.5c-14.667 0 -27 -2.33301 -37 -7s-18 -10.667 -24 -18s-10.333 -15.5 -13 -24.5s-4 -17.833 -4 -26.5c0 -20 7 -36.333 21 -49s29.333 -19 46 -19c32 0 52.667 12.667 62 38
c0.666992 1.33301 1.33398 3.33301 2.00098 6s2 4 4 4c4.66699 0 7 -4.66699 7 -14s-0.666992 -15.666 -2 -18.999c-2 -11.333 -6.66699 -23.666 -14 -36.999s-17.5 -26.333 -30.5 -39s-28.5 -24.334 -46.5 -35.001s-38.333 -18.667 -61 -24c-5.33301 -2 -8 -4.33301 -8 -7
c0 -3.33301 2 -5 6 -5c2.66699 0 5.33398 0.666992 8.00098 2c28 6 52.667 15 74 27s39.333 25.5 54 40.5s26.334 30.667 35.001 47s14.667 32.166 18 47.499z" />
    <glyph glyph-name="quotedblbase" unicode="&#x201e;" horiz-adv-x="468" 
d="M549 108c0.666992 4 0.99707 7.66699 0.99707 11v9c0 24.667 -8.83301 46.167 -26.5 64.5s-41.5 27.5 -71.5 27.5c-14.667 0 -27 -2.33301 -37 -7s-18 -10.667 -24 -18s-10.333 -15.5 -13 -24.5s-4 -17.833 -4 -26.5c0 -20 7 -36.333 21 -49s29.333 -19 46 -19
c32 0 52.667 12.667 62 38c0.666992 1.33301 1.33398 3.33301 2.00098 6s2 4 4 4c4.66699 0 7 -4.66699 7 -14s-0.666992 -15.666 -2 -18.999c-2 -11.333 -6.66699 -23.666 -14 -36.999s-17.5 -26.333 -30.5 -39s-28.5 -24.334 -46.5 -35.001s-38.333 -18.667 -61 -24
c-5.33301 -2 -8 -4.33301 -8 -7c0 -3.33301 2 -5 6 -5c2.66699 0 5.33398 0.666992 8.00098 2c28 6 52.667 15 74 27s39.333 25.5 54 40.5s26.334 30.667 35.001 47s14.667 32.166 18 47.499zM329.997 108c0.666992 4 0.99707 7.66699 0.99707 11v9
c0 24.667 -8.83301 46.167 -26.5 64.5s-41.5 27.5 -71.5 27.5c-14.667 0 -27 -2.33301 -37 -7s-18 -10.667 -24 -18s-10.333 -15.5 -13 -24.5s-4 -17.833 -4 -26.5c0 -20 7 -36.333 21 -49s29.333 -19 46 -19c32 0 52.667 12.667 62 38
c0.666992 1.33301 1.33398 3.33301 2.00098 6s2 4 4 4c4.66699 0 7 -4.66699 7 -14s-0.666992 -15.666 -2 -18.999c-2 -11.333 -6.66699 -23.666 -14 -36.999s-17.5 -26.333 -30.5 -39s-28.5 -24.334 -46.5 -35.001s-38.333 -18.667 -61 -24c-5.33301 -2 -8 -4.33301 -8 -7
c0 -3.33301 2 -5 6 -5c2.66699 0 5.33398 0.666992 8.00098 2c28 6 52.667 15 74 27s39.333 25.5 54 40.5s26.334 30.667 35.001 47s14.667 32.166 18 47.499z" />
    <glyph glyph-name="dagger" unicode="&#x2020;" horiz-adv-x="360" 
d="M187 488l-70.001 -327.999h27l70 328h64l6 27h-65l7 29c1.33301 7.33301 4 14 8 20s8 12.333 12 19c3.33301 6 6.33301 12.5 9 19.5s4 15.167 4 24.5c0 12 -0.5 22.833 -1.5 32.5s-1.5 21.167 -1.5 34.5c0 8 -3.66699 12 -11 12c-5.33301 0 -10 -4 -14 -12l-15 -33
l-11 -24c-4.66699 -9.33301 -7.5 -16.5 -8.5 -21.5s-1.5 -9.5 -1.5 -13.5c0 -8.66699 0.833008 -16.834 2.5 -24.501s2.5 -15.167 2.5 -22.5c0 -1.33301 -0.166992 -3.33301 -0.5 -6s-1.16602 -7.66699 -2.49902 -15l-4 -19h-65l-5 -27h64z" />
    <glyph glyph-name="daggerdbl" unicode="&#x2021;" horiz-adv-x="305" 
d="M58 199l65 -0.000976562l-13 -58c-1.33301 -7.33301 -4.33301 -14.333 -9 -21s-9 -13.667 -13 -21c-3.33301 -6 -6.16602 -12.167 -8.49902 -18.5s-3.5 -13.5 -3.5 -21.5c0 -12 0.666992 -22.833 2 -32.5s2 -21.5 2 -35.5c0 -3.33301 0.833008 -6.16602 2.5 -8.49902
s4.16699 -3.5 7.5 -3.5c5.33301 0 10 4 14 12l15 33c4 8.66699 7.66699 17 11 25c5.33301 9.33301 8.33301 16.333 9 21s1 9 1 13c0 9.33301 -0.666992 17.666 -2 24.999s-2 15 -2 23v9c0 2.66699 0.666992 6.33398 2 11.001l11 48h65l6 27h-65l49 213h64l7 27h-65l13 58
c1.33301 7.33301 4.16602 14.333 8.49902 21s8.5 13.667 12.5 21c3.33301 5.33301 6.16602 11.333 8.49902 18s3.5 14.334 3.5 23.001c0 12 -0.5 22.833 -1.5 32.5s-1.5 21.167 -1.5 34.5c0 8 -3.66699 12 -11 12c-5.33301 0 -10 -4 -14 -12l-15 -33l-11 -24
c-4.66699 -9.33301 -7.5 -16.5 -8.5 -21.5s-1.5 -9.5 -1.5 -13.5c0 -8.66699 0.833008 -16.834 2.5 -24.501s2.5 -15.167 2.5 -22.5c0 -1.33301 -0.166992 -3.33301 -0.5 -6s-1.16602 -7.66699 -2.49902 -15l-11 -48h-64l-7 -27h65l-49 -213h-64z" />
    <glyph glyph-name="bullet" unicode="&#x2022;" horiz-adv-x="457" 
d="M79 219c0 -17.333 3 -34 9 -50s15.167 -30.167 27.5 -42.5s27.833 -22.166 46.5 -29.499s40.667 -11 66 -11c30 0 56.333 5 79 15s41.834 23 57.501 39s27.5 34 35.5 54s12 40 12 60c0 17.333 -3 34 -9 50s-15.167 30.167 -27.5 42.5s-27.833 22.166 -46.5 29.499
s-40.667 11 -66 11c-30 0 -56.333 -5 -79 -15s-41.834 -23 -57.501 -39s-27.5 -34 -35.5 -54s-12 -40 -12 -60z" />
    </font>
</defs>
</svg>
